<svg width="1728" height="3811" viewBox="0 0 1728 3811" fill="none" xmlns="http://www.w3.org/2000/svg">
<path d="M17 1487.38C244.2 1105.12 1263 1458.23 1744 1682.57V2239H-4V1534.75L17 1487.38Z" fill="url(#paint0_linear_476_19)"/>
<path d="M1743 1771.61V1725.46C1457.5 1636.85 1351.81 1402.52 1102 1427.91C709.84 1467.78 277.328 1684.92 -16.5 1836L-5 2548H1743V1771.61Z" fill="url(#paint1_linear_476_19)"/>
<path d="M1743 2119.58V2083.63C1558.5 1845.96 1529.31 1715.18 1279.5 1734.96C887.34 1766.02 288.828 1866.76 -5 1984.46V2724.46H1743V2119.58Z" fill="url(#paint2_linear_476_19)"/>
<path d="M-5 2596L-207 2089.48C-22.5 1787.23 208.689 2081.47 458.5 2106.64C850.66 2146.14 1434.17 2270.81 1728 2420.5V3579.5C1723.34 3934.13 1144.92 3891.01 -5 3375V2596Z" fill="url(#paint3_linear_476_19)"/>
<path d="M1317 683.5C1292.6 663.5 1273 671.912 1262.5 681.5C1277.5 657.5 1295.5 664 1312 670.5C1314.4 659.534 1335.5 651 1349.5 657.5C1317 653 1320 672.333 1317 683.5Z" fill="#656565"/>
<path d="M221.655 600C240.166 584.428 255.034 590.978 263 598.443C251.621 579.757 237.966 584.818 225.448 589.878C223.628 581.341 207.621 574.696 197 579.757C221.655 576.253 219.379 591.306 221.655 600Z" fill="#656565"/>
<path d="M1315.66 1329C1334.17 1313.43 1349.03 1319.98 1357 1327.44C1345.62 1308.76 1331.97 1313.82 1319.45 1318.88C1317.63 1310.34 1301.62 1303.7 1291 1308.76C1315.66 1305.25 1313.38 1320.31 1315.66 1329Z" fill="#656565"/>
<circle cx="1461.5" cy="87.5" r="71.5" fill="#FFD80A" stroke="#FFB800" stroke-width="4"/>
<path fill-rule="evenodd" clip-rule="evenodd" d="M1275.99 39.4313C1276 39.2409 1276 39.0499 1276 38.8581C1276 28.4596 1268.52 20.03 1259.29 20.03C1256.97 20.03 1254.76 20.561 1252.76 21.5211C1250.96 13.3045 1244.37 7.21076 1236.52 7.21076C1233.96 7.21076 1231.54 7.85882 1229.37 9.01722C1225.74 3.54344 1219.94 0 1213.41 0C1202.41 0 1193.49 10.0438 1193.49 22.4336C1193.49 22.5582 1193.49 22.6827 1193.5 22.8069C1183.16 23.4831 1175 31.4835 1175 41.2536C1175 49.3277 1180.57 56.1932 1188.34 58.7151C1194.71 61.3695 1203.84 61.2977 1215.58 61.2053C1217.84 61.1875 1220.2 61.169 1222.65 61.169C1241.14 61.9456 1253.65 60.4634 1261.89 57.4597C1265.87 56.7585 1269.39 54.4718 1271.92 51.1905C1274.86 47.9081 1276 44.0238 1276 39.8309C1276 39.697 1276 39.5638 1275.99 39.4313Z" fill="white"/>
<path fill-rule="evenodd" clip-rule="evenodd" d="M1275.99 39.4313C1276 39.2409 1276 39.0499 1276 38.8581C1276 28.4596 1268.52 20.03 1259.29 20.03C1256.97 20.03 1254.76 20.561 1252.76 21.5211C1250.96 13.3045 1244.37 7.21076 1236.52 7.21076C1233.96 7.21076 1231.54 7.85882 1229.37 9.01722C1225.74 3.54344 1219.94 0 1213.41 0C1202.41 0 1193.49 10.0438 1193.49 22.4336C1193.49 22.5582 1193.49 22.6827 1193.5 22.8069C1183.16 23.4831 1175 31.4835 1175 41.2536C1175 49.3277 1180.57 56.1932 1188.34 58.7151C1194.71 61.3695 1203.84 61.2977 1215.58 61.2053C1217.84 61.1875 1220.2 61.169 1222.65 61.169C1241.14 61.9456 1253.65 60.4634 1261.89 57.4597C1265.87 56.7585 1269.39 54.4718 1271.92 51.1905C1274.86 47.9081 1276 44.0238 1276 39.8309C1276 39.697 1276 39.5638 1275.99 39.4313Z" fill="url(#paint4_linear_476_19)" fill-opacity="0.2"/>
<path fill-rule="evenodd" clip-rule="evenodd" d="M1174.99 125.431C1175 125.241 1175 125.05 1175 124.858C1175 114.46 1167.52 106.03 1158.29 106.03C1155.97 106.03 1153.76 106.561 1151.76 107.521C1149.96 99.3045 1143.37 93.2108 1135.52 93.2108C1132.96 93.2108 1130.54 93.8588 1128.37 95.0172C1124.74 89.5434 1118.94 86 1112.41 86C1101.41 86 1092.49 96.0438 1092.49 108.434C1092.49 108.558 1092.49 108.683 1092.5 108.807C1082.16 109.483 1074 117.484 1074 127.254C1074 135.328 1079.57 142.193 1087.34 144.715C1093.71 147.369 1102.84 147.298 1114.58 147.205C1116.84 147.188 1119.2 147.169 1121.65 147.169C1140.14 147.946 1152.65 146.463 1160.89 143.46C1164.87 142.758 1168.39 140.472 1170.92 137.191C1173.86 133.908 1175 130.024 1175 125.831C1175 125.697 1175 125.564 1174.99 125.431Z" fill="white"/>
<path fill-rule="evenodd" clip-rule="evenodd" d="M1174.99 125.431C1175 125.241 1175 125.05 1175 124.858C1175 114.46 1167.52 106.03 1158.29 106.03C1155.97 106.03 1153.76 106.561 1151.76 107.521C1149.96 99.3045 1143.37 93.2108 1135.52 93.2108C1132.96 93.2108 1130.54 93.8588 1128.37 95.0172C1124.74 89.5434 1118.94 86 1112.41 86C1101.41 86 1092.49 96.0438 1092.49 108.434C1092.49 108.558 1092.49 108.683 1092.5 108.807C1082.16 109.483 1074 117.484 1074 127.254C1074 135.328 1079.57 142.193 1087.34 144.715C1093.71 147.369 1102.84 147.298 1114.58 147.205C1116.84 147.188 1119.2 147.169 1121.65 147.169C1140.14 147.946 1152.65 146.463 1160.89 143.46C1164.87 142.758 1168.39 140.472 1170.92 137.191C1173.86 133.908 1175 130.024 1175 125.831C1175 125.697 1175 125.564 1174.99 125.431Z" fill="url(#paint5_linear_476_19)" fill-opacity="0.2"/>
<path fill-rule="evenodd" clip-rule="evenodd" d="M1522.99 145.443C1523 145.174 1523 144.903 1523 144.632C1523 130.013 1512.48 118.161 1499.5 118.161C1496.24 118.161 1493.14 118.908 1490.32 120.257C1487.79 108.705 1478.53 100.138 1467.5 100.138C1463.9 100.138 1460.49 101.049 1457.44 102.678C1452.34 94.9819 1444.19 90 1435 90C1419.54 90 1407 104.121 1407 121.54C1407 121.716 1407 121.89 1407 122.065C1392.47 123.016 1381 134.264 1381 148C1381 159.351 1388.83 169.002 1399.75 172.549C1408.71 176.282 1421.54 176.181 1438.06 176.051C1441.23 176.026 1444.55 176 1448 176C1473.99 177.092 1491.58 175.008 1503.16 170.785C1508.76 169.799 1513.71 166.583 1517.26 161.969C1521.4 157.355 1523 151.894 1523 146C1523 145.813 1523 145.628 1522.99 145.443Z" fill="white"/>
<path fill-rule="evenodd" clip-rule="evenodd" d="M1522.99 145.443C1523 145.174 1523 144.903 1523 144.632C1523 130.013 1512.48 118.161 1499.5 118.161C1496.24 118.161 1493.14 118.908 1490.32 120.257C1487.79 108.705 1478.53 100.138 1467.5 100.138C1463.9 100.138 1460.49 101.049 1457.44 102.678C1452.34 94.9819 1444.19 90 1435 90C1419.54 90 1407 104.121 1407 121.54C1407 121.716 1407 121.89 1407 122.065C1392.47 123.016 1381 134.264 1381 148C1381 159.351 1388.83 169.002 1399.75 172.549C1408.71 176.282 1421.54 176.181 1438.06 176.051C1441.23 176.026 1444.55 176 1448 176C1473.99 177.092 1491.58 175.008 1503.16 170.785C1508.76 169.799 1513.71 166.583 1517.26 161.969C1521.4 157.355 1523 151.894 1523 146C1523 145.813 1523 145.628 1522.99 145.443Z" fill="url(#paint6_linear_476_19)" fill-opacity="0.2"/>
<path fill-rule="evenodd" clip-rule="evenodd" d="M1290.99 1141.44C1291 1141.17 1291 1140.9 1291 1140.63C1291 1126.01 1280.48 1114.16 1267.5 1114.16C1264.24 1114.16 1261.14 1114.91 1258.32 1116.26C1255.79 1104.71 1246.53 1096.14 1235.5 1096.14C1231.9 1096.14 1228.49 1097.05 1225.44 1098.68C1220.34 1090.98 1212.19 1086 1203 1086C1187.54 1086 1175 1100.12 1175 1117.54C1175 1117.72 1175 1117.89 1175 1118.07C1160.47 1119.02 1149 1130.26 1149 1144C1149 1155.35 1156.83 1165 1167.75 1168.55C1176.71 1172.28 1189.54 1172.18 1206.06 1172.05C1209.23 1172.03 1212.55 1172 1216 1172C1241.99 1173.09 1259.58 1171.01 1271.16 1166.78C1276.76 1165.8 1281.71 1162.58 1285.26 1157.97C1289.4 1153.35 1291 1147.89 1291 1142C1291 1141.81 1291 1141.63 1290.99 1141.44Z" fill="white"/>
<path fill-rule="evenodd" clip-rule="evenodd" d="M1290.99 1141.44C1291 1141.17 1291 1140.9 1291 1140.63C1291 1126.01 1280.48 1114.16 1267.5 1114.16C1264.24 1114.16 1261.14 1114.91 1258.32 1116.26C1255.79 1104.71 1246.53 1096.14 1235.5 1096.14C1231.9 1096.14 1228.49 1097.05 1225.44 1098.68C1220.34 1090.98 1212.19 1086 1203 1086C1187.54 1086 1175 1100.12 1175 1117.54C1175 1117.72 1175 1117.89 1175 1118.07C1160.47 1119.02 1149 1130.26 1149 1144C1149 1155.35 1156.83 1165 1167.75 1168.55C1176.71 1172.28 1189.54 1172.18 1206.06 1172.05C1209.23 1172.03 1212.55 1172 1216 1172C1241.99 1173.09 1259.58 1171.01 1271.16 1166.78C1276.76 1165.8 1281.71 1162.58 1285.26 1157.97C1289.4 1153.35 1291 1147.89 1291 1142C1291 1141.81 1291 1141.63 1290.99 1141.44Z" fill="url(#paint7_linear_476_19)" fill-opacity="0.2"/>
<path fill-rule="evenodd" clip-rule="evenodd" d="M1094.99 716.443C1095 716.174 1095 715.903 1095 715.632C1095 701.013 1084.48 689.161 1071.5 689.161C1068.24 689.161 1065.14 689.908 1062.32 691.257C1059.79 679.705 1050.53 671.138 1039.5 671.138C1035.9 671.138 1032.49 672.049 1029.44 673.678C1024.34 665.982 1016.19 661 1007 661C991.536 661 979 675.121 979 692.54C979 692.716 979.001 692.89 979.004 693.065C964.471 694.016 953 705.264 953 719C953 730.351 960.833 740.002 971.753 743.549C980.707 747.282 993.543 747.181 1010.06 747.051C1013.23 747.026 1016.55 747 1020 747C1045.99 748.092 1063.58 746.008 1075.16 741.785C1080.76 740.799 1085.71 737.583 1089.26 732.969C1093.4 728.355 1095 722.894 1095 717C1095 716.813 1095 716.628 1094.99 716.443Z" fill="white"/>
<path fill-rule="evenodd" clip-rule="evenodd" d="M1094.99 716.443C1095 716.174 1095 715.903 1095 715.632C1095 701.013 1084.48 689.161 1071.5 689.161C1068.24 689.161 1065.14 689.908 1062.32 691.257C1059.79 679.705 1050.53 671.138 1039.5 671.138C1035.9 671.138 1032.49 672.049 1029.44 673.678C1024.34 665.982 1016.19 661 1007 661C991.536 661 979 675.121 979 692.54C979 692.716 979.001 692.89 979.004 693.065C964.471 694.016 953 705.264 953 719C953 730.351 960.833 740.002 971.753 743.549C980.707 747.282 993.543 747.181 1010.06 747.051C1013.23 747.026 1016.55 747 1020 747C1045.99 748.092 1063.58 746.008 1075.16 741.785C1080.76 740.799 1085.71 737.583 1089.26 732.969C1093.4 728.355 1095 722.894 1095 717C1095 716.813 1095 716.628 1094.99 716.443Z" fill="url(#paint8_linear_476_19)" fill-opacity="0.2"/>
<path fill-rule="evenodd" clip-rule="evenodd" d="M1546.99 552.443C1547 552.174 1547 551.903 1547 551.632C1547 537.013 1536.48 525.161 1523.5 525.161C1520.24 525.161 1517.14 525.908 1514.32 527.257C1511.79 515.705 1502.53 507.138 1491.5 507.138C1487.9 507.138 1484.49 508.049 1481.44 509.678C1476.34 501.982 1468.19 497 1459 497C1443.54 497 1431 511.121 1431 528.54C1431 528.716 1431 528.89 1431 529.065C1416.47 530.016 1405 541.264 1405 555C1405 566.351 1412.83 576.002 1423.75 579.549C1432.71 583.282 1445.54 583.181 1462.06 583.051C1465.23 583.026 1468.55 583 1472 583C1497.99 584.092 1515.58 582.008 1527.16 577.785C1532.76 576.799 1537.71 573.583 1541.26 568.969C1545.4 564.355 1547 558.894 1547 553C1547 552.813 1547 552.628 1546.99 552.443Z" fill="white"/>
<path fill-rule="evenodd" clip-rule="evenodd" d="M1546.99 552.443C1547 552.174 1547 551.903 1547 551.632C1547 537.013 1536.48 525.161 1523.5 525.161C1520.24 525.161 1517.14 525.908 1514.32 527.257C1511.79 515.705 1502.53 507.138 1491.5 507.138C1487.9 507.138 1484.49 508.049 1481.44 509.678C1476.34 501.982 1468.19 497 1459 497C1443.54 497 1431 511.121 1431 528.54C1431 528.716 1431 528.89 1431 529.065C1416.47 530.016 1405 541.264 1405 555C1405 566.351 1412.83 576.002 1423.75 579.549C1432.71 583.282 1445.54 583.181 1462.06 583.051C1465.23 583.026 1468.55 583 1472 583C1497.99 584.092 1515.58 582.008 1527.16 577.785C1532.76 576.799 1537.71 573.583 1541.26 568.969C1545.4 564.355 1547 558.894 1547 553C1547 552.813 1547 552.628 1546.99 552.443Z" fill="url(#paint9_linear_476_19)" fill-opacity="0.2"/>
<path fill-rule="evenodd" clip-rule="evenodd" d="M213.995 1213.43C213.998 1213.31 214 1213.2 214 1213.08C214 1206.8 209.48 1201.71 203.905 1201.71C202.506 1201.71 201.173 1202.03 199.961 1202.61C198.876 1197.65 194.899 1193.97 190.158 1193.97C188.613 1193.97 187.148 1194.36 185.838 1195.06C183.645 1191.75 180.143 1189.61 176.197 1189.61C169.554 1189.61 164.169 1195.68 164.169 1203.16C164.169 1203.23 164.17 1203.31 164.171 1203.38C157.928 1203.79 153 1208.62 153 1214.53C153 1219.4 156.365 1223.55 161.056 1225.07C164.902 1226.67 170.416 1226.63 177.51 1226.58C178.875 1226.56 180.299 1226.55 181.781 1226.55C192.945 1227.02 200.503 1226.13 205.476 1224.31C207.883 1223.89 210.008 1222.51 211.534 1220.53C213.313 1218.54 214 1216.2 214 1213.67C214 1213.59 213.998 1213.51 213.995 1213.43Z" fill="white"/>
<path fill-rule="evenodd" clip-rule="evenodd" d="M213.995 1213.43C213.998 1213.31 214 1213.2 214 1213.08C214 1206.8 209.48 1201.71 203.905 1201.71C202.506 1201.71 201.173 1202.03 199.961 1202.61C198.876 1197.65 194.899 1193.97 190.158 1193.97C188.613 1193.97 187.148 1194.36 185.838 1195.06C183.645 1191.75 180.143 1189.61 176.197 1189.61C169.554 1189.61 164.169 1195.68 164.169 1203.16C164.169 1203.23 164.17 1203.31 164.171 1203.38C157.928 1203.79 153 1208.62 153 1214.53C153 1219.4 156.365 1223.55 161.056 1225.07C164.902 1226.67 170.416 1226.63 177.51 1226.58C178.875 1226.56 180.299 1226.55 181.781 1226.55C192.945 1227.02 200.503 1226.13 205.476 1224.31C207.883 1223.89 210.008 1222.51 211.534 1220.53C213.313 1218.54 214 1216.2 214 1213.67C214 1213.59 213.998 1213.51 213.995 1213.43Z" fill="url(#paint10_linear_476_19)" fill-opacity="0.2"/>
<path fill-rule="evenodd" clip-rule="evenodd" d="M1637 1231.82C1637 1231.7 1637 1231.59 1637 1231.47C1637 1225.19 1632.48 1220.1 1626.9 1220.1C1625.51 1220.1 1624.17 1220.42 1622.96 1221C1621.88 1216.04 1617.9 1212.36 1613.16 1212.36C1611.61 1212.36 1610.15 1212.75 1608.84 1213.45C1606.64 1210.14 1603.14 1208 1599.2 1208C1592.55 1208 1587.17 1214.07 1587.17 1221.55C1587.17 1221.62 1587.17 1221.7 1587.17 1221.77C1580.93 1222.18 1576 1227.01 1576 1232.92C1576 1237.79 1579.36 1241.94 1584.06 1243.46C1587.9 1245.06 1593.42 1245.02 1600.51 1244.97C1601.88 1244.95 1603.3 1244.94 1604.78 1244.94C1615.95 1245.41 1623.5 1244.52 1628.48 1242.7C1630.88 1242.28 1633.01 1240.9 1634.53 1238.92C1636.31 1236.93 1637 1234.59 1637 1232.06C1637 1231.98 1637 1231.9 1637 1231.82Z" fill="white"/>
<path fill-rule="evenodd" clip-rule="evenodd" d="M1637 1231.82C1637 1231.7 1637 1231.59 1637 1231.47C1637 1225.19 1632.48 1220.1 1626.9 1220.1C1625.51 1220.1 1624.17 1220.42 1622.96 1221C1621.88 1216.04 1617.9 1212.36 1613.16 1212.36C1611.61 1212.36 1610.15 1212.75 1608.84 1213.45C1606.64 1210.14 1603.14 1208 1599.2 1208C1592.55 1208 1587.17 1214.07 1587.17 1221.55C1587.17 1221.62 1587.17 1221.7 1587.17 1221.77C1580.93 1222.18 1576 1227.01 1576 1232.92C1576 1237.79 1579.36 1241.94 1584.06 1243.46C1587.9 1245.06 1593.42 1245.02 1600.51 1244.97C1601.88 1244.95 1603.3 1244.94 1604.78 1244.94C1615.95 1245.41 1623.5 1244.52 1628.48 1242.7C1630.88 1242.28 1633.01 1240.9 1634.53 1238.92C1636.31 1236.93 1637 1234.59 1637 1232.06C1637 1231.98 1637 1231.9 1637 1231.82Z" fill="url(#paint11_linear_476_19)" fill-opacity="0.2"/>
<path fill-rule="evenodd" clip-rule="evenodd" d="M1689.69 121.308C1689.7 120.921 1689.71 120.533 1689.71 120.143C1689.71 98.9642 1674.47 81.7953 1655.67 81.7953C1650.95 81.7953 1646.45 82.877 1642.37 84.8322C1638.71 68.0975 1625.29 55.6864 1609.31 55.6864C1604.1 55.6864 1599.16 57.0062 1594.74 59.3655C1587.34 48.217 1575.53 41 1562.23 41C1539.83 41 1521.66 61.4565 1521.66 86.6908C1521.66 86.9448 1521.67 87.1982 1521.67 87.4511C1500.62 88.8281 1484 105.123 1484 125.022C1484 141.466 1495.35 155.45 1511.17 160.586C1524.14 165.992 1542.74 165.846 1566.65 165.658C1571.26 165.622 1576.06 165.584 1581.06 165.584C1618.71 167.166 1644.2 164.147 1660.96 158.029C1669.08 156.601 1676.24 151.944 1681.39 145.262C1687.39 138.576 1689.71 130.665 1689.71 122.124C1689.71 121.851 1689.7 121.579 1689.69 121.308Z" fill="white"/>
<path fill-rule="evenodd" clip-rule="evenodd" d="M1689.69 121.308C1689.7 120.921 1689.71 120.533 1689.71 120.143C1689.71 98.9642 1674.47 81.7953 1655.67 81.7953C1650.95 81.7953 1646.45 82.877 1642.37 84.8322C1638.71 68.0975 1625.29 55.6864 1609.31 55.6864C1604.1 55.6864 1599.16 57.0062 1594.74 59.3655C1587.34 48.217 1575.53 41 1562.23 41C1539.83 41 1521.66 61.4565 1521.66 86.6908C1521.66 86.9448 1521.67 87.1982 1521.67 87.4511C1500.62 88.8281 1484 105.123 1484 125.022C1484 141.466 1495.35 155.45 1511.17 160.586C1524.14 165.992 1542.74 165.846 1566.65 165.658C1571.26 165.622 1576.06 165.584 1581.06 165.584C1618.71 167.166 1644.2 164.147 1660.96 158.029C1669.08 156.601 1676.24 151.944 1681.39 145.262C1687.39 138.576 1689.71 130.665 1689.71 122.124C1689.71 121.851 1689.7 121.579 1689.69 121.308Z" fill="url(#paint12_linear_476_19)" fill-opacity="0.2"/>
<defs>
<linearGradient id="paint0_linear_476_19" x1="630" y1="1232.33" x2="888.837" y2="2234.13" gradientUnits="userSpaceOnUse">
<stop stop-color="#FCDD76"/>
<stop offset="0.142543" stop-color="#FEE8A1"/>
<stop offset="0.671875" stop-color="#FFF2C7"/>
<stop offset="1" stop-color="#FFF0C0"/>
</linearGradient>
<linearGradient id="paint1_linear_476_19" x1="1109" y1="1438.21" x2="798.6" y2="2527.95" gradientUnits="userSpaceOnUse">
<stop stop-color="#FCDD76"/>
<stop offset="0.142543" stop-color="#FEE8A1"/>
<stop offset="0.671875" stop-color="#FFF2C7"/>
<stop offset="1" stop-color="#FFF0C0"/>
</linearGradient>
<linearGradient id="paint2_linear_476_19" x1="1109" y1="1859.84" x2="914.868" y2="2734.64" gradientUnits="userSpaceOnUse">
<stop stop-color="#FCDD76"/>
<stop offset="0.142543" stop-color="#FEE8A1"/>
<stop offset="0.671875" stop-color="#FFF2C7"/>
<stop offset="1" stop-color="#FFF0C0"/>
</linearGradient>
<linearGradient id="paint3_linear_476_19" x1="629" y1="2265.44" x2="934.129" y2="3346.63" gradientUnits="userSpaceOnUse">
<stop stop-color="#FCDD76"/>
<stop offset="0.142543" stop-color="#FEE8A1"/>
<stop offset="0.671875" stop-color="#FFF2C7"/>
<stop offset="1" stop-color="#FFF0C0"/>
</linearGradient>
<linearGradient id="paint4_linear_476_19" x1="1226.57" y1="3.87991" x2="1225.52" y2="61.3735" gradientUnits="userSpaceOnUse">
<stop stop-color="white"/>
<stop offset="0.518401" stop-color="#FFC700"/>
<stop offset="1" stop-color="#FD3D3D"/>
</linearGradient>
<linearGradient id="paint5_linear_476_19" x1="1125.57" y1="89.8799" x2="1124.52" y2="147.373" gradientUnits="userSpaceOnUse">
<stop stop-color="white"/>
<stop offset="0.518401" stop-color="#FFC700"/>
<stop offset="1" stop-color="#FD3D3D"/>
</linearGradient>
<linearGradient id="paint6_linear_476_19" x1="1453.5" y1="95.4549" x2="1452.02" y2="176.288" gradientUnits="userSpaceOnUse">
<stop stop-color="white"/>
<stop offset="0.518401" stop-color="#FFC700"/>
<stop offset="1" stop-color="#FD3D3D"/>
</linearGradient>
<linearGradient id="paint7_linear_476_19" x1="1221.5" y1="1091.45" x2="1220.02" y2="1172.29" gradientUnits="userSpaceOnUse">
<stop stop-color="white"/>
<stop offset="0.518401" stop-color="#FFC700"/>
<stop offset="1" stop-color="#FD3D3D"/>
</linearGradient>
<linearGradient id="paint8_linear_476_19" x1="1025.5" y1="666.455" x2="1024.02" y2="747.288" gradientUnits="userSpaceOnUse">
<stop stop-color="white"/>
<stop offset="0.518401" stop-color="#FFC700"/>
<stop offset="1" stop-color="#FD3D3D"/>
</linearGradient>
<linearGradient id="paint9_linear_476_19" x1="1477.5" y1="502.455" x2="1476.02" y2="583.288" gradientUnits="userSpaceOnUse">
<stop stop-color="white"/>
<stop offset="0.518401" stop-color="#FFC700"/>
<stop offset="1" stop-color="#FD3D3D"/>
</linearGradient>
<linearGradient id="paint10_linear_476_19" x1="184.144" y1="1191.95" x2="183.511" y2="1226.68" gradientUnits="userSpaceOnUse">
<stop stop-color="white"/>
<stop offset="0.518401" stop-color="#FFC700"/>
<stop offset="1" stop-color="#FD3D3D"/>
</linearGradient>
<linearGradient id="paint11_linear_476_19" x1="1607.14" y1="1210.34" x2="1606.51" y2="1245.07" gradientUnits="userSpaceOnUse">
<stop stop-color="white"/>
<stop offset="0.518401" stop-color="#FFC700"/>
<stop offset="1" stop-color="#FD3D3D"/>
</linearGradient>
<linearGradient id="paint12_linear_476_19" x1="1589.03" y1="48.9023" x2="1586.89" y2="166" gradientUnits="userSpaceOnUse">
<stop stop-color="white"/>
<stop offset="0.518401" stop-color="#FFC700"/>
<stop offset="1" stop-color="#FD3D3D"/>
</linearGradient>
</defs>
</svg>
