<svg width="1537" height="1329" viewBox="0 0 1537 1329" fill="none" xmlns="http://www.w3.org/2000/svg">
<path d="M1164 683.5C1139.6 663.5 1120 671.912 1109.5 681.5C1124.5 657.5 1142.5 664 1159 670.5C1161.4 659.534 1182.5 651 1196.5 657.5C1164 653 1167 672.333 1164 683.5Z" fill="#656565"/>
<path d="M68.6552 600C87.1655 584.428 102.034 590.978 110 598.443C98.6207 579.757 84.9655 584.818 72.4483 589.878C70.6276 581.341 54.6207 574.696 44 579.757C68.6552 576.253 66.3793 591.306 68.6552 600Z" fill="#656565"/>
<path d="M1162.66 1329C1181.17 1313.43 1196.03 1319.98 1204 1327.44C1192.62 1308.76 1178.97 1313.82 1166.45 1318.88C1164.63 1310.34 1148.62 1303.7 1138 1308.76C1162.66 1305.25 1160.38 1320.31 1162.66 1329Z" fill="#656565"/>
<circle cx="1308.5" cy="87.5" r="71.5" fill="#FFD80A" stroke="#FFB800" stroke-width="4"/>
<path fill-rule="evenodd" clip-rule="evenodd" d="M1122.99 39.4313C1123 39.2409 1123 39.0499 1123 38.8581C1123 28.4596 1115.52 20.03 1106.29 20.03C1103.97 20.03 1101.76 20.561 1099.76 21.5211C1097.96 13.3045 1091.37 7.21076 1083.52 7.21076C1080.96 7.21076 1078.54 7.85882 1076.37 9.01722C1072.74 3.54344 1066.94 0 1060.41 0C1049.41 0 1040.49 10.0438 1040.49 22.4336C1040.49 22.5582 1040.49 22.6827 1040.5 22.8069C1030.16 23.4831 1022 31.4835 1022 41.2536C1022 49.3277 1027.57 56.1932 1035.34 58.7151C1041.71 61.3695 1050.84 61.2977 1062.58 61.2053C1064.84 61.1875 1067.2 61.169 1069.65 61.169C1088.14 61.9456 1100.65 60.4634 1108.89 57.4597C1112.87 56.7585 1116.39 54.4718 1118.92 51.1905C1121.86 47.9081 1123 44.0238 1123 39.8309C1123 39.697 1123 39.5638 1122.99 39.4313Z" fill="white"/>
<path fill-rule="evenodd" clip-rule="evenodd" d="M1122.99 39.4313C1123 39.2409 1123 39.0499 1123 38.8581C1123 28.4596 1115.52 20.03 1106.29 20.03C1103.97 20.03 1101.76 20.561 1099.76 21.5211C1097.96 13.3045 1091.37 7.21076 1083.52 7.21076C1080.96 7.21076 1078.54 7.85882 1076.37 9.01722C1072.74 3.54344 1066.94 0 1060.41 0C1049.41 0 1040.49 10.0438 1040.49 22.4336C1040.49 22.5582 1040.49 22.6827 1040.5 22.8069C1030.16 23.4831 1022 31.4835 1022 41.2536C1022 49.3277 1027.57 56.1932 1035.34 58.7151C1041.71 61.3695 1050.84 61.2977 1062.58 61.2053C1064.84 61.1875 1067.2 61.169 1069.65 61.169C1088.14 61.9456 1100.65 60.4634 1108.89 57.4597C1112.87 56.7585 1116.39 54.4718 1118.92 51.1905C1121.86 47.9081 1123 44.0238 1123 39.8309C1123 39.697 1123 39.5638 1122.99 39.4313Z" fill="url(#paint0_linear_469_13)" fill-opacity="0.2"/>
<path fill-rule="evenodd" clip-rule="evenodd" d="M1021.99 125.431C1022 125.241 1022 125.05 1022 124.858C1022 114.46 1014.52 106.03 1005.29 106.03C1002.97 106.03 1000.76 106.561 998.755 107.521C996.959 99.3045 990.373 93.2108 982.525 93.2108C979.965 93.2108 977.54 93.8588 975.371 95.0172C971.74 89.5434 965.941 86 959.408 86C948.409 86 939.493 96.0438 939.493 108.434C939.493 108.558 939.494 108.683 939.495 108.807C929.159 109.483 921 117.484 921 127.254C921 135.328 926.572 142.193 934.341 144.715C940.709 147.369 949.839 147.298 961.582 147.205C963.843 147.188 966.201 147.169 968.655 147.169C987.139 147.946 999.653 146.463 1007.89 143.46C1011.87 142.758 1015.39 140.472 1017.92 137.191C1020.86 133.908 1022 130.024 1022 125.831C1022 125.697 1022 125.564 1021.99 125.431Z" fill="white"/>
<path fill-rule="evenodd" clip-rule="evenodd" d="M1021.99 125.431C1022 125.241 1022 125.05 1022 124.858C1022 114.46 1014.52 106.03 1005.29 106.03C1002.97 106.03 1000.76 106.561 998.755 107.521C996.959 99.3045 990.373 93.2108 982.525 93.2108C979.965 93.2108 977.54 93.8588 975.371 95.0172C971.74 89.5434 965.941 86 959.408 86C948.409 86 939.493 96.0438 939.493 108.434C939.493 108.558 939.494 108.683 939.495 108.807C929.159 109.483 921 117.484 921 127.254C921 135.328 926.572 142.193 934.341 144.715C940.709 147.369 949.839 147.298 961.582 147.205C963.843 147.188 966.201 147.169 968.655 147.169C987.139 147.946 999.653 146.463 1007.89 143.46C1011.87 142.758 1015.39 140.472 1017.92 137.191C1020.86 133.908 1022 130.024 1022 125.831C1022 125.697 1022 125.564 1021.99 125.431Z" fill="url(#paint1_linear_469_13)" fill-opacity="0.2"/>
<path fill-rule="evenodd" clip-rule="evenodd" d="M1369.99 145.443C1370 145.174 1370 144.903 1370 144.632C1370 130.013 1359.48 118.161 1346.5 118.161C1343.24 118.161 1340.14 118.908 1337.32 120.257C1334.79 108.705 1325.53 100.138 1314.5 100.138C1310.9 100.138 1307.49 101.049 1304.44 102.678C1299.34 94.9819 1291.19 90 1282 90C1266.54 90 1254 104.121 1254 121.54C1254 121.716 1254 121.89 1254 122.065C1239.47 123.016 1228 134.264 1228 148C1228 159.351 1235.83 169.002 1246.75 172.549C1255.71 176.282 1268.54 176.181 1285.06 176.051C1288.23 176.026 1291.55 176 1295 176C1320.99 177.092 1338.58 175.008 1350.16 170.785C1355.76 169.799 1360.71 166.583 1364.26 161.969C1368.4 157.355 1370 151.894 1370 146C1370 145.813 1370 145.628 1369.99 145.443Z" fill="white"/>
<path fill-rule="evenodd" clip-rule="evenodd" d="M1369.99 145.443C1370 145.174 1370 144.903 1370 144.632C1370 130.013 1359.48 118.161 1346.5 118.161C1343.24 118.161 1340.14 118.908 1337.32 120.257C1334.79 108.705 1325.53 100.138 1314.5 100.138C1310.9 100.138 1307.49 101.049 1304.44 102.678C1299.34 94.9819 1291.19 90 1282 90C1266.54 90 1254 104.121 1254 121.54C1254 121.716 1254 121.89 1254 122.065C1239.47 123.016 1228 134.264 1228 148C1228 159.351 1235.83 169.002 1246.75 172.549C1255.71 176.282 1268.54 176.181 1285.06 176.051C1288.23 176.026 1291.55 176 1295 176C1320.99 177.092 1338.58 175.008 1350.16 170.785C1355.76 169.799 1360.71 166.583 1364.26 161.969C1368.4 157.355 1370 151.894 1370 146C1370 145.813 1370 145.628 1369.99 145.443Z" fill="url(#paint2_linear_469_13)" fill-opacity="0.2"/>
<path fill-rule="evenodd" clip-rule="evenodd" d="M1137.99 1141.44C1138 1141.17 1138 1140.9 1138 1140.63C1138 1126.01 1127.48 1114.16 1114.5 1114.16C1111.24 1114.16 1108.14 1114.91 1105.32 1116.26C1102.79 1104.71 1093.53 1096.14 1082.5 1096.14C1078.9 1096.14 1075.49 1097.05 1072.44 1098.68C1067.34 1090.98 1059.19 1086 1050 1086C1034.54 1086 1022 1100.12 1022 1117.54C1022 1117.72 1022 1117.89 1022 1118.07C1007.47 1119.02 996 1130.26 996 1144C996 1155.35 1003.83 1165 1014.75 1168.55C1023.71 1172.28 1036.54 1172.18 1053.06 1172.05C1056.23 1172.03 1059.55 1172 1063 1172C1088.99 1173.09 1106.58 1171.01 1118.16 1166.78C1123.76 1165.8 1128.71 1162.58 1132.26 1157.97C1136.4 1153.35 1138 1147.89 1138 1142C1138 1141.81 1138 1141.63 1137.99 1141.44Z" fill="white"/>
<path fill-rule="evenodd" clip-rule="evenodd" d="M1137.99 1141.44C1138 1141.17 1138 1140.9 1138 1140.63C1138 1126.01 1127.48 1114.16 1114.5 1114.16C1111.24 1114.16 1108.14 1114.91 1105.32 1116.26C1102.79 1104.71 1093.53 1096.14 1082.5 1096.14C1078.9 1096.14 1075.49 1097.05 1072.44 1098.68C1067.34 1090.98 1059.19 1086 1050 1086C1034.54 1086 1022 1100.12 1022 1117.54C1022 1117.72 1022 1117.89 1022 1118.07C1007.47 1119.02 996 1130.26 996 1144C996 1155.35 1003.83 1165 1014.75 1168.55C1023.71 1172.28 1036.54 1172.18 1053.06 1172.05C1056.23 1172.03 1059.55 1172 1063 1172C1088.99 1173.09 1106.58 1171.01 1118.16 1166.78C1123.76 1165.8 1128.71 1162.58 1132.26 1157.97C1136.4 1153.35 1138 1147.89 1138 1142C1138 1141.81 1138 1141.63 1137.99 1141.44Z" fill="url(#paint3_linear_469_13)" fill-opacity="0.2"/>
<path fill-rule="evenodd" clip-rule="evenodd" d="M941.989 716.443C941.996 716.174 942 715.903 942 715.632C942 701.013 931.479 689.161 918.5 689.161C915.242 689.161 912.14 689.908 909.319 691.257C906.793 679.705 897.535 671.138 886.5 671.138C882.901 671.138 879.492 672.049 876.443 673.678C871.337 665.982 863.185 661 854 661C838.536 661 826 675.121 826 692.54C826 692.716 826.001 692.89 826.004 693.065C811.471 694.016 800 705.264 800 719C800 730.351 807.833 740.002 818.753 743.549C827.707 747.282 840.543 747.181 857.056 747.051C860.235 747.026 863.55 747 867 747C892.988 748.092 910.582 746.008 922.157 741.785C927.759 740.799 932.706 737.583 936.259 732.969C940.401 728.355 942 722.894 942 717C942 716.813 941.996 716.628 941.989 716.443Z" fill="white"/>
<path fill-rule="evenodd" clip-rule="evenodd" d="M941.989 716.443C941.996 716.174 942 715.903 942 715.632C942 701.013 931.479 689.161 918.5 689.161C915.242 689.161 912.14 689.908 909.319 691.257C906.793 679.705 897.535 671.138 886.5 671.138C882.901 671.138 879.492 672.049 876.443 673.678C871.337 665.982 863.185 661 854 661C838.536 661 826 675.121 826 692.54C826 692.716 826.001 692.89 826.004 693.065C811.471 694.016 800 705.264 800 719C800 730.351 807.833 740.002 818.753 743.549C827.707 747.282 840.543 747.181 857.056 747.051C860.235 747.026 863.55 747 867 747C892.988 748.092 910.582 746.008 922.157 741.785C927.759 740.799 932.706 737.583 936.259 732.969C940.401 728.355 942 722.894 942 717C942 716.813 941.996 716.628 941.989 716.443Z" fill="url(#paint4_linear_469_13)" fill-opacity="0.2"/>
<path fill-rule="evenodd" clip-rule="evenodd" d="M1393.99 552.443C1394 552.174 1394 551.903 1394 551.632C1394 537.013 1383.48 525.161 1370.5 525.161C1367.24 525.161 1364.14 525.908 1361.32 527.257C1358.79 515.705 1349.53 507.138 1338.5 507.138C1334.9 507.138 1331.49 508.049 1328.44 509.678C1323.34 501.982 1315.19 497 1306 497C1290.54 497 1278 511.121 1278 528.54C1278 528.716 1278 528.89 1278 529.065C1263.47 530.016 1252 541.264 1252 555C1252 566.351 1259.83 576.002 1270.75 579.549C1279.71 583.282 1292.54 583.181 1309.06 583.051C1312.23 583.026 1315.55 583 1319 583C1344.99 584.092 1362.58 582.008 1374.16 577.785C1379.76 576.799 1384.71 573.583 1388.26 568.969C1392.4 564.355 1394 558.894 1394 553C1394 552.813 1394 552.628 1393.99 552.443Z" fill="white"/>
<path fill-rule="evenodd" clip-rule="evenodd" d="M1393.99 552.443C1394 552.174 1394 551.903 1394 551.632C1394 537.013 1383.48 525.161 1370.5 525.161C1367.24 525.161 1364.14 525.908 1361.32 527.257C1358.79 515.705 1349.53 507.138 1338.5 507.138C1334.9 507.138 1331.49 508.049 1328.44 509.678C1323.34 501.982 1315.19 497 1306 497C1290.54 497 1278 511.121 1278 528.54C1278 528.716 1278 528.89 1278 529.065C1263.47 530.016 1252 541.264 1252 555C1252 566.351 1259.83 576.002 1270.75 579.549C1279.71 583.282 1292.54 583.181 1309.06 583.051C1312.23 583.026 1315.55 583 1319 583C1344.99 584.092 1362.58 582.008 1374.16 577.785C1379.76 576.799 1384.71 573.583 1388.26 568.969C1392.4 564.355 1394 558.894 1394 553C1394 552.813 1394 552.628 1393.99 552.443Z" fill="url(#paint5_linear_469_13)" fill-opacity="0.2"/>
<path fill-rule="evenodd" clip-rule="evenodd" d="M60.9953 1213.43C60.9984 1213.31 61 1213.2 61 1213.08C61 1206.8 56.4803 1201.71 50.9049 1201.71C49.5055 1201.71 48.1726 1202.03 46.961 1202.61C45.876 1197.65 41.8988 1193.97 37.1585 1193.97C35.6126 1193.97 34.1479 1194.36 32.8382 1195.06C30.6449 1191.75 27.1429 1189.61 23.1972 1189.61C16.5542 1189.61 11.169 1195.68 11.169 1203.16C11.169 1203.23 11.1696 1203.31 11.1706 1203.38C4.92787 1203.79 0 1208.62 0 1214.53C0 1219.4 3.36475 1223.55 8.05577 1225.07C11.9022 1226.67 17.4163 1226.63 24.5098 1226.58C25.8754 1226.56 27.2995 1226.55 28.7815 1226.55C39.9454 1227.02 47.5034 1226.13 52.4757 1224.31C54.8826 1223.89 57.0077 1222.51 58.534 1220.53C60.313 1218.54 60.9998 1216.2 60.9998 1213.67C60.9998 1213.59 60.9983 1213.51 60.9953 1213.43Z" fill="white"/>
<path fill-rule="evenodd" clip-rule="evenodd" d="M60.9953 1213.43C60.9984 1213.31 61 1213.2 61 1213.08C61 1206.8 56.4803 1201.71 50.9049 1201.71C49.5055 1201.71 48.1726 1202.03 46.961 1202.61C45.876 1197.65 41.8988 1193.97 37.1585 1193.97C35.6126 1193.97 34.1479 1194.36 32.8382 1195.06C30.6449 1191.75 27.1429 1189.61 23.1972 1189.61C16.5542 1189.61 11.169 1195.68 11.169 1203.16C11.169 1203.23 11.1696 1203.31 11.1706 1203.38C4.92787 1203.79 0 1208.62 0 1214.53C0 1219.4 3.36475 1223.55 8.05577 1225.07C11.9022 1226.67 17.4163 1226.63 24.5098 1226.58C25.8754 1226.56 27.2995 1226.55 28.7815 1226.55C39.9454 1227.02 47.5034 1226.13 52.4757 1224.31C54.8826 1223.89 57.0077 1222.51 58.534 1220.53C60.313 1218.54 60.9998 1216.2 60.9998 1213.67C60.9998 1213.59 60.9983 1213.51 60.9953 1213.43Z" fill="url(#paint6_linear_469_13)" fill-opacity="0.2"/>
<path fill-rule="evenodd" clip-rule="evenodd" d="M1484 1231.82C1484 1231.7 1484 1231.59 1484 1231.47C1484 1225.19 1479.48 1220.1 1473.9 1220.1C1472.51 1220.1 1471.17 1220.42 1469.96 1221C1468.88 1216.04 1464.9 1212.36 1460.16 1212.36C1458.61 1212.36 1457.15 1212.75 1455.84 1213.45C1453.64 1210.14 1450.14 1208 1446.2 1208C1439.55 1208 1434.17 1214.07 1434.17 1221.55C1434.17 1221.62 1434.17 1221.7 1434.17 1221.77C1427.93 1222.18 1423 1227.01 1423 1232.92C1423 1237.79 1426.36 1241.94 1431.06 1243.46C1434.9 1245.06 1440.42 1245.02 1447.51 1244.97C1448.88 1244.95 1450.3 1244.94 1451.78 1244.94C1462.95 1245.41 1470.5 1244.52 1475.48 1242.7C1477.88 1242.28 1480.01 1240.9 1481.53 1238.92C1483.31 1236.93 1484 1234.59 1484 1232.06C1484 1231.98 1484 1231.9 1484 1231.82Z" fill="white"/>
<path fill-rule="evenodd" clip-rule="evenodd" d="M1484 1231.82C1484 1231.7 1484 1231.59 1484 1231.47C1484 1225.19 1479.48 1220.1 1473.9 1220.1C1472.51 1220.1 1471.17 1220.42 1469.96 1221C1468.88 1216.04 1464.9 1212.36 1460.16 1212.36C1458.61 1212.36 1457.15 1212.75 1455.84 1213.45C1453.64 1210.14 1450.14 1208 1446.2 1208C1439.55 1208 1434.17 1214.07 1434.17 1221.55C1434.17 1221.62 1434.17 1221.7 1434.17 1221.77C1427.93 1222.18 1423 1227.01 1423 1232.92C1423 1237.79 1426.36 1241.94 1431.06 1243.46C1434.9 1245.06 1440.42 1245.02 1447.51 1244.97C1448.88 1244.95 1450.3 1244.94 1451.78 1244.94C1462.95 1245.41 1470.5 1244.52 1475.48 1242.7C1477.88 1242.28 1480.01 1240.9 1481.53 1238.92C1483.31 1236.93 1484 1234.59 1484 1232.06C1484 1231.98 1484 1231.9 1484 1231.82Z" fill="url(#paint7_linear_469_13)" fill-opacity="0.2"/>
<path fill-rule="evenodd" clip-rule="evenodd" d="M1536.69 121.308C1536.7 120.921 1536.71 120.533 1536.71 120.143C1536.71 98.9642 1521.47 81.7953 1502.67 81.7953C1497.95 81.7953 1493.45 82.877 1489.37 84.8322C1485.71 68.0975 1472.29 55.6864 1456.31 55.6864C1451.1 55.6864 1446.16 57.0062 1441.74 59.3655C1434.34 48.217 1422.53 41 1409.23 41C1386.83 41 1368.66 61.4565 1368.66 86.6908C1368.66 86.9448 1368.67 87.1982 1368.67 87.4511C1347.62 88.8281 1331 105.123 1331 125.022C1331 141.466 1342.35 155.45 1358.17 160.586C1371.14 165.992 1389.74 165.846 1413.65 165.658C1418.26 165.622 1423.06 165.584 1428.06 165.584C1465.71 167.166 1491.2 164.147 1507.96 158.029C1516.08 156.601 1523.24 151.944 1528.39 145.262C1534.39 138.576 1536.71 130.665 1536.71 122.124C1536.71 121.851 1536.7 121.579 1536.69 121.308Z" fill="white"/>
<path fill-rule="evenodd" clip-rule="evenodd" d="M1536.69 121.308C1536.7 120.921 1536.71 120.533 1536.71 120.143C1536.71 98.9642 1521.47 81.7953 1502.67 81.7953C1497.95 81.7953 1493.45 82.877 1489.37 84.8322C1485.71 68.0975 1472.29 55.6864 1456.31 55.6864C1451.1 55.6864 1446.16 57.0062 1441.74 59.3655C1434.34 48.217 1422.53 41 1409.23 41C1386.83 41 1368.66 61.4565 1368.66 86.6908C1368.66 86.9448 1368.67 87.1982 1368.67 87.4511C1347.62 88.8281 1331 105.123 1331 125.022C1331 141.466 1342.35 155.45 1358.17 160.586C1371.14 165.992 1389.74 165.846 1413.65 165.658C1418.26 165.622 1423.06 165.584 1428.06 165.584C1465.71 167.166 1491.2 164.147 1507.96 158.029C1516.08 156.601 1523.24 151.944 1528.39 145.262C1534.39 138.576 1536.71 130.665 1536.71 122.124C1536.71 121.851 1536.7 121.579 1536.69 121.308Z" fill="url(#paint8_linear_469_13)" fill-opacity="0.2"/>
<defs>
<linearGradient id="paint0_linear_469_13" x1="1073.57" y1="3.87991" x2="1072.52" y2="61.3735" gradientUnits="userSpaceOnUse">
<stop stop-color="white"/>
<stop offset="0.518401" stop-color="#FFC700"/>
<stop offset="1" stop-color="#FD3D3D"/>
</linearGradient>
<linearGradient id="paint1_linear_469_13" x1="972.567" y1="89.8799" x2="971.517" y2="147.373" gradientUnits="userSpaceOnUse">
<stop stop-color="white"/>
<stop offset="0.518401" stop-color="#FFC700"/>
<stop offset="1" stop-color="#FD3D3D"/>
</linearGradient>
<linearGradient id="paint2_linear_469_13" x1="1300.5" y1="95.4549" x2="1299.02" y2="176.288" gradientUnits="userSpaceOnUse">
<stop stop-color="white"/>
<stop offset="0.518401" stop-color="#FFC700"/>
<stop offset="1" stop-color="#FD3D3D"/>
</linearGradient>
<linearGradient id="paint3_linear_469_13" x1="1068.5" y1="1091.45" x2="1067.02" y2="1172.29" gradientUnits="userSpaceOnUse">
<stop stop-color="white"/>
<stop offset="0.518401" stop-color="#FFC700"/>
<stop offset="1" stop-color="#FD3D3D"/>
</linearGradient>
<linearGradient id="paint4_linear_469_13" x1="872.5" y1="666.455" x2="871.024" y2="747.288" gradientUnits="userSpaceOnUse">
<stop stop-color="white"/>
<stop offset="0.518401" stop-color="#FFC700"/>
<stop offset="1" stop-color="#FD3D3D"/>
</linearGradient>
<linearGradient id="paint5_linear_469_13" x1="1324.5" y1="502.455" x2="1323.02" y2="583.288" gradientUnits="userSpaceOnUse">
<stop stop-color="white"/>
<stop offset="0.518401" stop-color="#FFC700"/>
<stop offset="1" stop-color="#FD3D3D"/>
</linearGradient>
<linearGradient id="paint6_linear_469_13" x1="31.1444" y1="1191.95" x2="30.5105" y2="1226.68" gradientUnits="userSpaceOnUse">
<stop stop-color="white"/>
<stop offset="0.518401" stop-color="#FFC700"/>
<stop offset="1" stop-color="#FD3D3D"/>
</linearGradient>
<linearGradient id="paint7_linear_469_13" x1="1454.14" y1="1210.34" x2="1453.51" y2="1245.07" gradientUnits="userSpaceOnUse">
<stop stop-color="white"/>
<stop offset="0.518401" stop-color="#FFC700"/>
<stop offset="1" stop-color="#FD3D3D"/>
</linearGradient>
<linearGradient id="paint8_linear_469_13" x1="1436.03" y1="48.9023" x2="1433.89" y2="166" gradientUnits="userSpaceOnUse">
<stop stop-color="white"/>
<stop offset="0.518401" stop-color="#FFC700"/>
<stop offset="1" stop-color="#FD3D3D"/>
</linearGradient>
</defs>
</svg>
