<svg width="434" height="405" viewBox="0 0 434 405" fill="none" xmlns="http://www.w3.org/2000/svg">
<g filter="url(#filter0_f_469_12)">
<ellipse cx="273.447" cy="350.422" rx="54.8419" ry="8.26981" fill="#8D6D48"/>
</g>
<path d="M142.061 342.183C140.62 344.886 136.813 337.214 135.09 333.04L136.155 330.835C138.724 333.492 143.502 339.481 142.061 342.183Z" fill="#D3FACB"/>
<path d="M142.061 342.183C140.62 344.886 136.813 337.214 135.09 333.04L136.155 330.835C138.724 333.492 143.502 339.481 142.061 342.183Z" fill="url(#paint0_linear_469_12)" fill-opacity="0.2"/>
<path d="M175.86 322.529C175.417 325.559 169.243 319.624 166.211 316.277L166.468 313.843C169.783 315.475 176.303 319.498 175.86 322.529Z" fill="#D3FACB"/>
<path d="M175.86 322.529C175.417 325.559 169.243 319.624 166.211 316.277L166.468 313.843C169.783 315.475 176.303 319.498 175.86 322.529Z" fill="url(#paint1_linear_469_12)" fill-opacity="0.2"/>
<path d="M113.329 346.048C111.888 348.75 108.081 341.078 106.358 336.904L107.422 334.699C109.991 337.356 114.769 343.345 113.329 346.048Z" fill="#D3FACB"/>
<path d="M113.329 346.048C111.888 348.75 108.081 341.078 106.358 336.904L107.422 334.699C109.991 337.356 114.769 343.345 113.329 346.048Z" fill="url(#paint2_linear_469_12)" fill-opacity="0.2"/>
<path d="M84.6078 347.813C83.1668 350.516 79.3603 342.844 77.6371 338.67L78.7017 336.465C81.2708 339.122 86.0488 345.11 84.6078 347.813Z" fill="#D3FACB"/>
<path d="M84.6078 347.813C83.1668 350.516 79.3603 342.844 77.6371 338.67L78.7017 336.465C81.2708 339.122 86.0488 345.11 84.6078 347.813Z" fill="url(#paint3_linear_469_12)" fill-opacity="0.2"/>
<ellipse cx="67.4197" cy="311.561" rx="36.1143" ry="30.4524" transform="rotate(29.4464 67.4197 311.561)" fill="#D9FFD2"/>
<ellipse cx="67.4197" cy="311.561" rx="36.1143" ry="30.4524" transform="rotate(29.4464 67.4197 311.561)" fill="url(#paint4_linear_469_12)" fill-opacity="0.2"/>
<ellipse cx="78.7366" cy="309.82" rx="36.1143" ry="30.4524" transform="rotate(29.4464 78.7366 309.82)" fill="#D9FFD2"/>
<ellipse cx="78.7366" cy="309.82" rx="36.1143" ry="30.4524" transform="rotate(29.4464 78.7366 309.82)" fill="url(#paint5_linear_469_12)" fill-opacity="0.2"/>
<ellipse cx="99.6292" cy="309.82" rx="36.1143" ry="30.4524" transform="rotate(29.4464 99.6292 309.82)" fill="#D9FFD2"/>
<ellipse cx="99.6292" cy="309.82" rx="36.1143" ry="30.4524" transform="rotate(29.4464 99.6292 309.82)" fill="url(#paint6_linear_469_12)" fill-opacity="0.2"/>
<ellipse cx="124.874" cy="306.338" rx="36.1143" ry="30.4524" transform="rotate(29.4464 124.874 306.338)" fill="#D9FFD2"/>
<ellipse cx="124.874" cy="306.338" rx="36.1143" ry="30.4524" transform="rotate(29.4464 124.874 306.338)" fill="url(#paint7_linear_469_12)" fill-opacity="0.2"/>
<ellipse cx="145.766" cy="292.41" rx="36.1143" ry="30.4524" transform="rotate(29.4464 145.766 292.41)" fill="#D9FFD2"/>
<ellipse cx="145.766" cy="292.41" rx="36.1143" ry="30.4524" transform="rotate(29.4464 145.766 292.41)" fill="url(#paint8_linear_469_12)" fill-opacity="0.2"/>
<ellipse cx="157.953" cy="273.259" rx="36.1143" ry="30.4524" transform="rotate(29.4464 157.953 273.259)" fill="#D9FFD2"/>
<ellipse cx="157.953" cy="273.259" rx="36.1143" ry="30.4524" transform="rotate(29.4464 157.953 273.259)" fill="url(#paint9_linear_469_12)" fill-opacity="0.2"/>
<ellipse cx="161.435" cy="250.625" rx="36.1143" ry="30.4524" transform="rotate(29.4464 161.435 250.625)" fill="#D9FFD2"/>
<ellipse cx="161.435" cy="250.625" rx="36.1143" ry="30.4524" transform="rotate(29.4464 161.435 250.625)" fill="url(#paint10_linear_469_12)" fill-opacity="0.2"/>
<ellipse cx="160.494" cy="224.64" rx="36.1143" ry="30.4524" transform="rotate(29.4464 160.494 224.64)" fill="#D9FFD2"/>
<ellipse cx="160.494" cy="224.64" rx="36.1143" ry="30.4524" transform="rotate(29.4464 160.494 224.64)" fill="url(#paint11_linear_469_12)" fill-opacity="0.2"/>
<ellipse cx="163.238" cy="197.369" rx="39.4809" ry="33.2068" transform="rotate(29.4464 163.238 197.369)" fill="#D9FFD2"/>
<ellipse cx="163.238" cy="197.369" rx="39.4809" ry="33.2068" transform="rotate(29.4464 163.238 197.369)" fill="url(#paint12_linear_469_12)" fill-opacity="0.2"/>
<path d="M150.969 141.591C152.52 156.525 147.98 166.497 145.516 169.617C145.639 171.267 147.006 173.515 151.494 169.301C155.981 165.087 155.871 148.576 155.255 140.848C156.359 136.609 156.689 128.97 149.175 132.319C141.661 135.669 147.24 139.896 150.969 141.591Z" fill="#D9FED2"/>
<path d="M150.969 141.591C152.52 156.525 147.98 166.497 145.516 169.617C145.639 171.267 147.006 173.515 151.494 169.301C155.981 165.087 155.871 148.576 155.255 140.848C156.359 136.609 156.689 128.97 149.175 132.319C141.661 135.669 147.24 139.896 150.969 141.591Z" fill="url(#paint13_linear_469_12)" fill-opacity="0.66"/>
<path d="M187.37 148.086C188.921 163.02 184.381 172.992 181.917 176.111C182.039 177.762 183.407 180.01 187.894 175.795C192.382 171.581 192.272 155.071 191.656 147.342C192.76 143.104 193.09 135.464 185.576 138.814C178.062 142.163 183.641 146.391 187.37 148.086Z" fill="#D9FED2"/>
<path d="M187.37 148.086C188.921 163.02 184.381 172.992 181.917 176.111C182.039 177.762 183.407 180.01 187.894 175.795C192.382 171.581 192.272 155.071 191.656 147.342C192.76 143.104 193.09 135.464 185.576 138.814C178.062 142.163 183.641 146.391 187.37 148.086Z" fill="url(#paint14_linear_469_12)" fill-opacity="0.66"/>
<circle cx="179.712" cy="168.186" r="12.5482" transform="rotate(29.4464 179.712 168.186)" fill="white"/>
<circle cx="145.456" cy="165.365" r="12.5482" transform="rotate(29.4464 145.456 165.365)" fill="white"/>
<path d="M198.978 284.679C201.139 286.849 192.688 288.237 188.192 288.66L186.396 286.995C189.69 285.319 196.817 282.508 198.978 284.679Z" fill="#D3FACB"/>
<path d="M198.978 284.679C201.139 286.849 192.688 288.237 188.192 288.66L186.396 286.995C189.69 285.319 196.817 282.508 198.978 284.679Z" fill="url(#paint15_linear_469_12)" fill-opacity="0.2"/>
<path d="M202.794 248.698C205.399 250.309 197.499 253.616 193.223 255.068L191.091 253.865C193.906 251.471 200.189 247.087 202.794 248.698Z" fill="#D3FACB"/>
<path d="M202.794 248.698C205.399 250.309 197.499 253.616 193.223 255.068L191.091 253.865C193.906 251.471 200.189 247.087 202.794 248.698Z" fill="url(#paint16_linear_469_12)" fill-opacity="0.2"/>
<path d="M135.204 258.876C132.419 260.15 139.846 264.415 143.908 266.389L146.173 265.46C143.677 262.734 137.99 257.601 135.204 258.876Z" fill="#D3FACB"/>
<path d="M135.204 258.876C132.419 260.15 139.846 264.415 143.908 266.389L146.173 265.46C143.677 262.734 137.99 257.601 135.204 258.876Z" fill="url(#paint17_linear_469_12)" fill-opacity="0.2"/>
<path d="M131.542 277.192C128.756 278.467 136.183 282.732 140.245 284.705L142.51 283.777C140.015 281.051 134.327 275.918 131.542 277.192Z" fill="#D3FACB"/>
<path d="M131.542 277.192C128.756 278.467 136.183 282.732 140.245 284.705L142.51 283.777C140.015 281.051 134.327 275.918 131.542 277.192Z" fill="url(#paint18_linear_469_12)" fill-opacity="0.2"/>
<path d="M121.741 300.916C119.026 302.333 126.664 306.207 130.823 307.967L133.037 306.921C130.403 304.329 124.457 299.499 121.741 300.916Z" fill="#D3FACB"/>
<path d="M121.741 300.916C119.026 302.333 126.664 306.207 130.823 307.967L133.037 306.921C130.403 304.329 124.457 299.499 121.741 300.916Z" fill="url(#paint19_linear_469_12)" fill-opacity="0.2"/>
<path d="M75.8302 308.061C76.7495 305.139 81.9021 311.98 84.3634 315.766L83.7225 318.129C80.7087 315.991 74.9108 310.983 75.8302 308.061Z" fill="#D3FACB"/>
<path d="M75.8302 308.061C76.7495 305.139 81.9021 311.98 84.3634 315.766L83.7225 318.129C80.7087 315.991 74.9108 310.983 75.8302 308.061Z" fill="url(#paint20_linear_469_12)" fill-opacity="0.2"/>
<path d="M96.9054 304.623C97.8247 301.702 102.977 308.543 105.439 312.329L104.798 314.692C101.784 312.553 95.986 307.545 96.9054 304.623Z" fill="#D3FACB"/>
<path d="M96.9054 304.623C97.8247 301.702 102.977 308.543 105.439 312.329L104.798 314.692C101.784 312.553 95.986 307.545 96.9054 304.623Z" fill="url(#paint21_linear_469_12)" fill-opacity="0.2"/>
<circle cx="185.516" cy="168.04" r="3.82567" transform="rotate(29.4464 185.516 168.04)" fill="black"/>
<circle cx="152.436" cy="165.428" r="3.82567" transform="rotate(29.4464 152.436 165.428)" fill="black"/>
<circle cx="187.241" cy="167.784" r="1.22422" transform="rotate(29.4464 187.241 167.784)" fill="white"/>
<circle cx="154.161" cy="165.173" r="1.22422" transform="rotate(29.4464 154.161 165.173)" fill="white"/>
<path d="M177.861 202.068C177.204 188.621 166.093 189.414 159.042 204.189C156.707 209.082 175.93 211.194 177.861 202.068Z" fill="#CBF0C4"/>
<path d="M177.861 202.068C177.204 188.621 166.093 189.414 159.042 204.189C156.707 209.082 175.93 211.194 177.861 202.068Z" fill="url(#paint22_radial_469_12)"/>
<path d="M177.861 202.068C177.204 188.621 166.093 189.414 159.042 204.189C156.707 209.082 175.93 211.194 177.861 202.068Z" stroke="#1D480E"/>
<path d="M317.673 354.975C316.232 357.678 312.425 350.005 310.702 345.831L311.767 343.627C314.336 346.283 319.114 352.272 317.673 354.975Z" fill="#D3FACB"/>
<path d="M317.673 354.975C316.232 357.678 312.425 350.005 310.702 345.831L311.767 343.627C314.336 346.283 319.114 352.272 317.673 354.975Z" fill="url(#paint23_linear_469_12)" fill-opacity="0.2"/>
<path d="M348.86 338.703C348.417 341.734 342.243 335.799 339.211 332.452L339.468 330.017C342.783 331.65 349.303 335.672 348.86 338.703Z" fill="#D3FACB"/>
<path d="M348.86 338.703C348.417 341.734 342.243 335.799 339.211 332.452L339.468 330.017C342.783 331.65 349.303 335.672 348.86 338.703Z" fill="url(#paint24_linear_469_12)" fill-opacity="0.2"/>
<path d="M288.94 358.839C287.499 361.542 283.692 353.869 281.969 349.696L283.034 347.491C285.603 350.147 290.381 356.136 288.94 358.839Z" fill="#D3FACB"/>
<path d="M288.94 358.839C287.499 361.542 283.692 353.869 281.969 349.696L283.034 347.491C285.603 350.147 290.381 356.136 288.94 358.839Z" fill="url(#paint25_linear_469_12)" fill-opacity="0.2"/>
<path d="M260.219 360.605C258.778 363.307 254.972 355.635 253.248 351.461L254.313 349.256C256.882 351.913 261.66 357.902 260.219 360.605Z" fill="#D3FACB"/>
<path d="M260.219 360.605C258.778 363.307 254.972 355.635 253.248 351.461L254.313 349.256C256.882 351.913 261.66 357.902 260.219 360.605Z" fill="url(#paint26_linear_469_12)" fill-opacity="0.2"/>
<ellipse cx="240.42" cy="327.736" rx="36.1143" ry="30.4524" transform="rotate(29.4464 240.42 327.736)" fill="#D9FFD2"/>
<ellipse cx="240.42" cy="327.736" rx="36.1143" ry="30.4524" transform="rotate(29.4464 240.42 327.736)" fill="url(#paint27_linear_469_12)" fill-opacity="0.2"/>
<ellipse cx="251.737" cy="325.995" rx="36.1143" ry="30.4524" transform="rotate(29.4464 251.737 325.995)" fill="#D9FFD2"/>
<ellipse cx="251.737" cy="325.995" rx="36.1143" ry="30.4524" transform="rotate(29.4464 251.737 325.995)" fill="url(#paint28_linear_469_12)" fill-opacity="0.2"/>
<ellipse cx="272.629" cy="325.995" rx="36.1143" ry="30.4524" transform="rotate(29.4464 272.629 325.995)" fill="#D9FFD2"/>
<ellipse cx="272.629" cy="325.995" rx="36.1143" ry="30.4524" transform="rotate(29.4464 272.629 325.995)" fill="url(#paint29_linear_469_12)" fill-opacity="0.2"/>
<ellipse cx="297.874" cy="322.513" rx="36.1143" ry="30.4524" transform="rotate(29.4464 297.874 322.513)" fill="#D9FFD2"/>
<ellipse cx="297.874" cy="322.513" rx="36.1143" ry="30.4524" transform="rotate(29.4464 297.874 322.513)" fill="url(#paint30_linear_469_12)" fill-opacity="0.2"/>
<ellipse cx="318.766" cy="308.584" rx="36.1143" ry="30.4524" transform="rotate(29.4464 318.766 308.584)" fill="#D9FFD2"/>
<ellipse cx="318.766" cy="308.584" rx="36.1143" ry="30.4524" transform="rotate(29.4464 318.766 308.584)" fill="url(#paint31_linear_469_12)" fill-opacity="0.2"/>
<ellipse cx="330.953" cy="289.433" rx="36.1143" ry="30.4524" transform="rotate(29.4464 330.953 289.433)" fill="#D9FFD2"/>
<ellipse cx="330.953" cy="289.433" rx="36.1143" ry="30.4524" transform="rotate(29.4464 330.953 289.433)" fill="url(#paint32_linear_469_12)" fill-opacity="0.2"/>
<ellipse cx="334.435" cy="266.8" rx="36.1143" ry="30.4524" transform="rotate(29.4464 334.435 266.8)" fill="#D9FFD2"/>
<ellipse cx="334.435" cy="266.8" rx="36.1143" ry="30.4524" transform="rotate(29.4464 334.435 266.8)" fill="url(#paint33_linear_469_12)" fill-opacity="0.2"/>
<ellipse cx="333.494" cy="240.815" rx="36.1143" ry="30.4524" transform="rotate(29.4464 333.494 240.815)" fill="#D9FFD2"/>
<ellipse cx="333.494" cy="240.815" rx="36.1143" ry="30.4524" transform="rotate(29.4464 333.494 240.815)" fill="url(#paint34_linear_469_12)" fill-opacity="0.2"/>
<ellipse cx="336.237" cy="213.544" rx="39.4809" ry="33.2068" transform="rotate(29.4464 336.237 213.544)" fill="#D9FFD2"/>
<ellipse cx="336.237" cy="213.544" rx="39.4809" ry="33.2068" transform="rotate(29.4464 336.237 213.544)" fill="url(#paint35_linear_469_12)" fill-opacity="0.2"/>
<path d="M323.969 157.766C325.52 172.7 320.98 182.672 318.516 185.791C318.639 187.442 320.006 189.69 324.494 185.476C328.981 181.261 328.871 164.751 328.255 157.023C329.359 152.784 329.689 145.144 322.175 148.494C314.661 151.843 320.24 156.071 323.969 157.766Z" fill="#D9FED2"/>
<path d="M323.969 157.766C325.52 172.7 320.98 182.672 318.516 185.791C318.639 187.442 320.006 189.69 324.494 185.476C328.981 181.261 328.871 164.751 328.255 157.023C329.359 152.784 329.689 145.144 322.175 148.494C314.661 151.843 320.24 156.071 323.969 157.766Z" fill="url(#paint36_linear_469_12)" fill-opacity="0.66"/>
<path d="M360.37 164.26C361.921 179.194 357.381 189.166 354.917 192.286C355.039 193.936 356.407 196.184 360.894 191.97C365.382 187.755 365.272 171.245 364.656 163.517C365.76 159.278 366.09 151.639 358.576 154.988C351.062 158.337 356.641 162.565 360.37 164.26Z" fill="#D9FED2"/>
<path d="M360.37 164.26C361.921 179.194 357.381 189.166 354.917 192.286C355.039 193.936 356.407 196.184 360.894 191.97C365.382 187.755 365.272 171.245 364.656 163.517C365.76 159.278 366.09 151.639 358.576 154.988C351.062 158.337 356.641 162.565 360.37 164.26Z" fill="url(#paint37_linear_469_12)" fill-opacity="0.66"/>
<circle cx="352.712" cy="184.361" r="12.5482" transform="rotate(29.4464 352.712 184.361)" fill="white"/>
<circle cx="318.456" cy="181.54" r="12.5482" transform="rotate(29.4464 318.456 181.54)" fill="white"/>
<path d="M371.978 300.853C374.139 303.024 365.688 304.412 361.192 304.835L359.396 303.17C362.69 301.493 369.817 298.683 371.978 300.853Z" fill="#D3FACB"/>
<path d="M371.978 300.853C374.139 303.024 365.688 304.412 361.192 304.835L359.396 303.17C362.69 301.493 369.817 298.683 371.978 300.853Z" fill="url(#paint38_linear_469_12)" fill-opacity="0.2"/>
<path d="M375.794 264.873C378.399 266.484 370.499 269.791 366.223 271.243L364.091 270.039C366.906 267.646 373.189 263.261 375.794 264.873Z" fill="#D3FACB"/>
<path d="M375.794 264.873C378.399 266.484 370.499 269.791 366.223 271.243L364.091 270.039C366.906 267.646 373.189 263.261 375.794 264.873Z" fill="url(#paint39_linear_469_12)" fill-opacity="0.2"/>
<path d="M308.204 275.05C305.419 276.325 312.846 280.59 316.908 282.563L319.173 281.635C316.677 278.909 310.99 273.776 308.204 275.05Z" fill="#D3FACB"/>
<path d="M308.204 275.05C305.419 276.325 312.846 280.59 316.908 282.563L319.173 281.635C316.677 278.909 310.99 273.776 308.204 275.05Z" fill="url(#paint40_linear_469_12)" fill-opacity="0.2"/>
<path d="M304.542 293.367C301.756 294.641 309.183 298.907 313.245 300.88L315.51 299.951C313.015 297.226 307.327 292.093 304.542 293.367Z" fill="#D3FACB"/>
<path d="M304.542 293.367C301.756 294.641 309.183 298.907 313.245 300.88L315.51 299.951C313.015 297.226 307.327 292.093 304.542 293.367Z" fill="url(#paint41_linear_469_12)" fill-opacity="0.2"/>
<path d="M294.741 317.09C292.026 318.508 299.664 322.381 303.823 324.141L306.037 323.096C303.403 320.504 297.457 315.673 294.741 317.09Z" fill="#D3FACB"/>
<path d="M294.741 317.09C292.026 318.508 299.664 322.381 303.823 324.141L306.037 323.096C303.403 320.504 297.457 315.673 294.741 317.09Z" fill="url(#paint42_linear_469_12)" fill-opacity="0.2"/>
<path d="M248.83 324.236C249.75 321.314 254.902 328.155 257.363 331.941L256.723 334.304C253.709 332.165 247.911 327.157 248.83 324.236Z" fill="#D3FACB"/>
<path d="M248.83 324.236C249.75 321.314 254.902 328.155 257.363 331.941L256.723 334.304C253.709 332.165 247.911 327.157 248.83 324.236Z" fill="url(#paint43_linear_469_12)" fill-opacity="0.2"/>
<path d="M269.905 320.798C270.825 317.876 275.977 324.718 278.439 328.504L277.798 330.867C274.784 328.728 268.986 323.72 269.905 320.798Z" fill="#D3FACB"/>
<path d="M269.905 320.798C270.825 317.876 275.977 324.718 278.439 328.504L277.798 330.867C274.784 328.728 268.986 323.72 269.905 320.798Z" fill="url(#paint44_linear_469_12)" fill-opacity="0.2"/>
<circle cx="346.329" cy="184.313" r="3.82567" transform="rotate(29.4464 346.329 184.313)" fill="black"/>
<circle cx="311.508" cy="180.831" r="3.82567" transform="rotate(29.4464 311.508 180.831)" fill="black"/>
<circle cx="348.054" cy="184.057" r="1.22422" transform="rotate(29.4464 348.054 184.057)" fill="white"/>
<circle cx="313.234" cy="180.575" r="1.22422" transform="rotate(29.4464 313.234 180.575)" fill="white"/>
<path d="M327.854 211.141C331.336 210.125 339.432 208.703 343.958 211.141C348.485 213.578 353.389 215.058 355.275 215.493" stroke="#1D480E"/>
<path d="M343.5 103.885C343.5 115.368 338.09 125.582 329.25 134.466C320.407 143.353 308.158 150.88 294.561 156.967C267.364 169.142 234.894 175.5 213.844 175.5C211.637 175.5 210.451 175.128 209.895 174.613C209.404 174.159 209.296 173.471 209.667 172.394C210.038 171.316 210.846 170.003 211.931 168.513C212.957 167.106 214.201 165.577 215.5 163.982L215.707 163.727C218.433 160.377 221.374 156.734 222.8 153.474C223.514 151.841 223.879 150.238 223.593 148.781C223.301 147.295 222.35 146.047 220.621 145.112C202.832 135.484 191.5 120.56 191.5 103.885C191.5 89.4917 199.938 76.4078 213.691 66.9008C227.441 57.3953 246.464 51.5 267.5 51.5C288.536 51.5 307.559 57.3953 321.309 66.9008C335.062 76.4078 343.5 89.4917 343.5 103.885Z" fill="white" stroke="#1D480E"/>
<path d="M230.948 86C230.831 86 230.74 85.9627 230.676 85.888C230.612 85.8133 230.58 85.7227 230.58 85.616V75.184C230.58 75.0667 230.612 74.976 230.676 74.912C230.751 74.8373 230.842 74.8 230.948 74.8H231.78C231.887 74.8 231.972 74.8373 232.036 74.912C232.111 74.976 232.148 75.0667 232.148 75.184V83.456L238.116 75.024C238.148 74.9813 238.191 74.9333 238.244 74.88C238.308 74.8267 238.399 74.8 238.516 74.8H239.3C239.407 74.8 239.492 74.8373 239.556 74.912C239.631 74.976 239.668 75.0667 239.668 75.184V85.632C239.668 85.7387 239.631 85.8293 239.556 85.904C239.492 85.968 239.407 86 239.3 86H238.484C238.378 86 238.287 85.968 238.212 85.904C238.138 85.8293 238.1 85.7387 238.1 85.632V77.424L232.148 85.776C232.127 85.808 232.084 85.856 232.02 85.92C231.956 85.9733 231.866 86 231.748 86H230.948ZM242.823 86C242.717 86 242.626 85.968 242.551 85.904C242.487 85.8293 242.455 85.7387 242.455 85.632V75.184C242.455 75.0667 242.487 74.976 242.551 74.912C242.626 74.8373 242.717 74.8 242.823 74.8H243.623C243.751 74.8 243.847 74.832 243.911 74.896C243.975 74.96 244.013 75.0133 244.023 75.056L247.415 81.52L250.823 75.056C250.845 75.0133 250.882 74.96 250.935 74.896C250.999 74.832 251.095 74.8 251.223 74.8H252.007C252.125 74.8 252.215 74.8373 252.279 74.912C252.354 74.976 252.391 75.0667 252.391 75.184V85.632C252.391 85.7387 252.354 85.8293 252.279 85.904C252.215 85.968 252.125 86 252.007 86H251.223C251.117 86 251.026 85.968 250.951 85.904C250.887 85.8293 250.855 85.7387 250.855 85.632V77.76L248.183 82.976C248.141 83.0827 248.077 83.168 247.991 83.232C247.906 83.2853 247.799 83.312 247.671 83.312H247.175C247.037 83.312 246.925 83.2853 246.839 83.232C246.765 83.168 246.701 83.0827 246.647 82.976L243.975 77.76V85.632C243.975 85.7387 243.938 85.8293 243.863 85.904C243.799 85.968 243.714 86 243.607 86H242.823ZM259.448 86C259.331 86 259.24 85.9627 259.176 85.888C259.112 85.8133 259.08 85.7227 259.08 85.616V75.184C259.08 75.0667 259.112 74.976 259.176 74.912C259.251 74.8373 259.342 74.8 259.448 74.8H260.28C260.387 74.8 260.472 74.8373 260.536 74.912C260.611 74.976 260.648 75.0667 260.648 75.184V83.456L266.616 75.024C266.648 74.9813 266.691 74.9333 266.744 74.88C266.808 74.8267 266.899 74.8 267.016 74.8H267.8C267.907 74.8 267.992 74.8373 268.056 74.912C268.131 74.976 268.168 75.0667 268.168 75.184V85.632C268.168 85.7387 268.131 85.8293 268.056 85.904C267.992 85.968 267.907 86 267.8 86H266.984C266.878 86 266.787 85.968 266.712 85.904C266.638 85.8293 266.6 85.7387 266.6 85.632V77.424L260.648 85.776C260.627 85.808 260.584 85.856 260.52 85.92C260.456 85.9733 260.366 86 260.248 86H259.448ZM275.245 86C275.128 86 275.037 85.968 274.973 85.904C274.909 85.8293 274.877 85.7387 274.877 85.632V75.184C274.877 75.0667 274.909 74.976 274.973 74.912C275.037 74.8373 275.128 74.8 275.245 74.8H282.205C282.322 74.8 282.413 74.8373 282.477 74.912C282.541 74.976 282.573 75.0667 282.573 75.184V75.824C282.573 75.9307 282.541 76.0213 282.477 76.096C282.413 76.16 282.322 76.192 282.205 76.192H276.445V79.424H279.613C280.744 79.424 281.624 79.7173 282.253 80.304C282.882 80.8907 283.197 81.68 283.197 82.672C283.197 83.0667 283.122 83.4613 282.973 83.856C282.824 84.2507 282.6 84.608 282.301 84.928C282.013 85.248 281.645 85.5093 281.197 85.712C280.749 85.904 280.221 86 279.613 86H275.245ZM276.445 84.704H279.421C279.89 84.704 280.285 84.6133 280.605 84.432C280.925 84.24 281.17 83.984 281.341 83.664C281.512 83.344 281.597 82.9973 281.597 82.624C281.597 82.0587 281.416 81.6 281.053 81.248C280.701 80.8853 280.157 80.704 279.421 80.704H276.445V84.704ZM285.464 86C285.346 86 285.256 85.968 285.192 85.904C285.128 85.8293 285.096 85.7387 285.096 85.632V75.184C285.096 75.0667 285.128 74.976 285.192 74.912C285.256 74.8373 285.346 74.8 285.464 74.8H292.072C292.189 74.8 292.28 74.8373 292.344 74.912C292.408 74.976 292.44 75.0667 292.44 75.184V75.792C292.44 75.9093 292.408 76 292.344 76.064C292.28 76.128 292.189 76.16 292.072 76.16H286.632V79.664H291.72C291.837 79.664 291.928 79.7013 291.992 79.776C292.056 79.84 292.088 79.9307 292.088 80.048V80.64C292.088 80.7467 292.056 80.8373 291.992 80.912C291.928 80.976 291.837 81.008 291.72 81.008H286.632V84.64H292.2C292.317 84.64 292.408 84.672 292.472 84.736C292.536 84.8 292.568 84.8907 292.568 85.008V85.632C292.568 85.7387 292.536 85.8293 292.472 85.904C292.408 85.968 292.317 86 292.2 86H285.464ZM298.175 86.16C297.524 86.16 296.948 86.0853 296.447 85.936C295.946 85.7867 295.524 85.584 295.183 85.328C294.842 85.0613 294.57 84.7573 294.367 84.416C294.175 84.0747 294.063 83.7067 294.031 83.312C294.02 83.216 294.047 83.1413 294.111 83.088C294.186 83.0347 294.271 83.008 294.367 83.008H295.167C295.263 83.008 295.348 83.0293 295.423 83.072C295.508 83.1147 295.572 83.2053 295.615 83.344C295.743 83.7707 296.02 84.1227 296.447 84.4C296.874 84.6667 297.444 84.8 298.159 84.8C298.66 84.8 299.114 84.7253 299.519 84.576C299.924 84.416 300.25 84.192 300.495 83.904C300.74 83.6053 300.863 83.248 300.863 82.832C300.863 82.2027 300.634 81.7173 300.175 81.376C299.727 81.024 299.114 80.848 298.335 80.848H297.183C297.076 80.848 296.991 80.816 296.927 80.752C296.863 80.6773 296.831 80.5867 296.831 80.48V79.92C296.831 79.8027 296.863 79.712 296.927 79.648C296.991 79.5733 297.076 79.536 297.183 79.536H298.271C298.932 79.536 299.466 79.392 299.871 79.104C300.287 78.816 300.495 78.3573 300.495 77.728C300.495 77.376 300.388 77.072 300.175 76.816C299.972 76.56 299.7 76.3627 299.359 76.224C299.018 76.0747 298.634 76 298.207 76C297.556 76 297.012 76.1173 296.575 76.352C296.138 76.5867 295.866 76.9653 295.759 77.488C295.727 77.6053 295.679 77.6907 295.615 77.744C295.551 77.7867 295.471 77.808 295.375 77.808H294.511C294.415 77.808 294.33 77.776 294.255 77.712C294.191 77.648 294.164 77.568 294.175 77.472C294.207 77.0667 294.319 76.6933 294.511 76.352C294.703 76 294.964 75.696 295.295 75.44C295.636 75.184 296.052 74.9867 296.543 74.848C297.034 74.7093 297.594 74.64 298.223 74.64C299.087 74.64 299.802 74.784 300.367 75.072C300.932 75.36 301.359 75.7333 301.647 76.192C301.935 76.64 302.079 77.1253 302.079 77.648C302.079 77.968 302.036 78.2827 301.951 78.592C301.876 78.9013 301.743 79.184 301.551 79.44C301.37 79.696 301.119 79.92 300.799 80.112C301.183 80.2933 301.492 80.528 301.727 80.816C301.972 81.0933 302.154 81.408 302.271 81.76C302.399 82.1013 302.463 82.4693 302.463 82.864C302.463 83.5147 302.287 84.0853 301.935 84.576C301.594 85.0667 301.103 85.456 300.463 85.744C299.823 86.0213 299.06 86.16 298.175 86.16ZM251.636 105C251.518 105 251.428 104.968 251.364 104.904C251.3 104.829 251.268 104.739 251.268 104.632V94.184C251.268 94.0667 251.3 93.976 251.364 93.912C251.428 93.8373 251.518 93.8 251.636 93.8H252.452C252.569 93.8 252.66 93.8373 252.724 93.912C252.798 93.976 252.836 94.0667 252.836 94.184V98.6H258.34V94.184C258.34 94.0667 258.372 93.976 258.436 93.912C258.51 93.8373 258.601 93.8 258.708 93.8H259.524C259.641 93.8 259.732 93.8373 259.796 93.912C259.87 93.976 259.908 94.0667 259.908 94.184V104.632C259.908 104.739 259.87 104.829 259.796 104.904C259.732 104.968 259.641 105 259.524 105H258.708C258.601 105 258.51 104.968 258.436 104.904C258.372 104.829 258.34 104.739 258.34 104.632V100.04H252.836V104.632C252.836 104.739 252.798 104.829 252.724 104.904C252.66 104.968 252.569 105 252.452 105H251.636ZM261.922 105C261.837 105 261.762 104.968 261.698 104.904C261.634 104.84 261.602 104.765 261.602 104.68C261.602 104.627 261.607 104.568 261.618 104.504L265.586 94.152C265.629 94.0453 265.687 93.96 265.762 93.896C265.837 93.832 265.949 93.8 266.098 93.8H267.186C267.325 93.8 267.431 93.832 267.506 93.896C267.591 93.96 267.655 94.0453 267.698 94.152L271.65 104.504C271.671 104.568 271.682 104.627 271.682 104.68C271.682 104.765 271.65 104.84 271.586 104.904C271.522 104.968 271.447 105 271.362 105H270.546C270.418 105 270.322 104.968 270.258 104.904C270.205 104.84 270.167 104.781 270.146 104.728L269.266 102.456H264.018L263.138 104.728C263.127 104.781 263.09 104.84 263.026 104.904C262.962 104.968 262.866 105 262.738 105H261.922ZM264.482 101.08H268.802L266.642 95.4L264.482 101.08ZM277.425 105.16C276.443 105.16 275.627 104.979 274.977 104.616C274.337 104.253 273.851 103.747 273.521 103.096C273.19 102.445 273.009 101.688 272.977 100.824C272.966 100.387 272.961 99.9173 272.961 99.416C272.961 98.9147 272.966 98.4347 272.977 97.976C273.009 97.112 273.19 96.3547 273.521 95.704C273.851 95.0533 274.337 94.5467 274.977 94.184C275.627 93.8213 276.443 93.64 277.425 93.64C278.161 93.64 278.806 93.7413 279.361 93.944C279.915 94.1467 280.374 94.4187 280.737 94.76C281.11 95.1013 281.393 95.4853 281.585 95.912C281.777 96.328 281.883 96.76 281.905 97.208C281.915 97.304 281.883 97.384 281.809 97.448C281.745 97.512 281.665 97.544 281.569 97.544H280.689C280.593 97.544 280.507 97.5173 280.433 97.464C280.369 97.4107 280.321 97.3147 280.289 97.176C280.107 96.344 279.766 95.7733 279.265 95.464C278.774 95.1547 278.155 95 277.409 95C276.555 95 275.878 95.2453 275.377 95.736C274.875 96.216 274.603 96.9893 274.561 98.056C274.529 98.9307 274.529 99.8267 274.561 100.744C274.603 101.811 274.875 102.589 275.377 103.08C275.878 103.56 276.555 103.8 277.409 103.8C278.155 103.8 278.774 103.645 279.265 103.336C279.766 103.027 280.107 102.456 280.289 101.624C280.321 101.485 280.369 101.389 280.433 101.336C280.507 101.283 280.593 101.256 280.689 101.256H281.569C281.665 101.256 281.745 101.288 281.809 101.352C281.883 101.416 281.915 101.496 281.905 101.592C281.883 102.04 281.777 102.477 281.585 102.904C281.393 103.32 281.11 103.699 280.737 104.04C280.374 104.381 279.915 104.653 279.361 104.856C278.806 105.059 278.161 105.16 277.425 105.16ZM230.893 124C230.807 124 230.727 123.968 230.653 123.904C230.589 123.84 230.557 123.765 230.557 123.68C230.557 123.637 230.562 123.6 230.573 123.568C230.594 123.525 230.61 123.493 230.621 123.472L234.285 118.304L230.797 113.328C230.765 113.264 230.749 113.195 230.749 113.12C230.749 113.035 230.781 112.96 230.845 112.896C230.909 112.832 230.983 112.8 231.069 112.8H232.029C232.135 112.8 232.221 112.827 232.285 112.88C232.349 112.923 232.407 112.987 232.461 113.072L235.277 117.072L238.077 113.072C238.119 112.987 238.173 112.923 238.237 112.88C238.311 112.827 238.397 112.8 238.493 112.8H239.405C239.49 112.8 239.565 112.832 239.629 112.896C239.693 112.96 239.725 113.035 239.725 113.12C239.725 113.195 239.703 113.264 239.661 113.328L236.221 118.32L239.869 123.472C239.89 123.493 239.906 123.525 239.917 123.568C239.927 123.6 239.933 123.637 239.933 123.68C239.933 123.765 239.901 123.84 239.837 123.904C239.773 123.968 239.693 124 239.597 124H238.621C238.525 124 238.439 123.973 238.365 123.92C238.301 123.867 238.242 123.808 238.189 123.744L235.213 119.584L232.253 123.744C232.199 123.808 232.141 123.867 232.077 123.92C232.013 123.973 231.927 124 231.821 124H230.893ZM245.706 124.16C244.799 124.16 244.02 124.005 243.37 123.696C242.719 123.376 242.218 122.891 241.866 122.24C241.514 121.579 241.316 120.752 241.274 119.76C241.263 119.291 241.258 118.843 241.258 118.416C241.258 117.979 241.263 117.525 241.274 117.056C241.316 116.075 241.519 115.259 241.882 114.608C242.255 113.947 242.767 113.456 243.418 113.136C244.079 112.805 244.842 112.64 245.706 112.64C246.58 112.64 247.343 112.805 247.994 113.136C248.655 113.456 249.172 113.947 249.546 114.608C249.919 115.259 250.122 116.075 250.154 117.056C250.175 117.525 250.186 117.979 250.186 118.416C250.186 118.843 250.175 119.291 250.154 119.76C250.122 120.752 249.924 121.579 249.562 122.24C249.21 122.891 248.708 123.376 248.058 123.696C247.407 124.005 246.623 124.16 245.706 124.16ZM245.706 122.8C246.527 122.8 247.194 122.555 247.706 122.064C248.228 121.573 248.511 120.779 248.554 119.68C248.575 119.2 248.586 118.773 248.586 118.4C248.586 118.016 248.575 117.589 248.554 117.12C248.532 116.384 248.394 115.787 248.138 115.328C247.892 114.869 247.562 114.533 247.146 114.32C246.73 114.107 246.25 114 245.706 114C245.183 114 244.714 114.107 244.298 114.32C243.882 114.533 243.546 114.869 243.29 115.328C243.044 115.787 242.906 116.384 242.874 117.12C242.863 117.589 242.858 118.016 242.858 118.4C242.858 118.773 242.863 119.2 242.874 119.68C242.916 120.779 243.199 121.573 243.722 122.064C244.244 122.555 244.906 122.8 245.706 122.8ZM252.886 124C252.768 124 252.678 123.968 252.614 123.904C252.55 123.829 252.518 123.739 252.518 123.632V113.184C252.518 113.067 252.55 112.976 252.614 112.912C252.678 112.837 252.768 112.8 252.886 112.8H256.95C257.739 112.8 258.422 112.928 258.998 113.184C259.584 113.44 260.038 113.824 260.358 114.336C260.678 114.837 260.838 115.467 260.838 116.224C260.838 116.981 260.678 117.611 260.358 118.112C260.038 118.613 259.584 118.992 258.998 119.248C258.422 119.504 257.739 119.632 256.95 119.632H254.118V123.632C254.118 123.739 254.08 123.829 254.006 123.904C253.942 123.968 253.851 124 253.734 124H252.886ZM254.102 118.288H256.87C257.659 118.288 258.251 118.112 258.646 117.76C259.04 117.408 259.238 116.896 259.238 116.224C259.238 115.563 259.046 115.051 258.662 114.688C258.278 114.325 257.68 114.144 256.87 114.144H254.102V118.288ZM266.799 124.16C265.893 124.16 265.114 124.005 264.463 123.696C263.813 123.376 263.311 122.891 262.959 122.24C262.607 121.579 262.41 120.752 262.367 119.76C262.357 119.291 262.351 118.843 262.351 118.416C262.351 117.979 262.357 117.525 262.367 117.056C262.41 116.075 262.613 115.259 262.975 114.608C263.349 113.947 263.861 113.456 264.511 113.136C265.173 112.805 265.935 112.64 266.799 112.64C267.674 112.64 268.437 112.805 269.087 113.136C269.749 113.456 270.266 113.947 270.639 114.608C271.013 115.259 271.215 116.075 271.247 117.056C271.269 117.525 271.279 117.979 271.279 118.416C271.279 118.843 271.269 119.291 271.247 119.76C271.215 120.752 271.018 121.579 270.655 122.24C270.303 122.891 269.802 123.376 269.151 123.696C268.501 124.005 267.717 124.16 266.799 124.16ZM266.799 122.8C267.621 122.8 268.287 122.555 268.799 122.064C269.322 121.573 269.605 120.779 269.647 119.68C269.669 119.2 269.679 118.773 269.679 118.4C269.679 118.016 269.669 117.589 269.647 117.12C269.626 116.384 269.487 115.787 269.231 115.328C268.986 114.869 268.655 114.533 268.239 114.32C267.823 114.107 267.343 114 266.799 114C266.277 114 265.807 114.107 265.391 114.32C264.975 114.533 264.639 114.869 264.383 115.328C264.138 115.787 263.999 116.384 263.967 117.12C263.957 117.589 263.951 118.016 263.951 118.4C263.951 118.773 263.957 119.2 263.967 119.68C264.01 120.779 264.293 121.573 264.815 122.064C265.338 122.555 265.999 122.8 266.799 122.8ZM273.979 124C273.862 124 273.771 123.968 273.707 123.904C273.643 123.829 273.611 123.739 273.611 123.632V113.168C273.611 113.061 273.643 112.976 273.707 112.912C273.771 112.837 273.862 112.8 273.979 112.8H274.795C274.913 112.8 275.003 112.837 275.067 112.912C275.142 112.976 275.179 113.061 275.179 113.168V122.56H279.099V113.168C279.099 113.061 279.131 112.976 279.195 112.912C279.27 112.837 279.361 112.8 279.467 112.8H280.283C280.401 112.8 280.491 112.837 280.555 112.912C280.63 112.976 280.667 113.061 280.667 113.168V122.56H284.587V113.168C284.587 113.061 284.619 112.976 284.683 112.912C284.758 112.837 284.849 112.8 284.955 112.8H285.771C285.889 112.8 285.979 112.837 286.043 112.912C286.118 112.976 286.155 113.061 286.155 113.168V123.632C286.155 123.739 286.118 123.829 286.043 123.904C285.979 123.968 285.889 124 285.771 124H273.979ZM292.956 124.16C292.049 124.16 291.27 124.005 290.62 123.696C289.969 123.376 289.468 122.891 289.116 122.24C288.764 121.579 288.566 120.752 288.524 119.76C288.513 119.291 288.508 118.843 288.508 118.416C288.508 117.979 288.513 117.525 288.524 117.056C288.566 116.075 288.769 115.259 289.132 114.608C289.505 113.947 290.017 113.456 290.668 113.136C291.329 112.805 292.092 112.64 292.956 112.64C293.83 112.64 294.593 112.805 295.244 113.136C295.905 113.456 296.422 113.947 296.796 114.608C297.169 115.259 297.372 116.075 297.404 117.056C297.425 117.525 297.436 117.979 297.436 118.416C297.436 118.843 297.425 119.291 297.404 119.76C297.372 120.752 297.174 121.579 296.812 122.24C296.46 122.891 295.958 123.376 295.308 123.696C294.657 124.005 293.873 124.16 292.956 124.16ZM292.956 122.8C293.777 122.8 294.444 122.555 294.956 122.064C295.478 121.573 295.761 120.779 295.804 119.68C295.825 119.2 295.836 118.773 295.836 118.4C295.836 118.016 295.825 117.589 295.804 117.12C295.782 116.384 295.644 115.787 295.388 115.328C295.142 114.869 294.812 114.533 294.396 114.32C293.98 114.107 293.5 114 292.956 114C292.433 114 291.964 114.107 291.548 114.32C291.132 114.533 290.796 114.869 290.54 115.328C290.294 115.787 290.156 116.384 290.124 117.12C290.113 117.589 290.108 118.016 290.108 118.4C290.108 118.773 290.113 119.2 290.124 119.68C290.166 120.779 290.449 121.573 290.972 122.064C291.494 122.555 292.156 122.8 292.956 122.8ZM299.448 125.2C299.362 125.2 299.293 125.168 299.24 125.104C299.197 125.04 299.181 124.96 299.192 124.864L299.56 122.576C299.581 122.448 299.624 122.341 299.688 122.256C299.762 122.16 299.869 122.112 300.008 122.112H301.08C301.154 122.112 301.213 122.139 301.256 122.192C301.309 122.245 301.336 122.309 301.336 122.384C301.336 122.469 301.314 122.555 301.272 122.64L300.44 124.832C300.397 124.939 300.338 125.024 300.264 125.088C300.2 125.163 300.104 125.2 299.976 125.2H299.448ZM235.03 143C234.923 143 234.832 142.968 234.758 142.904C234.694 142.829 234.662 142.739 234.662 142.632V141.96C234.662 141.843 234.694 141.752 234.758 141.688C234.832 141.613 234.923 141.576 235.03 141.576H235.59C235.931 141.576 236.224 141.496 236.47 141.336C236.715 141.165 236.944 140.904 237.158 140.552C237.382 140.2 237.611 139.741 237.846 139.176L240.966 132.072C240.998 131.976 241.051 131.907 241.126 131.864C241.2 131.821 241.28 131.8 241.366 131.8H242.23C242.315 131.8 242.39 131.832 242.454 131.896C242.518 131.96 242.55 132.035 242.55 132.12C242.55 132.163 242.544 132.205 242.534 132.248C242.534 132.28 242.523 132.312 242.502 132.344L239.238 139.736C238.982 140.301 238.742 140.792 238.518 141.208C238.294 141.613 238.054 141.949 237.798 142.216C237.542 142.483 237.243 142.68 236.902 142.808C236.56 142.936 236.15 143 235.67 143H235.03ZM237.75 140.28L233.382 132.312C233.35 132.248 233.334 132.189 233.334 132.136C233.334 132.051 233.366 131.976 233.43 131.912C233.504 131.837 233.584 131.8 233.67 131.8H234.566C234.662 131.8 234.742 131.821 234.806 131.864C234.87 131.907 234.923 131.976 234.966 132.072L238.598 138.68L237.75 140.28ZM243.268 143C243.182 143 243.102 142.968 243.028 142.904C242.964 142.84 242.932 142.765 242.932 142.68C242.932 142.637 242.937 142.6 242.948 142.568C242.969 142.525 242.985 142.493 242.996 142.472L246.66 137.304L243.172 132.328C243.14 132.264 243.124 132.195 243.124 132.12C243.124 132.035 243.156 131.96 243.22 131.896C243.284 131.832 243.358 131.8 243.444 131.8H244.404C244.51 131.8 244.596 131.827 244.66 131.88C244.724 131.923 244.782 131.987 244.836 132.072L247.652 136.072L250.452 132.072C250.494 131.987 250.548 131.923 250.612 131.88C250.686 131.827 250.772 131.8 250.868 131.8H251.78C251.865 131.8 251.94 131.832 252.004 131.896C252.068 131.96 252.1 132.035 252.1 132.12C252.1 132.195 252.078 132.264 252.036 132.328L248.596 137.32L252.244 142.472C252.265 142.493 252.281 142.525 252.292 142.568C252.302 142.6 252.308 142.637 252.308 142.68C252.308 142.765 252.276 142.84 252.212 142.904C252.148 142.968 252.068 143 251.972 143H250.996C250.9 143 250.814 142.973 250.74 142.92C250.676 142.867 250.617 142.808 250.564 142.744L247.588 138.584L244.628 142.744C244.574 142.808 244.516 142.867 244.452 142.92C244.388 142.973 244.302 143 244.196 143H243.268ZM258.081 143.16C257.174 143.16 256.395 143.005 255.745 142.696C255.094 142.376 254.593 141.891 254.241 141.24C253.889 140.579 253.691 139.752 253.649 138.76C253.638 138.291 253.633 137.843 253.633 137.416C253.633 136.979 253.638 136.525 253.649 136.056C253.691 135.075 253.894 134.259 254.257 133.608C254.63 132.947 255.142 132.456 255.793 132.136C256.454 131.805 257.217 131.64 258.081 131.64C258.955 131.64 259.718 131.805 260.369 132.136C261.03 132.456 261.547 132.947 261.921 133.608C262.294 134.259 262.497 135.075 262.529 136.056C262.55 136.525 262.561 136.979 262.561 137.416C262.561 137.843 262.55 138.291 262.529 138.76C262.497 139.752 262.299 140.579 261.937 141.24C261.585 141.891 261.083 142.376 260.433 142.696C259.782 143.005 258.998 143.16 258.081 143.16ZM258.081 141.8C258.902 141.8 259.569 141.555 260.081 141.064C260.603 140.573 260.886 139.779 260.929 138.68C260.95 138.2 260.961 137.773 260.961 137.4C260.961 137.016 260.95 136.589 260.929 136.12C260.907 135.384 260.769 134.787 260.513 134.328C260.267 133.869 259.937 133.533 259.521 133.32C259.105 133.107 258.625 133 258.081 133C257.558 133 257.089 133.107 256.673 133.32C256.257 133.533 255.921 133.869 255.665 134.328C255.419 134.787 255.281 135.384 255.249 136.12C255.238 136.589 255.233 137.016 255.233 137.4C255.233 137.773 255.238 138.2 255.249 138.68C255.291 139.779 255.574 140.573 256.097 141.064C256.619 141.555 257.281 141.8 258.081 141.8ZM264.237 145.224C264.13 145.224 264.039 145.192 263.965 145.128C263.901 145.064 263.869 144.973 263.869 144.856V141.928C263.869 141.821 263.901 141.736 263.965 141.672C264.039 141.597 264.13 141.56 264.237 141.56H264.573C264.829 141.56 265.053 141.443 265.245 141.208C265.437 140.973 265.597 140.616 265.725 140.136C265.863 139.645 265.965 139.027 266.029 138.28C266.093 137.533 266.125 136.648 266.125 135.624V132.168C266.125 132.061 266.157 131.976 266.221 131.912C266.295 131.837 266.386 131.8 266.493 131.8H272.733C272.85 131.8 272.941 131.837 273.005 131.912C273.079 131.976 273.117 132.067 273.117 132.184V141.56H273.901C274.018 141.56 274.109 141.597 274.173 141.672C274.247 141.736 274.285 141.821 274.285 141.928V144.856C274.285 144.963 274.247 145.048 274.173 145.112C274.109 145.187 274.018 145.224 273.901 145.224H273.085C272.967 145.224 272.877 145.187 272.813 145.112C272.749 145.048 272.717 144.963 272.717 144.856V143H265.437V144.856C265.437 144.963 265.399 145.048 265.325 145.112C265.261 145.187 265.17 145.224 265.053 145.224H264.237ZM266.621 141.56H271.549V133.24H267.661V135.816C267.661 137.331 267.57 138.552 267.389 139.48C267.218 140.408 266.962 141.101 266.621 141.56ZM276.589 143C276.471 143 276.381 142.963 276.317 142.888C276.253 142.813 276.221 142.723 276.221 142.616V132.184C276.221 132.067 276.253 131.976 276.317 131.912C276.391 131.837 276.482 131.8 276.589 131.8H277.421C277.527 131.8 277.613 131.837 277.677 131.912C277.751 131.976 277.789 132.067 277.789 132.184V140.456L283.757 132.024C283.789 131.981 283.831 131.933 283.885 131.88C283.949 131.827 284.039 131.8 284.157 131.8H284.941C285.047 131.8 285.133 131.837 285.197 131.912C285.271 131.976 285.309 132.067 285.309 132.184V142.632C285.309 142.739 285.271 142.829 285.197 142.904C285.133 142.968 285.047 143 284.941 143H284.125C284.018 143 283.927 142.968 283.853 142.904C283.778 142.829 283.741 142.739 283.741 142.632V134.424L277.789 142.776C277.767 142.808 277.725 142.856 277.661 142.92C277.597 142.973 277.506 143 277.389 143H276.589ZM288.464 143C288.357 143 288.266 142.968 288.192 142.904C288.128 142.829 288.096 142.739 288.096 142.632V132.184C288.096 132.067 288.128 131.976 288.192 131.912C288.266 131.837 288.357 131.8 288.464 131.8H289.264C289.392 131.8 289.488 131.832 289.552 131.896C289.616 131.96 289.653 132.013 289.664 132.056L293.056 138.52L296.464 132.056C296.485 132.013 296.522 131.96 296.576 131.896C296.64 131.832 296.736 131.8 296.864 131.8H297.648C297.765 131.8 297.856 131.837 297.92 131.912C297.994 131.976 298.032 132.067 298.032 132.184V142.632C298.032 142.739 297.994 142.829 297.92 142.904C297.856 142.968 297.765 143 297.648 143H296.864C296.757 143 296.666 142.968 296.592 142.904C296.528 142.829 296.496 142.739 296.496 142.632V134.76L293.824 139.976C293.781 140.083 293.717 140.168 293.632 140.232C293.546 140.285 293.44 140.312 293.312 140.312H292.816C292.677 140.312 292.565 140.285 292.48 140.232C292.405 140.168 292.341 140.083 292.288 139.976L289.616 134.76V142.632C289.616 142.739 289.578 142.829 289.504 142.904C289.44 142.968 289.354 143 289.248 143H288.464Z" fill="#323232"/>
<path d="M291.5 370.5L260.134 336.649C228.68 317.087 176.199 319.416 133.61 321.045C66.7522 323.602 50.0933 330.507 0 340.195L21.0409 378.894C21.8362 401.846 95.4556 403.897 291.5 370.5Z" fill="url(#paint45_linear_469_12)"/>
<path d="M352.155 26.8134C353.714 33.5085 354.555 42.4239 354.17 49.7893C354.005 52.9313 353.619 55.7718 352.978 58.0292C352.331 60.307 351.452 61.8993 350.369 62.6637C350.103 62.8512 349.825 62.9894 349.532 63.0773C348.381 63.4234 347.01 63.0986 345.484 62.1359C343.965 61.178 342.355 59.6267 340.759 57.6518C336.327 52.1672 332.122 43.5661 330.35 35.9587C329.158 30.8412 329.064 26.1545 329.756 22.2445C330.836 16.1457 333.798 12.0439 337.397 10.9626C337.724 10.8642 338.049 10.785 338.372 10.7251C342.788 9.90604 347.042 12.6652 350.075 20.1008C350.86 22.0267 351.56 24.2597 352.155 26.8134Z" fill="#D9D9D9" fill-opacity="0.4" stroke="white" stroke-width="0.888352"/>
<path d="M394.044 50.3397C388.14 53.8606 381.134 59.4383 376.096 64.825C373.947 67.1229 372.17 69.3719 370.988 71.3992C369.796 73.4449 369.259 75.1829 369.459 76.4931C369.508 76.8145 369.602 77.1108 369.741 77.3825C370.291 78.4522 371.475 79.214 373.228 79.6457C374.971 80.0752 377.205 80.1588 379.735 79.9387C386.76 79.3271 395.873 76.3903 402.581 72.3896C407.094 69.6983 410.535 66.5154 412.872 63.3046C416.516 58.2965 417.416 53.3181 415.699 49.9756C415.543 49.6717 415.374 49.3823 415.193 49.108C412.72 45.3595 407.782 44.2091 400.322 47.1819C398.39 47.9518 396.296 48.9968 394.044 50.3397Z" fill="#D9D9D9" fill-opacity="0.4" stroke="white" stroke-width="0.888352"/>
<path d="M372.585 79.3916C365.467 92.3525 344.716 98.373 338.248 92.196C332.275 87.3715 335.604 74.5123 338.895 66.7757C344.036 54.6873 355.362 46.9424 364.871 50.9863C374.379 55.0303 376.333 70.5789 372.585 79.3916Z" fill="#575757"/>
<path d="M363.7 80.7199C359.401 91.0135 344.065 97.3236 338.575 93.282C333.582 90.2059 334.993 80.3203 336.827 74.2598C339.692 64.7904 347.669 58.0196 355.296 60.2035C362.923 62.3874 365.789 73.8165 363.7 80.7199Z" fill="#2A2A2A"/>
<ellipse cx="373.351" cy="44.8859" rx="15.2623" ry="16.2891" transform="rotate(23.0407 373.351 44.8859)" fill="#7B7B79"/>
<ellipse cx="364.533" cy="35.4258" rx="8.36966" ry="8.93272" transform="rotate(23.0407 364.533 35.4258)" fill="#E6E6E6"/>
<ellipse cx="382.656" cy="43.1335" rx="8.36966" ry="8.93272" transform="rotate(23.0407 382.656 43.1335)" fill="#E6E6E6"/>
<ellipse cx="365.3" cy="39.5713" rx="3.93866" ry="4.20363" transform="rotate(23.0407 365.3 39.5713)" fill="#262626"/>
<ellipse cx="382.381" cy="47.6623" rx="3.93866" ry="4.20363" transform="rotate(23.0407 382.381 47.6623)" fill="#262626"/>
<ellipse cx="367.276" cy="38.6986" rx="1.477" ry="1.57636" transform="rotate(23.0407 367.276 38.6986)" fill="white"/>
<ellipse cx="384.356" cy="46.7896" rx="1.477" ry="1.57636" transform="rotate(23.0407 384.356 46.7896)" fill="white"/>
<path d="M356.501 51.1041C355.164 51.6266 355.064 45.6316 356.309 45.7642C356.643 45.7997 357.671 46.9671 358.971 47.0451C362.522 47.2582 368.274 46.4024 368.765 45.9274L370.54 46.7814L358.958 49.371L356.501 51.1041Z" fill="#2B2B2B" stroke="#2B2B2B" stroke-width="1.7767"/>
<path d="M334.35 61.9292L347.884 61.1141L334.468 62.6485L330.719 68.341L330.197 67.3403L334.35 61.9292Z" fill="#2B2B2B" stroke="#2B2B2B" stroke-width="1.7767" stroke-linejoin="round"/>
<path d="M333.03 72.0117L341.096 66.0026L333.371 72.3822L333.18 77.2271L332.483 76.8586L333.03 72.0117Z" fill="#2B2B2B" stroke="#2B2B2B" stroke-width="1.7767" stroke-linejoin="round"/>
<path d="M330.707 84.7243L338.772 78.7152L331.048 85.0949L330.857 89.9397L330.16 89.5712L330.707 84.7243Z" fill="#2B2B2B" stroke="#2B2B2B" stroke-width="1.7767" stroke-linejoin="round"/>
<path d="M374.509 86.4183L370.176 72.2105L373.765 86.5704L369.65 92.5757L370.821 92.7334L374.509 86.4183Z" fill="#2B2B2B" stroke="#2B2B2B" stroke-width="1.7767" stroke-linejoin="round"/>
<path d="M366.88 91.577L365.616 81.6161L366.377 91.5882L363.025 95.0803L363.773 95.3265L366.88 91.577Z" fill="#2B2B2B" stroke="#2B2B2B" stroke-width="1.7767" stroke-linejoin="round"/>
<path d="M358.104 97.5025L356.84 87.5416L357.601 97.5137L354.25 101.006L354.998 101.252L358.104 97.5025Z" fill="#2B2B2B" stroke="#2B2B2B" stroke-width="1.7767" stroke-linejoin="round"/>
<path opacity="0.5" d="M352.93 53.9021C355.819 57.8438 363.2 65.7829 371.061 66.6219" stroke="#2B2B2B" stroke-width="0.888352" stroke-linejoin="round"/>
<path opacity="0.5" d="M342.062 61.8422C347.236 66.7555 360 76.984 371.973 79.572" stroke="#2B2B2B" stroke-width="0.888352" stroke-linejoin="round"/>
<path opacity="0.5" d="M347.66 56.2291C351.861 60.7287 362.818 70.1888 373.04 72.032" stroke="#2B2B2B" stroke-width="0.888352" stroke-linejoin="round"/>
<path opacity="0.5" d="M339.679 69.9644C343.879 74.464 354.836 83.924 365.058 85.7672" stroke="#2B2B2B" stroke-width="0.888352" stroke-linejoin="round"/>
<path d="M376.318 29.668L377.854 26.0565M379.218 30.9015L381.721 27.7013M382.602 32.3407L384.446 30.6882" stroke="#2A2A2A" stroke-width="2.49457" stroke-linecap="round" stroke-linejoin="round"/>
<defs>
<filter id="filter0_f_469_12" x="203.605" y="327.152" width="139.684" height="46.5397" filterUnits="userSpaceOnUse" color-interpolation-filters="sRGB">
<feFlood flood-opacity="0" result="BackgroundImageFix"/>
<feBlend mode="normal" in="SourceGraphic" in2="BackgroundImageFix" result="shape"/>
<feGaussianBlur stdDeviation="7.5" result="effect1_foregroundBlur_469_12"/>
</filter>
<linearGradient id="paint0_linear_469_12" x1="143.524" y1="339.156" x2="135.152" y2="332.56" gradientUnits="userSpaceOnUse">
<stop stop-color="#21BF00"/>
<stop offset="1" stop-color="#D5FCCE"/>
</linearGradient>
<linearGradient id="paint1_linear_469_12" x1="176.215" y1="319.185" x2="166.107" y2="315.805" gradientUnits="userSpaceOnUse">
<stop stop-color="#21BF00"/>
<stop offset="1" stop-color="#D5FCCE"/>
</linearGradient>
<linearGradient id="paint2_linear_469_12" x1="114.792" y1="343.02" x2="106.42" y2="336.424" gradientUnits="userSpaceOnUse">
<stop stop-color="#21BF00"/>
<stop offset="1" stop-color="#D5FCCE"/>
</linearGradient>
<linearGradient id="paint3_linear_469_12" x1="86.0713" y1="344.786" x2="77.699" y2="338.19" gradientUnits="userSpaceOnUse">
<stop stop-color="#21BF00"/>
<stop offset="1" stop-color="#D5FCCE"/>
</linearGradient>
<linearGradient id="paint4_linear_469_12" x1="90.3761" y1="338.645" x2="70.4113" y2="287.037" gradientUnits="userSpaceOnUse">
<stop stop-color="#39A01F"/>
<stop offset="0.375" stop-color="#83C473" stop-opacity="0.625"/>
<stop offset="1" stop-color="white" stop-opacity="0"/>
</linearGradient>
<linearGradient id="paint5_linear_469_12" x1="101.693" y1="336.904" x2="81.7282" y2="285.296" gradientUnits="userSpaceOnUse">
<stop stop-color="#39A01F"/>
<stop offset="0.375" stop-color="#83C473" stop-opacity="0.625"/>
<stop offset="1" stop-color="white" stop-opacity="0"/>
</linearGradient>
<linearGradient id="paint6_linear_469_12" x1="122.586" y1="336.904" x2="102.621" y2="285.296" gradientUnits="userSpaceOnUse">
<stop stop-color="#39A01F"/>
<stop offset="0.375" stop-color="#83C473" stop-opacity="0.625"/>
<stop offset="1" stop-color="white" stop-opacity="0"/>
</linearGradient>
<linearGradient id="paint7_linear_469_12" x1="147.83" y1="333.422" x2="127.865" y2="281.813" gradientUnits="userSpaceOnUse">
<stop stop-color="#39A01F"/>
<stop offset="1" stop-color="white" stop-opacity="0"/>
</linearGradient>
<linearGradient id="paint8_linear_469_12" x1="168.722" y1="319.494" x2="148.758" y2="267.885" gradientUnits="userSpaceOnUse">
<stop stop-color="#39A01F"/>
<stop offset="1" stop-color="white" stop-opacity="0"/>
</linearGradient>
<linearGradient id="paint9_linear_469_12" x1="180.909" y1="300.343" x2="160.945" y2="248.734" gradientUnits="userSpaceOnUse">
<stop stop-color="#39A01F"/>
<stop offset="1" stop-color="white" stop-opacity="0"/>
</linearGradient>
<linearGradient id="paint10_linear_469_12" x1="184.391" y1="277.71" x2="164.426" y2="226.101" gradientUnits="userSpaceOnUse">
<stop stop-color="#39A01F"/>
<stop offset="1" stop-color="white" stop-opacity="0"/>
</linearGradient>
<linearGradient id="paint11_linear_469_12" x1="183.451" y1="251.725" x2="163.486" y2="200.116" gradientUnits="userSpaceOnUse">
<stop stop-color="#39A01F"/>
<stop offset="1" stop-color="white" stop-opacity="0"/>
</linearGradient>
<linearGradient id="paint12_linear_469_12" x1="188.334" y1="226.904" x2="166.604" y2="170.59" gradientUnits="userSpaceOnUse">
<stop stop-color="#39A01F"/>
<stop offset="1" stop-color="white" stop-opacity="0"/>
</linearGradient>
<linearGradient id="paint13_linear_469_12" x1="158.707" y1="134.534" x2="139.928" y2="167.798" gradientUnits="userSpaceOnUse">
<stop stop-color="#D3FACB"/>
<stop offset="1" stop-color="#105102"/>
</linearGradient>
<linearGradient id="paint14_linear_469_12" x1="195.108" y1="141.029" x2="176.329" y2="174.293" gradientUnits="userSpaceOnUse">
<stop stop-color="#D3FACB"/>
<stop offset="1" stop-color="#105102"/>
</linearGradient>
<linearGradient id="paint15_linear_469_12" x1="196.513" y1="282.391" x2="187.751" y2="288.46" gradientUnits="userSpaceOnUse">
<stop stop-color="#21BF00"/>
<stop offset="1" stop-color="#D5FCCE"/>
</linearGradient>
<linearGradient id="paint16_linear_469_12" x1="199.867" y1="247.043" x2="192.748" y2="254.976" gradientUnits="userSpaceOnUse">
<stop stop-color="#21BF00"/>
<stop offset="1" stop-color="#D5FCCE"/>
</linearGradient>
<linearGradient id="paint17_linear_469_12" x1="138.315" y1="257.599" x2="144.39" y2="266.356" gradientUnits="userSpaceOnUse">
<stop stop-color="#21BF00"/>
<stop offset="1" stop-color="#D5FCCE"/>
</linearGradient>
<linearGradient id="paint18_linear_469_12" x1="134.652" y1="275.915" x2="140.728" y2="284.673" gradientUnits="userSpaceOnUse">
<stop stop-color="#21BF00"/>
<stop offset="1" stop-color="#D5FCCE"/>
</linearGradient>
<linearGradient id="paint19_linear_469_12" x1="124.781" y1="299.479" x2="131.303" y2="307.909" gradientUnits="userSpaceOnUse">
<stop stop-color="#21BF00"/>
<stop offset="1" stop-color="#D5FCCE"/>
</linearGradient>
<linearGradient id="paint20_linear_469_12" x1="74.9484" y1="311.306" x2="84.3909" y2="316.249" gradientUnits="userSpaceOnUse">
<stop stop-color="#21BF00"/>
<stop offset="1" stop-color="#D5FCCE"/>
</linearGradient>
<linearGradient id="paint21_linear_469_12" x1="96.0236" y1="307.868" x2="105.466" y2="312.812" gradientUnits="userSpaceOnUse">
<stop stop-color="#21BF00"/>
<stop offset="1" stop-color="#D5FCCE"/>
</linearGradient>
<radialGradient id="paint22_radial_469_12" cx="0" cy="0" r="1" gradientUnits="userSpaceOnUse" gradientTransform="translate(162.983 200.67) rotate(42.4501) scale(35.0292 72.9774)">
<stop stop-color="#154106"/>
<stop offset="1" stop-color="#89A67F" stop-opacity="0"/>
</radialGradient>
<linearGradient id="paint23_linear_469_12" x1="319.136" y1="351.947" x2="310.764" y2="345.352" gradientUnits="userSpaceOnUse">
<stop stop-color="#21BF00"/>
<stop offset="1" stop-color="#D5FCCE"/>
</linearGradient>
<linearGradient id="paint24_linear_469_12" x1="349.215" y1="335.359" x2="339.107" y2="331.98" gradientUnits="userSpaceOnUse">
<stop stop-color="#21BF00"/>
<stop offset="1" stop-color="#D5FCCE"/>
</linearGradient>
<linearGradient id="paint25_linear_469_12" x1="290.403" y1="355.811" x2="282.031" y2="349.216" gradientUnits="userSpaceOnUse">
<stop stop-color="#21BF00"/>
<stop offset="1" stop-color="#D5FCCE"/>
</linearGradient>
<linearGradient id="paint26_linear_469_12" x1="261.683" y1="357.577" x2="253.31" y2="350.981" gradientUnits="userSpaceOnUse">
<stop stop-color="#21BF00"/>
<stop offset="1" stop-color="#D5FCCE"/>
</linearGradient>
<linearGradient id="paint27_linear_469_12" x1="263.376" y1="354.82" x2="243.411" y2="303.211" gradientUnits="userSpaceOnUse">
<stop stop-color="#39A01F"/>
<stop offset="1" stop-color="white" stop-opacity="0"/>
</linearGradient>
<linearGradient id="paint28_linear_469_12" x1="274.693" y1="353.079" x2="254.729" y2="301.47" gradientUnits="userSpaceOnUse">
<stop stop-color="#39A01F"/>
<stop offset="1" stop-color="white" stop-opacity="0"/>
</linearGradient>
<linearGradient id="paint29_linear_469_12" x1="295.586" y1="353.079" x2="275.621" y2="301.47" gradientUnits="userSpaceOnUse">
<stop stop-color="#39A01F"/>
<stop offset="1" stop-color="white" stop-opacity="0"/>
</linearGradient>
<linearGradient id="paint30_linear_469_12" x1="320.83" y1="349.597" x2="300.865" y2="297.988" gradientUnits="userSpaceOnUse">
<stop stop-color="#39A01F"/>
<stop offset="1" stop-color="white" stop-opacity="0"/>
</linearGradient>
<linearGradient id="paint31_linear_469_12" x1="341.722" y1="335.669" x2="321.758" y2="284.06" gradientUnits="userSpaceOnUse">
<stop stop-color="#39A01F"/>
<stop offset="1" stop-color="white" stop-opacity="0"/>
</linearGradient>
<linearGradient id="paint32_linear_469_12" x1="353.909" y1="316.518" x2="333.945" y2="264.909" gradientUnits="userSpaceOnUse">
<stop stop-color="#39A01F"/>
<stop offset="1" stop-color="white" stop-opacity="0"/>
</linearGradient>
<linearGradient id="paint33_linear_469_12" x1="357.391" y1="293.884" x2="337.426" y2="242.276" gradientUnits="userSpaceOnUse">
<stop stop-color="#39A01F"/>
<stop offset="1" stop-color="white" stop-opacity="0"/>
</linearGradient>
<linearGradient id="paint34_linear_469_12" x1="356.451" y1="267.899" x2="336.486" y2="216.291" gradientUnits="userSpaceOnUse">
<stop stop-color="#39A01F"/>
<stop offset="1" stop-color="white" stop-opacity="0"/>
</linearGradient>
<linearGradient id="paint35_linear_469_12" x1="361.334" y1="243.078" x2="339.604" y2="186.764" gradientUnits="userSpaceOnUse">
<stop stop-color="#39A01F"/>
<stop offset="1" stop-color="white" stop-opacity="0"/>
</linearGradient>
<linearGradient id="paint36_linear_469_12" x1="331.707" y1="150.709" x2="312.928" y2="183.973" gradientUnits="userSpaceOnUse">
<stop stop-color="#D3FACB"/>
<stop offset="1" stop-color="#105102"/>
</linearGradient>
<linearGradient id="paint37_linear_469_12" x1="368.108" y1="157.203" x2="349.329" y2="190.467" gradientUnits="userSpaceOnUse">
<stop stop-color="#D3FACB"/>
<stop offset="1" stop-color="#105102"/>
</linearGradient>
<linearGradient id="paint38_linear_469_12" x1="369.513" y1="298.566" x2="360.751" y2="304.635" gradientUnits="userSpaceOnUse">
<stop stop-color="#21BF00"/>
<stop offset="1" stop-color="#D5FCCE"/>
</linearGradient>
<linearGradient id="paint39_linear_469_12" x1="372.867" y1="263.218" x2="365.748" y2="271.151" gradientUnits="userSpaceOnUse">
<stop stop-color="#21BF00"/>
<stop offset="1" stop-color="#D5FCCE"/>
</linearGradient>
<linearGradient id="paint40_linear_469_12" x1="311.315" y1="273.773" x2="317.39" y2="282.531" gradientUnits="userSpaceOnUse">
<stop stop-color="#21BF00"/>
<stop offset="1" stop-color="#D5FCCE"/>
</linearGradient>
<linearGradient id="paint41_linear_469_12" x1="307.652" y1="292.09" x2="313.728" y2="300.847" gradientUnits="userSpaceOnUse">
<stop stop-color="#21BF00"/>
<stop offset="1" stop-color="#D5FCCE"/>
</linearGradient>
<linearGradient id="paint42_linear_469_12" x1="297.781" y1="315.654" x2="304.303" y2="324.083" gradientUnits="userSpaceOnUse">
<stop stop-color="#21BF00"/>
<stop offset="1" stop-color="#D5FCCE"/>
</linearGradient>
<linearGradient id="paint43_linear_469_12" x1="247.948" y1="327.48" x2="257.391" y2="332.424" gradientUnits="userSpaceOnUse">
<stop stop-color="#21BF00"/>
<stop offset="1" stop-color="#D5FCCE"/>
</linearGradient>
<linearGradient id="paint44_linear_469_12" x1="269.024" y1="324.043" x2="278.466" y2="328.987" gradientUnits="userSpaceOnUse">
<stop stop-color="#21BF00"/>
<stop offset="1" stop-color="#D5FCCE"/>
</linearGradient>
<linearGradient id="paint45_linear_469_12" x1="152.047" y1="315.27" x2="144.045" y2="389.962" gradientUnits="userSpaceOnUse">
<stop stop-color="#FCDD76"/>
<stop offset="0.142543" stop-color="#FEE8A1"/>
<stop offset="0.671875" stop-color="#FEEBAC"/>
<stop offset="1" stop-color="#FEEBAB"/>
</linearGradient>
</defs>
</svg>
