<svg width="348" height="384" viewBox="0 0 348 384" fill="none" xmlns="http://www.w3.org/2000/svg">
<g filter="url(#filter0_d_455_52)">
<path d="M149.897 349.959L200.221 147.263L176.098 140.807L127.894 340.271C136.568 342.454 146.177 347.639 149.897 349.959Z" fill="#D9D9D9"/>
<path d="M149.897 349.959L200.221 147.263L176.098 140.807L127.894 340.271C136.568 342.454 146.177 347.639 149.897 349.959Z" fill="url(#paint0_linear_455_52)" fill-opacity="0.2"/>
</g>
<g filter="url(#filter1_d_455_52)">
<circle cx="193.803" cy="134.582" r="111.459" transform="rotate(13.6273 193.803 134.582)" fill="white"/>
<circle cx="193.803" cy="134.582" r="103.459" transform="rotate(13.6273 193.803 134.582)" stroke="#CB0000" stroke-width="16"/>
</g>
<path d="M347.5 358.57L311.992 324.672C276.383 305.083 216.97 307.416 168.756 309.046C93.0686 311.607 56.7094 330.298 0 340L41.3199 366.975C42.2202 389.959 125.563 392.013 347.5 358.57Z" fill="url(#paint1_linear_455_52)"/>
<path d="M134.221 82.1743C134.078 82.1397 133.977 82.0741 133.918 81.9775C133.863 81.868 133.851 81.7484 133.882 81.6188L136.959 68.9265C136.994 68.7839 137.059 68.6832 137.156 68.6243C137.255 68.5525 137.377 68.5338 137.519 68.5684L142.845 69.8595C143.817 70.0951 144.568 70.4487 145.098 70.9203C145.645 71.3821 145.995 71.9196 146.148 72.533C146.314 73.1495 146.315 73.7946 146.152 74.4684C146.023 74.9997 145.821 75.4377 145.545 75.7825C145.286 76.1174 144.997 76.3766 144.678 76.56C144.362 76.7304 144.065 76.8505 143.788 76.9204C144.233 77.2892 144.583 77.7992 144.837 78.4507C145.103 79.1052 145.141 79.8277 144.949 80.6182C144.777 81.3309 144.456 81.946 143.987 82.4635C143.519 82.981 142.917 83.3427 142.181 83.5484C141.461 83.7444 140.628 83.7277 139.682 83.4984L134.221 82.1743ZM136.06 80.9533L139.811 81.8627C140.654 82.0669 141.357 81.9972 141.92 81.6536C142.484 81.31 142.845 80.8078 143.006 80.147C143.172 79.4602 143.082 78.8416 142.735 78.291C142.392 77.7276 141.799 77.3437 140.956 77.1395L137.205 76.2301L136.06 80.9533ZM137.582 74.6751L141.159 75.5422C141.988 75.7432 142.662 75.7077 143.181 75.4356C143.702 75.1505 144.043 74.6775 144.204 74.0167C144.364 73.3558 144.273 72.7986 143.93 72.3451C143.587 71.8916 143.001 71.5643 142.172 71.3632L138.595 70.4962L137.582 74.6751ZM146.951 85.2605C146.822 85.2291 146.721 85.1636 146.649 85.0638C146.593 84.9543 146.581 84.8347 146.613 84.7051L148.846 75.492C148.878 75.3624 148.942 75.2682 149.038 75.2093C149.151 75.1406 149.272 75.1219 149.402 75.1533L150.335 75.3795C150.464 75.4109 150.557 75.4814 150.613 75.591C150.684 75.6907 150.705 75.8053 150.673 75.9349L149.981 78.7922L152.002 79.2822C153.324 79.6026 154.214 80.1477 154.672 80.9173C155.13 81.6869 155.23 82.603 154.973 83.6656C154.696 84.8059 154.155 85.5665 153.35 85.9474C152.544 86.3282 151.467 86.3553 150.119 86.0286L146.951 85.2605ZM148.665 84.1326L150.531 84.585C151.322 84.7766 151.931 84.7803 152.36 84.5962C152.792 84.3991 153.093 83.9506 153.262 83.2509C153.426 82.5771 153.372 82.0358 153.1 81.627C152.832 81.2053 152.29 80.8955 151.474 80.6976L149.608 80.2452L148.665 84.1326ZM155.989 87.4517C155.86 87.4203 155.759 87.3547 155.687 87.255C155.632 87.1454 155.619 87.0258 155.651 86.8962L157.884 77.6831C157.916 77.5535 157.98 77.4593 158.076 77.4004C158.189 77.3317 158.31 77.313 158.44 77.3445L159.373 77.5706C159.502 77.602 159.595 77.6725 159.651 77.7821C159.723 77.8818 159.743 77.9965 159.711 78.1261L157.478 87.3392C157.446 87.4688 157.374 87.5679 157.262 87.6366C157.165 87.6955 157.052 87.7093 156.922 87.6779L155.989 87.4517ZM164.3 89.6723C163.38 89.4493 162.626 89.0811 162.037 88.5679C161.464 88.0449 161.076 87.4089 160.874 86.6601C160.674 85.8984 160.675 85.0478 160.875 84.1086C160.909 83.9111 160.965 83.6503 161.044 83.3264C161.122 83.0024 161.192 82.7448 161.252 82.5536C161.504 81.6269 161.891 80.8771 162.414 80.3042C162.941 79.7184 163.577 79.3306 164.322 79.141C165.084 78.9415 165.925 78.9533 166.845 79.1763C167.596 79.3585 168.213 79.6177 168.694 79.9538C169.188 80.2931 169.57 80.6671 169.842 81.0759C170.113 81.4846 170.287 81.8973 170.365 82.314C170.455 82.7337 170.466 83.1136 170.397 83.4537C170.379 83.5864 170.315 83.6806 170.205 83.7364C170.096 83.7921 169.976 83.8043 169.846 83.7729L168.913 83.5467C168.784 83.5153 168.693 83.4658 168.641 83.3983C168.592 83.3178 168.552 83.1984 168.522 83.0402C168.442 82.3487 168.233 81.8247 167.894 81.4681C167.556 81.1116 167.088 80.8611 166.492 80.7166C165.715 80.5281 165.022 80.6139 164.413 80.9739C163.817 81.3372 163.371 82.0453 163.075 83.0985C162.949 83.5618 162.839 84.0153 162.745 84.459C162.523 85.544 162.594 86.3843 162.957 86.98C163.336 87.5658 163.915 87.953 164.692 88.1415C165.288 88.286 165.818 88.2774 166.283 88.1156C166.747 87.9538 167.173 87.5837 167.561 87.0053C167.66 86.8785 167.748 86.797 167.826 86.7609C167.906 86.7118 168.011 86.703 168.141 86.7344L169.074 86.9606C169.203 86.992 169.304 87.0576 169.376 87.1573C169.448 87.257 169.461 87.3701 169.417 87.4966C169.338 87.7655 169.212 88.03 169.039 88.2899C168.867 88.5499 168.628 88.8006 168.322 89.0421C168.033 89.2738 167.691 89.4654 167.298 89.6169C166.907 89.7556 166.455 89.838 165.941 89.8643C165.443 89.8808 164.896 89.8168 164.3 89.6723ZM175.083 92.2864C174.098 92.0476 173.321 91.6603 172.751 91.1243C172.182 90.5883 171.802 89.9474 171.612 89.2018C171.426 88.4431 171.417 87.6315 171.585 86.7668C171.626 86.5434 171.687 86.2632 171.768 85.9263C171.853 85.5765 171.927 85.2994 171.99 85.0953C172.24 84.2365 172.619 83.5191 173.13 82.9431C173.653 82.3702 174.29 81.9759 175.042 81.7604C175.794 81.5448 176.656 81.5548 177.628 81.7904C178.6 82.026 179.37 82.4118 179.94 82.9478C180.51 83.4838 180.89 84.1246 181.079 84.8703C181.282 85.6191 181.297 86.4323 181.126 87.3099C181.088 87.5204 181.027 87.8006 180.943 88.1504C180.861 88.4874 180.787 88.7644 180.721 88.9815C180.474 89.8273 180.095 90.5447 179.581 91.1337C179.071 91.7098 178.44 92.1056 177.688 92.3211C176.936 92.5367 176.068 92.5251 175.083 92.2864ZM175.446 90.7897C176.249 90.9845 176.952 90.8873 177.554 90.4982C178.159 90.0961 178.601 89.4074 178.878 88.432C178.938 88.2408 179.004 87.9961 179.077 87.6981C179.149 87.4001 179.202 87.1523 179.236 86.9548C179.436 85.9605 179.358 85.1526 179.001 84.531C178.647 83.8965 178.068 83.4818 177.265 83.2871C176.461 83.0923 175.751 83.1944 175.133 83.5933C174.531 83.9825 174.097 84.6663 173.833 85.6448C173.773 85.836 173.707 86.0807 173.634 86.3787C173.562 86.6767 173.509 86.9245 173.475 87.122C173.262 88.1131 173.332 88.9259 173.686 89.5605C174.056 90.1852 174.643 90.595 175.446 90.7897ZM182.598 93.9025C182.469 93.8711 182.368 93.8055 182.296 93.7058C182.24 93.5962 182.228 93.4766 182.26 93.3471L184.493 84.1339C184.525 84.0044 184.589 83.9101 184.685 83.8512C184.798 83.7825 184.919 83.7638 185.049 83.7953L185.962 84.0167C186.092 84.0481 186.184 84.1186 186.24 84.2282C186.312 84.3279 186.332 84.4426 186.301 84.5722L185.396 88.3041L187.165 88.7329L190.731 85.4816C190.818 85.4066 190.907 85.3526 190.997 85.3196C191.087 85.2866 191.197 85.2859 191.327 85.3173L192.338 85.5623C192.454 85.5906 192.545 85.6401 192.61 85.7107C192.675 85.7814 192.695 85.8686 192.67 85.9722C192.664 85.9982 192.642 86.0339 192.603 86.0794C192.581 86.1152 192.552 86.1493 192.517 86.1819L188.56 89.7707L190.724 95.2755C190.77 95.3689 190.782 95.461 190.76 95.5517C190.734 95.6554 190.677 95.7237 190.586 95.7567C190.509 95.7928 190.412 95.7968 190.295 95.7685L189.11 95.481C188.993 95.4528 188.902 95.4033 188.837 95.3326C188.772 95.2619 188.718 95.1734 188.675 95.067L186.803 90.312L185.014 89.8785L184.067 93.7853C184.036 93.9149 183.964 94.014 183.851 94.0827C183.755 94.1416 183.641 94.1554 183.512 94.124L182.598 93.9025ZM193 96.4241C192.883 96.3958 192.789 96.3318 192.717 96.2321C192.661 96.1225 192.646 96.0159 192.671 95.9123L194.914 86.6603C194.945 86.5307 195.009 86.4364 195.106 86.3775C195.219 86.3088 195.34 86.2902 195.469 86.3216L196.402 86.5478C196.532 86.5792 196.625 86.6497 196.68 86.7592C196.739 86.8558 196.753 86.9689 196.722 87.0985L194.724 95.3398L194.346 94.6924L202.143 88.2482C202.227 88.1862 202.314 88.1387 202.404 88.1057C202.498 88.0598 202.603 88.0509 202.719 88.0792L203.614 88.296C203.717 88.3211 203.798 88.3819 203.857 88.4785C203.929 88.5783 203.953 88.68 203.927 88.7836L201.68 98.0551C201.648 98.1847 201.576 98.2838 201.464 98.3525C201.367 98.4114 201.254 98.4252 201.124 98.3938L200.211 98.1723C200.068 98.1377 199.968 98.0722 199.909 97.9756C199.853 97.866 199.841 97.7464 199.872 97.6169L201.752 89.8615L202.301 89.974L194.45 96.4671C194.383 96.5193 194.302 96.5684 194.209 96.6143C194.115 96.6603 194.004 96.6676 193.874 96.6361L193 96.4241ZM208.393 100.362C207.058 100.038 206.095 99.3723 205.502 98.3643C204.913 97.3434 204.752 96.1108 205.02 94.6666C205.048 94.495 205.093 94.2796 205.156 94.0205C205.222 93.7483 205.282 93.5296 205.335 93.3643C205.61 92.4569 206.019 91.7053 206.561 91.1096C207.107 90.501 207.749 90.0873 208.488 89.8686C209.24 89.653 210.056 89.6521 210.937 89.8657C211.922 90.1044 212.695 90.5112 213.255 91.0861C213.828 91.6641 214.197 92.3778 214.362 93.2271C214.526 94.0765 214.485 95.013 214.236 96.0367L214.156 96.3671C214.122 96.5096 214.05 96.6088 213.94 96.6645C213.843 96.7234 213.73 96.7372 213.601 96.7058L206.876 95.0754C206.872 95.0883 206.866 95.1142 206.857 95.1531C206.847 95.192 206.839 95.2244 206.833 95.2503C206.73 95.7879 206.726 96.315 206.82 96.8318C206.918 97.3356 207.126 97.7771 207.446 98.1564C207.765 98.5357 208.197 98.7914 208.742 98.9233C209.208 99.0364 209.614 99.0594 209.96 98.9922C210.305 98.9251 210.596 98.8308 210.831 98.7095C211.069 98.5752 211.232 98.4706 211.318 98.3956C211.476 98.2554 211.59 98.1802 211.661 98.17C211.735 98.1468 211.844 98.1525 211.986 98.1871L212.919 98.4133C213.049 98.4447 213.143 98.5087 213.202 98.6053C213.277 98.6921 213.292 98.7987 213.248 98.9251C213.188 99.1163 213.026 99.3309 212.763 99.5689C212.502 99.7939 212.158 99.9985 211.729 100.183C211.3 100.367 210.805 100.487 210.242 100.542C209.683 100.585 209.067 100.525 208.393 100.362ZM207.201 93.7342L212.526 95.0253L212.541 94.967C212.682 94.3839 212.697 93.8389 212.587 93.332C212.49 92.8282 212.272 92.398 211.933 92.0415C211.597 91.672 211.151 91.4197 210.593 91.2846C210.036 91.1495 209.524 91.1693 209.056 91.3441C208.605 91.509 208.22 91.7931 207.903 92.1963C207.586 92.5996 207.356 93.0928 207.215 93.6759L207.201 93.7342ZM219.571 102.866C219.442 102.834 219.343 102.762 219.274 102.65C219.205 102.537 219.186 102.416 219.218 102.286L219.392 101.567C219.458 101.295 219.629 101.185 219.904 101.238C220.309 101.323 220.691 101.217 221.051 100.92C221.415 100.61 221.765 100.071 222.102 99.3018C222.443 98.52 222.775 97.4618 223.098 96.1271L223.701 93.6392C223.733 93.5096 223.797 93.4154 223.893 93.3565C224.006 93.2877 224.127 93.2691 224.257 93.3005L230.438 94.799C230.567 94.8304 230.66 94.9009 230.716 95.0104C230.788 95.1102 230.808 95.2248 230.776 95.3544L228.543 104.568C228.512 104.697 228.439 104.796 228.327 104.865C228.23 104.924 228.117 104.938 227.987 104.906L227.055 104.68C226.925 104.649 226.831 104.585 226.772 104.488C226.716 104.378 226.704 104.259 226.735 104.129L228.7 96.0241L225.202 95.1759L224.815 96.7697C224.514 98.0137 224.183 99.0654 223.824 99.925C223.468 100.772 223.073 101.437 222.64 101.922C222.223 102.397 221.756 102.71 221.24 102.859C220.737 103.011 220.18 103.013 219.571 102.866ZM235.425 106.915C234.44 106.676 233.663 106.289 233.093 105.753C232.524 105.217 232.144 104.576 231.954 103.83C231.768 103.072 231.759 102.26 231.927 101.396C231.968 101.172 232.029 100.892 232.11 100.555C232.195 100.205 232.269 99.9282 232.332 99.724C232.582 98.8652 232.961 98.1478 233.471 97.5718C233.994 96.9989 234.632 96.6046 235.384 96.3891C236.136 96.1735 236.998 96.1835 237.97 96.4191C238.942 96.6547 239.712 97.0405 240.282 97.5765C240.852 98.1125 241.232 98.7534 241.421 99.499C241.624 100.248 241.639 101.061 241.468 101.939C241.43 102.149 241.369 102.429 241.285 102.779C241.203 103.116 241.129 103.393 241.062 103.61C240.816 104.456 240.437 105.173 239.923 105.762C239.413 106.338 238.782 106.734 238.03 106.95C237.278 107.165 236.41 107.154 235.425 106.915ZM235.788 105.418C236.591 105.613 237.294 105.516 237.896 105.127C238.501 104.725 238.942 104.036 239.22 103.061C239.28 102.869 239.346 102.625 239.419 102.327C239.491 102.029 239.544 101.781 239.578 101.583C239.778 100.589 239.7 99.7813 239.343 99.1598C238.989 98.5252 238.41 98.1105 237.607 97.9158C236.803 97.721 236.093 97.8231 235.475 98.222C234.873 98.6112 234.439 99.295 234.175 100.274C234.115 100.465 234.048 100.709 233.976 101.007C233.904 101.305 233.851 101.553 233.817 101.751C233.604 102.742 233.674 103.555 234.028 104.189C234.398 104.814 234.985 105.224 235.788 105.418ZM245.584 109.172C245.454 109.141 245.353 109.075 245.282 108.975C245.226 108.866 245.214 108.746 245.245 108.617L247.21 100.511L243.828 99.6915C243.698 99.6601 243.598 99.5945 243.526 99.4948C243.47 99.3852 243.458 99.2656 243.489 99.1361L243.65 98.4752C243.681 98.3456 243.745 98.2514 243.842 98.1925C243.954 98.1238 244.075 98.1051 244.205 98.1365L252.757 100.21C252.887 100.241 252.979 100.312 253.035 100.421C253.107 100.521 253.127 100.636 253.096 100.765L252.936 101.426C252.904 101.556 252.832 101.655 252.719 101.724C252.623 101.782 252.51 101.796 252.38 101.765L248.998 100.945L247.033 109.05C247.002 109.18 246.936 109.28 246.837 109.352C246.74 109.411 246.62 109.423 246.478 109.389L245.584 109.172ZM252.887 110.942C252.757 110.911 252.656 110.845 252.584 110.746C252.529 110.636 252.516 110.517 252.548 110.387L254.781 101.174C254.813 101.044 254.877 100.95 254.973 100.891C255.086 100.822 255.207 100.804 255.337 100.835L256.25 101.057C256.38 101.088 256.473 101.159 256.528 101.268C256.6 101.368 256.62 101.483 256.589 101.612L255.684 105.344L257.453 105.773L261.02 102.522C261.106 102.447 261.195 102.393 261.285 102.36C261.375 102.327 261.485 102.326 261.615 102.357L262.626 102.602C262.742 102.631 262.833 102.68 262.898 102.751C262.964 102.821 262.984 102.909 262.959 103.012C262.952 103.038 262.93 103.074 262.891 103.119C262.869 103.155 262.84 103.189 262.805 103.222L258.848 106.811L261.012 112.315C261.058 112.409 261.07 112.501 261.048 112.592C261.023 112.695 260.965 112.764 260.875 112.797C260.797 112.833 260.7 112.837 260.584 112.808L259.398 112.521C259.281 112.493 259.19 112.443 259.125 112.373C259.06 112.302 259.006 112.213 258.963 112.107L257.091 107.352L255.303 106.918L254.356 110.825C254.324 110.955 254.252 111.054 254.139 111.123C254.043 111.182 253.93 111.195 253.8 111.164L252.887 110.942ZM263.288 113.464C263.171 113.436 263.077 113.372 263.005 113.272C262.949 113.163 262.934 113.056 262.959 112.952L265.202 103.7C265.234 103.571 265.298 103.476 265.394 103.418C265.507 103.349 265.628 103.33 265.758 103.362L266.691 103.588C266.82 103.619 266.913 103.69 266.969 103.799C267.028 103.896 267.041 104.009 267.01 104.138L265.012 112.38L264.634 111.732L272.432 105.288C272.515 105.226 272.602 105.179 272.693 105.146C272.786 105.1 272.891 105.091 273.008 105.119L273.902 105.336C274.005 105.361 274.087 105.422 274.146 105.519C274.217 105.618 274.241 105.72 274.216 105.824L271.968 115.095C271.937 115.225 271.865 115.324 271.752 115.393C271.655 115.451 271.542 115.465 271.413 115.434L270.499 115.212C270.356 115.178 270.256 115.112 270.197 115.016C270.141 114.906 270.129 114.786 270.16 114.657L272.04 106.901L272.589 107.014L264.739 113.507C264.671 113.559 264.591 113.608 264.497 113.654C264.404 113.7 264.292 113.708 264.163 113.676L263.288 113.464ZM149.535 110.582C149.405 110.551 149.304 110.485 149.232 110.385C149.177 110.276 149.165 110.156 149.196 110.027L151.43 100.813C151.461 100.684 151.525 100.59 151.622 100.531C151.734 100.462 151.855 100.443 151.985 100.475L159.701 102.346C159.831 102.377 159.924 102.447 159.979 102.557C160.051 102.657 160.072 102.771 160.04 102.901L157.807 112.114C157.775 112.244 157.703 112.343 157.59 112.412C157.494 112.47 157.381 112.484 157.251 112.453L156.318 112.227C156.189 112.195 156.094 112.131 156.035 112.035C155.98 111.925 155.968 111.805 155.999 111.676L157.964 103.571L152.969 102.36L151.004 110.465C150.972 110.594 150.907 110.695 150.807 110.767C150.71 110.826 150.597 110.84 150.468 110.808L149.535 110.582ZM164.683 114.46C163.698 114.222 162.921 113.834 162.351 113.298C161.782 112.762 161.402 112.121 161.212 111.376C161.026 110.617 161.017 109.805 161.185 108.941C161.226 108.717 161.287 108.437 161.368 108.1C161.453 107.75 161.527 107.473 161.59 107.269C161.84 106.41 162.22 105.693 162.73 105.117C163.253 104.544 163.89 104.15 164.642 103.934C165.394 103.719 166.256 103.729 167.228 103.964C168.2 104.2 168.97 104.586 169.54 105.122C170.11 105.658 170.49 106.299 170.679 107.044C170.882 107.793 170.897 108.606 170.726 109.484C170.689 109.694 170.628 109.975 170.543 110.324C170.461 110.661 170.387 110.938 170.321 111.155C170.074 112.001 169.695 112.719 169.181 113.308C168.671 113.884 168.04 114.28 167.288 114.495C166.536 114.711 165.668 114.699 164.683 114.46ZM165.046 112.964C165.85 113.158 166.552 113.061 167.154 112.672C167.759 112.27 168.201 111.581 168.478 110.606C168.538 110.415 168.604 110.17 168.677 109.872C168.749 109.574 168.802 109.326 168.836 109.129C169.036 108.134 168.958 107.327 168.601 106.705C168.247 106.07 167.668 105.656 166.865 105.461C166.062 105.266 165.351 105.368 164.733 105.767C164.131 106.156 163.698 106.84 163.433 107.819C163.373 108.01 163.307 108.255 163.234 108.553C163.162 108.851 163.109 109.098 163.075 109.296C162.862 110.287 162.932 111.1 163.286 111.734C163.656 112.359 164.243 112.769 165.046 112.964ZM172.179 116.072C172.049 116.04 171.955 115.976 171.896 115.88C171.837 115.783 171.824 115.67 171.855 115.54L174.112 106.23C174.137 106.126 174.197 106.052 174.29 106.006C174.4 105.95 174.5 105.933 174.59 105.955L175.582 106.195C175.789 106.246 175.926 106.389 175.992 106.624L177.798 113.606L182.62 108.231C182.787 108.052 182.974 107.988 183.182 108.038L184.153 108.273C184.257 108.299 184.338 108.359 184.397 108.456C184.459 108.54 184.478 108.633 184.453 108.737L182.196 118.047C182.164 118.177 182.1 118.271 182.004 118.33C181.907 118.389 181.8 118.404 181.684 118.376L180.731 118.145C180.602 118.114 180.507 118.05 180.449 117.953C180.39 117.856 180.376 117.743 180.407 117.614L182.287 109.858L182.949 110.101L178.329 115.32C178.233 115.433 178.127 115.531 178.011 115.613C177.895 115.695 177.747 115.713 177.565 115.669L177.06 115.547C176.892 115.506 176.775 115.423 176.709 115.297C176.643 115.172 176.588 115.035 176.541 114.886L174.851 108.447L175.467 108.534L173.663 115.979C173.631 116.108 173.567 116.202 173.471 116.261C173.374 116.32 173.261 116.334 173.131 116.303L172.179 116.072ZM188.977 120.35C187.642 120.026 186.679 119.36 186.086 118.352C185.497 117.332 185.336 116.099 185.604 114.655C185.631 114.483 185.677 114.268 185.74 114.009C185.806 113.736 185.866 113.518 185.919 113.352C186.194 112.445 186.603 111.693 187.145 111.098C187.69 110.489 188.333 110.075 189.072 109.857C189.824 109.641 190.64 109.64 191.521 109.854C192.506 110.093 193.279 110.499 193.839 111.074C194.412 111.652 194.781 112.366 194.946 113.215C195.11 114.065 195.068 115.001 194.82 116.025L194.74 116.355C194.706 116.498 194.634 116.597 194.524 116.653C194.427 116.712 194.314 116.725 194.185 116.694L187.46 115.064C187.456 115.076 187.45 115.102 187.441 115.141C187.431 115.18 187.423 115.213 187.417 115.238C187.314 115.776 187.31 116.303 187.404 116.82C187.502 117.324 187.71 117.765 188.03 118.145C188.349 118.524 188.781 118.78 189.325 118.911C189.792 119.025 190.198 119.048 190.544 118.98C190.889 118.913 191.179 118.819 191.415 118.698C191.653 118.563 191.816 118.459 191.902 118.384C192.06 118.244 192.174 118.168 192.245 118.158C192.319 118.135 192.428 118.141 192.57 118.175L193.503 118.401C193.633 118.433 193.727 118.497 193.786 118.593C193.861 118.68 193.876 118.787 193.832 118.913C193.772 119.104 193.61 119.319 193.347 119.557C193.086 119.782 192.742 119.987 192.313 120.171C191.884 120.355 191.389 120.475 190.826 120.531C190.267 120.573 189.651 120.513 188.977 120.35ZM187.785 113.722L193.11 115.013L193.125 114.955C193.266 114.372 193.281 113.827 193.171 113.32C193.074 112.816 192.856 112.386 192.517 112.03C192.181 111.66 191.735 111.408 191.177 111.273C190.62 111.138 190.108 111.157 189.64 111.332C189.188 111.497 188.804 111.781 188.487 112.184C188.17 112.588 187.94 113.081 187.799 113.664L187.785 113.722ZM207.684 127.272C207.554 127.241 207.454 127.175 207.382 127.075C207.323 126.979 207.311 126.859 207.345 126.717L207.831 124.715L196.324 121.925C196.194 121.894 196.094 121.828 196.022 121.728C195.966 121.619 195.954 121.499 195.985 121.37L198.219 112.157C198.25 112.027 198.314 111.933 198.411 111.874C198.523 111.805 198.645 111.787 198.774 111.818L199.668 112.035C199.798 112.066 199.89 112.137 199.946 112.246C200.018 112.346 200.038 112.461 200.007 112.59L198.042 120.695L201.599 121.558L203.564 113.452C203.595 113.323 203.659 113.229 203.756 113.17C203.869 113.101 203.99 113.082 204.119 113.114L204.936 113.312C205.078 113.346 205.177 113.418 205.233 113.528C205.292 113.624 205.306 113.738 205.274 113.867L203.309 121.972L206.866 122.835L208.831 114.729C208.863 114.6 208.927 114.506 209.023 114.447C209.136 114.378 209.257 114.359 209.387 114.391L210.281 114.608C210.41 114.639 210.503 114.709 210.559 114.819C210.631 114.919 210.651 115.033 210.62 115.163L208.655 123.268L209.588 123.494C209.717 123.526 209.81 123.596 209.866 123.706C209.924 123.802 209.938 123.915 209.907 124.045L209.153 127.155C209.118 127.298 209.053 127.398 208.956 127.457C208.86 127.516 208.746 127.53 208.617 127.498L207.684 127.272ZM214.46 126.528C213.812 126.371 213.253 126.098 212.785 125.71C212.317 125.322 211.974 124.869 211.757 124.349C211.54 123.83 211.498 123.292 211.634 122.735C211.85 121.841 212.386 121.216 213.24 120.861C214.095 120.505 215.126 120.385 216.333 120.499L219.328 120.793L219.464 120.229C219.615 119.607 219.552 119.078 219.274 118.64C219.008 118.205 218.474 117.89 217.671 117.696C217.088 117.554 216.586 117.556 216.167 117.701C215.761 117.85 215.442 118.088 215.212 118.416C215.087 118.592 214.927 118.656 214.733 118.609L213.858 118.397C213.716 118.362 213.615 118.297 213.556 118.2C213.513 118.094 213.506 117.982 213.534 117.866C213.581 117.671 213.711 117.449 213.922 117.198C214.147 116.951 214.448 116.729 214.825 116.532C215.202 116.336 215.652 116.205 216.175 116.139C216.715 116.064 217.335 116.112 218.034 116.281C218.812 116.47 219.441 116.732 219.922 117.068C220.406 117.391 220.756 117.758 220.973 118.167C221.202 118.579 221.33 119.015 221.356 119.474C221.394 119.936 221.361 120.387 221.254 120.828L219.727 127.125C219.696 127.255 219.624 127.354 219.511 127.423C219.414 127.482 219.301 127.496 219.172 127.464L218.277 127.247C218.135 127.213 218.034 127.147 217.975 127.051C217.92 126.941 217.907 126.822 217.939 126.692L218.141 125.856C217.916 126.049 217.633 126.227 217.291 126.391C216.953 126.542 216.551 126.644 216.086 126.695C215.624 126.734 215.082 126.678 214.46 126.528ZM215.221 125.169C215.752 125.298 216.265 125.305 216.759 125.192C217.256 125.065 217.686 124.792 218.048 124.372C218.424 123.956 218.699 123.385 218.875 122.659L219.007 122.115L216.672 121.899C215.721 121.805 214.974 121.857 214.432 122.055C213.894 122.24 213.568 122.566 213.455 123.032C213.367 123.395 213.397 123.725 213.544 124.021C213.708 124.308 213.938 124.549 214.233 124.744C214.542 124.942 214.871 125.084 215.221 125.169ZM228.099 124.998L225.281 124.315L224.329 128.241C224.297 128.371 224.232 128.471 224.132 128.543C224.036 128.602 223.922 128.616 223.793 128.584L222.86 128.358C222.73 128.327 222.63 128.261 222.558 128.162C222.502 128.052 222.49 127.932 222.521 127.803L224.755 118.59C224.786 118.46 224.85 118.366 224.947 118.307C225.059 118.238 225.181 118.22 225.31 118.251L226.243 118.477C226.373 118.509 226.465 118.579 226.521 118.689C226.58 118.785 226.594 118.898 226.562 119.028L225.658 122.76L228.476 123.443L228.099 124.998ZM230.821 130.494C229.836 130.255 229.059 129.868 228.489 129.332C227.919 128.796 227.539 128.155 227.35 127.409C227.163 126.651 227.154 125.839 227.323 124.975C227.363 124.751 227.424 124.471 227.506 124.134C227.591 123.784 227.665 123.507 227.728 123.303C227.977 122.444 228.357 121.727 228.867 121.151C229.377 120.575 230.008 120.179 230.76 119.963C231.525 119.751 232.393 119.762 233.365 119.998C234.337 120.234 235.108 120.62 235.678 121.155C236.247 121.691 236.627 122.332 236.817 123.078C237.019 123.827 237.028 124.638 236.844 125.513C236.82 125.727 236.765 126.008 236.68 126.358C236.599 126.695 236.518 126.971 236.439 127.185C236.205 128.033 235.832 128.752 235.319 129.341C234.809 129.917 234.171 130.312 233.407 130.524C232.655 130.74 231.793 130.73 230.821 130.494ZM231.184 128.997C231.987 129.192 232.69 129.095 233.292 128.706C233.897 128.304 234.338 127.615 234.616 126.64C234.676 126.448 234.742 126.204 234.814 125.906C234.886 125.608 234.94 125.36 234.974 125.162C235.174 124.168 235.095 123.36 234.738 122.739C234.384 122.104 233.806 121.69 233.002 121.495C232.199 121.3 231.488 121.402 230.87 121.801C230.268 122.19 229.829 122.872 229.551 123.848C229.491 124.039 229.425 124.284 229.352 124.582C229.28 124.88 229.227 125.127 229.193 125.325C228.993 126.319 229.07 127.134 229.424 127.768C229.794 128.393 230.38 128.803 231.184 128.997ZM240.973 132.75C240.844 132.718 240.743 132.653 240.671 132.553C240.615 132.443 240.603 132.324 240.634 132.194L242.599 124.089L239.217 123.269C239.088 123.238 238.987 123.172 238.915 123.072C238.859 122.963 238.847 122.843 238.879 122.714L239.039 122.053C239.07 121.923 239.134 121.829 239.231 121.77C239.344 121.701 239.465 121.683 239.594 121.714L248.147 123.787C248.276 123.819 248.369 123.889 248.425 123.999C248.497 124.099 248.517 124.213 248.485 124.343L248.325 125.004C248.294 125.133 248.222 125.232 248.109 125.301C248.012 125.36 247.899 125.374 247.77 125.342L244.388 124.522L242.423 132.628C242.391 132.757 242.326 132.858 242.226 132.93C242.129 132.989 242.01 133.001 241.867 132.966L240.973 132.75ZM120.751 128.299C120.622 128.268 120.521 128.202 120.449 128.103C120.393 127.993 120.381 127.873 120.413 127.744L122.646 118.531C122.678 118.401 122.742 118.307 122.838 118.248C122.951 118.179 123.072 118.161 123.202 118.192L127.244 119.172C128.462 119.467 129.316 119.935 129.806 120.575C130.309 121.218 130.459 121.955 130.258 122.784C130.117 123.367 129.9 123.781 129.607 124.026C129.315 124.27 128.943 124.447 128.491 124.557C128.933 124.884 129.221 125.311 129.354 125.837C129.503 126.353 129.518 126.857 129.398 127.35C129.172 128.283 128.669 128.915 127.889 129.248C127.109 129.58 126.129 129.603 124.95 129.317L120.751 128.299ZM122.436 127.206L125.138 127.86C125.76 128.011 126.287 128.016 126.72 127.873C127.168 127.722 127.452 127.399 127.571 126.907C127.697 126.389 127.613 125.97 127.32 125.652C127.03 125.321 126.541 125.073 125.854 124.906L123.153 124.251L122.436 127.206ZM123.501 122.813L126.086 123.439C126.708 123.59 127.234 123.574 127.663 123.389C128.104 123.208 128.385 122.872 128.504 122.379C128.627 121.874 128.522 121.485 128.19 121.212C127.875 120.93 127.406 120.714 126.784 120.563L124.199 119.936L123.501 122.813ZM139.999 133.171C139.079 132.948 138.324 132.58 137.735 132.067C137.162 131.544 136.774 130.908 136.572 130.159C136.372 129.397 136.373 128.547 136.573 127.607C136.607 127.41 136.663 127.149 136.742 126.825C136.821 126.501 136.89 126.244 136.95 126.053C137.202 125.126 137.59 124.376 138.113 123.803C138.639 123.217 139.275 122.83 140.02 122.64C140.782 122.44 141.623 122.452 142.543 122.675C143.295 122.857 143.911 123.117 144.392 123.453C144.886 123.792 145.269 124.166 145.54 124.575C145.811 124.984 145.986 125.396 146.063 125.813C146.153 126.233 146.164 126.613 146.095 126.953C146.077 127.085 146.013 127.18 145.903 127.235C145.794 127.291 145.674 127.303 145.545 127.272L144.612 127.046C144.482 127.014 144.391 126.965 144.339 126.897C144.29 126.817 144.25 126.697 144.22 126.539C144.141 125.848 143.932 125.324 143.593 124.967C143.254 124.61 142.786 124.36 142.19 124.215C141.413 124.027 140.72 124.113 140.111 124.473C139.515 124.836 139.069 125.544 138.773 126.597C138.647 127.061 138.537 127.514 138.443 127.958C138.221 129.043 138.292 129.883 138.655 130.479C139.034 131.065 139.613 131.452 140.39 131.64C140.986 131.785 141.517 131.776 141.981 131.614C142.446 131.453 142.871 131.083 143.259 130.504C143.358 130.377 143.446 130.296 143.524 130.26C143.604 130.211 143.709 130.202 143.839 130.233L144.772 130.459C144.901 130.491 145.002 130.556 145.074 130.656C145.146 130.756 145.16 130.869 145.115 130.995C145.036 131.264 144.91 131.529 144.738 131.789C144.565 132.049 144.326 132.299 144.02 132.541C143.731 132.773 143.389 132.964 142.996 133.116C142.606 133.254 142.153 133.337 141.639 133.363C141.142 133.38 140.595 133.316 139.999 133.171ZM150.665 135.757C149.33 135.433 148.366 134.768 147.774 133.76C147.185 132.739 147.024 131.506 147.292 130.062C147.319 129.89 147.365 129.675 147.428 129.416C147.494 129.144 147.553 128.925 147.607 128.76C147.882 127.852 148.291 127.101 148.833 126.505C149.378 125.896 150.021 125.483 150.76 125.264C151.512 125.048 152.328 125.047 153.209 125.261C154.194 125.5 154.967 125.907 155.527 126.481C156.1 127.059 156.469 127.773 156.634 128.622C156.798 129.472 156.756 130.408 156.508 131.432L156.428 131.762C156.394 131.905 156.321 132.004 156.212 132.06C156.115 132.119 156.002 132.133 155.873 132.101L149.147 130.471C149.144 130.484 149.138 130.51 149.129 130.548C149.119 130.587 149.111 130.62 149.105 130.646C149.002 131.183 148.998 131.71 149.092 132.227C149.189 132.731 149.398 133.172 149.718 133.552C150.037 133.931 150.469 134.187 151.013 134.319C151.48 134.432 151.886 134.455 152.231 134.388C152.577 134.32 152.867 134.226 153.103 134.105C153.341 133.971 153.504 133.866 153.59 133.791C153.748 133.651 153.862 133.576 153.933 133.565C154.007 133.542 154.116 133.548 154.258 133.582L155.191 133.809C155.321 133.84 155.415 133.904 155.474 134.001C155.549 134.087 155.564 134.194 155.52 134.32C155.46 134.512 155.298 134.726 155.035 134.964C154.774 135.189 154.43 135.394 154.001 135.578C153.572 135.762 153.076 135.882 152.514 135.938C151.955 135.981 151.339 135.92 150.665 135.757ZM149.473 129.13L154.798 130.421L154.812 130.362C154.954 129.779 154.969 129.234 154.859 128.727C154.762 128.224 154.544 127.793 154.205 127.437C153.869 127.067 153.422 126.815 152.865 126.68C152.308 126.545 151.796 126.565 151.328 126.739C150.876 126.904 150.492 127.188 150.175 127.592C149.857 127.995 149.628 128.488 149.487 129.071L149.473 129.13ZM161.794 138.455C160.796 138.213 160.006 137.823 159.423 137.283C158.856 136.735 158.483 136.068 158.303 135.283C158.139 134.489 158.157 133.622 158.357 132.683C158.438 132.291 158.526 131.901 158.62 131.512C158.714 131.123 158.815 130.736 158.922 130.35C159.208 129.171 159.543 128.216 159.926 127.486C160.308 126.756 160.754 126.191 161.262 125.793C161.786 125.385 162.392 125.093 163.08 124.917C163.767 124.741 164.554 124.636 165.44 124.604C166.329 124.559 167.337 124.529 168.466 124.515C168.589 124.517 168.694 124.563 168.782 124.653C168.883 124.746 168.926 124.852 168.911 124.972L168.873 125.807C168.871 125.93 168.826 126.029 168.739 126.104C168.665 126.182 168.567 126.22 168.444 126.217C167.413 126.228 166.512 126.236 165.742 126.242C164.973 126.247 164.312 126.313 163.76 126.44C163.211 126.554 162.742 126.763 162.353 127.066C161.964 127.37 161.635 127.818 161.368 128.412C161.114 129.009 160.888 129.798 160.691 130.779L160.306 130.501C160.487 130.037 160.793 129.651 161.224 129.344C161.671 129.027 162.184 128.809 162.762 128.688C163.34 128.568 163.921 128.578 164.504 128.719C165.398 128.936 166.104 129.306 166.622 129.83C167.153 130.356 167.502 130.983 167.668 131.709C167.848 132.439 167.856 133.229 167.69 134.081C167.609 134.528 167.517 134.91 167.412 135.228C167.169 136.061 166.793 136.765 166.283 137.341C165.776 137.904 165.146 138.294 164.394 138.509C163.645 138.712 162.779 138.694 161.794 138.455ZM162.142 137.017C162.959 137.215 163.668 137.119 164.27 136.73C164.872 136.341 165.304 135.663 165.565 134.698C165.61 134.571 165.652 134.424 165.693 134.255C165.734 134.087 165.77 133.911 165.801 133.726C166.014 132.735 165.942 131.929 165.585 131.307C165.241 130.688 164.712 130.293 164 130.12C163.183 129.922 162.448 130.012 161.794 130.388C161.141 130.765 160.675 131.441 160.397 132.416C160.34 132.594 160.291 132.768 160.251 132.936C160.21 133.105 160.18 133.255 160.162 133.388C159.965 134.369 160.045 135.171 160.402 135.792C160.759 136.414 161.339 136.822 162.142 137.017ZM172.835 141.132C171.5 140.808 170.537 140.142 169.944 139.134C169.355 138.113 169.194 136.881 169.462 135.437C169.49 135.265 169.535 135.05 169.598 134.791C169.664 134.518 169.724 134.3 169.778 134.134C170.052 133.227 170.461 132.475 171.003 131.88C171.549 131.271 172.191 130.857 172.93 130.639C173.682 130.423 174.498 130.422 175.38 130.636C176.364 130.875 177.137 131.281 177.697 131.856C178.271 132.434 178.639 133.148 178.804 133.997C178.968 134.847 178.927 135.783 178.679 136.807L178.598 137.137C178.564 137.28 178.492 137.379 178.382 137.435C178.286 137.494 178.173 137.507 178.043 137.476L171.318 135.845C171.315 135.858 171.308 135.884 171.299 135.923C171.29 135.962 171.282 135.994 171.275 136.02C171.172 136.558 171.168 137.085 171.262 137.602C171.36 138.106 171.568 138.547 171.888 138.927C172.208 139.306 172.639 139.561 173.184 139.693C173.65 139.807 174.056 139.829 174.402 139.762C174.747 139.695 175.038 139.601 175.273 139.48C175.511 139.345 175.674 139.241 175.761 139.166C175.918 139.026 176.032 138.95 176.103 138.94C176.178 138.917 176.286 138.923 176.429 138.957L177.361 139.183C177.491 139.215 177.585 139.279 177.644 139.375C177.719 139.462 177.735 139.569 177.69 139.695C177.63 139.886 177.468 140.101 177.205 140.339C176.944 140.564 176.6 140.769 176.171 140.953C175.742 141.137 175.247 141.257 174.684 141.313C174.125 141.355 173.509 141.295 172.835 141.132ZM171.643 134.504L176.969 135.795L176.983 135.737C177.124 135.154 177.14 134.609 177.029 134.102C176.932 133.598 176.714 133.168 176.375 132.812C176.039 132.442 175.593 132.19 175.036 132.055C174.478 131.92 173.966 131.939 173.498 132.114C173.047 132.279 172.662 132.563 172.345 132.966C172.028 133.37 171.798 133.863 171.657 134.446L171.643 134.504ZM188.728 144.985C187.731 144.743 186.94 144.352 186.358 143.813C185.791 143.264 185.418 142.598 185.237 141.813C185.073 141.019 185.091 140.152 185.292 139.213C185.373 138.821 185.461 138.43 185.555 138.042C185.649 137.653 185.75 137.266 185.857 136.88C186.143 135.701 186.477 134.746 186.86 134.016C187.243 133.285 187.688 132.721 188.197 132.323C188.721 131.915 189.327 131.623 190.014 131.447C190.702 131.27 191.489 131.166 192.374 131.134C193.263 131.089 194.272 131.059 195.401 131.044C195.524 131.047 195.629 131.093 195.717 131.183C195.818 131.276 195.861 131.382 195.845 131.502L195.808 132.337C195.805 132.46 195.761 132.558 195.674 132.633C195.6 132.712 195.502 132.75 195.379 132.747C194.347 132.758 193.447 132.766 192.677 132.771C191.907 132.777 191.247 132.843 190.695 132.97C190.146 133.084 189.677 133.292 189.287 133.596C188.898 133.899 188.57 134.348 188.303 134.942C188.048 135.539 187.823 136.328 187.626 137.309L187.241 137.03C187.422 136.567 187.728 136.181 188.159 135.874C188.606 135.557 189.119 135.339 189.697 135.218C190.275 135.097 190.855 135.108 191.438 135.249C192.333 135.466 193.039 135.836 193.556 136.359C194.087 136.886 194.436 137.513 194.603 138.239C194.783 138.969 194.79 139.759 194.625 140.611C194.544 141.058 194.451 141.44 194.347 141.758C194.104 142.591 193.727 143.295 193.217 143.871C192.71 144.434 192.081 144.823 191.329 145.039C190.58 145.242 189.713 145.224 188.728 144.985ZM189.077 143.546C189.893 143.744 190.603 143.649 191.205 143.26C191.807 142.87 192.238 142.193 192.5 141.228C192.544 141.101 192.587 140.954 192.628 140.785C192.668 140.617 192.704 140.44 192.735 140.256C192.948 139.265 192.876 138.458 192.519 137.837C192.175 137.218 191.647 136.823 190.934 136.65C190.118 136.452 189.383 136.541 188.729 136.918C188.075 137.294 187.61 137.97 187.332 138.946C187.275 139.124 187.226 139.297 187.185 139.466C187.144 139.634 187.115 139.785 187.096 139.918C186.9 140.899 186.98 141.7 187.337 142.322C187.694 142.944 188.274 143.352 189.077 143.546ZM199.886 147.69C198.901 147.451 198.124 147.064 197.554 146.528C196.985 145.992 196.605 145.351 196.415 144.605C196.229 143.847 196.22 143.035 196.388 142.17C196.429 141.947 196.49 141.667 196.571 141.33C196.656 140.98 196.73 140.703 196.793 140.499C197.043 139.64 197.423 138.923 197.933 138.346C198.456 137.774 199.093 137.379 199.845 137.164C200.597 136.948 201.459 136.958 202.431 137.194C203.403 137.429 204.173 137.815 204.743 138.351C205.313 138.887 205.693 139.528 205.882 140.274C206.085 141.023 206.1 141.836 205.929 142.713C205.892 142.924 205.83 143.204 205.746 143.554C205.664 143.891 205.59 144.168 205.524 144.385C205.277 145.231 204.898 145.948 204.384 146.537C203.874 147.113 203.243 147.509 202.491 147.725C201.739 147.94 200.871 147.929 199.886 147.69ZM200.249 146.193C201.052 146.388 201.755 146.291 202.357 145.902C202.962 145.5 203.404 144.811 203.681 143.835C203.741 143.644 203.807 143.4 203.88 143.102C203.952 142.803 204.005 142.556 204.039 142.358C204.239 141.364 204.161 140.556 203.804 139.934C203.45 139.3 202.871 138.885 202.068 138.69C201.265 138.496 200.554 138.598 199.936 138.997C199.334 139.386 198.901 140.07 198.636 141.048C198.576 141.239 198.51 141.484 198.437 141.782C198.365 142.08 198.312 142.328 198.278 142.525C198.065 143.517 198.135 144.329 198.489 144.964C198.859 145.589 199.446 145.998 200.249 146.193ZM206.468 149.08C206.339 149.048 206.24 148.976 206.171 148.864C206.102 148.751 206.084 148.63 206.115 148.5L206.289 147.781C206.355 147.509 206.526 147.399 206.801 147.452C207.206 147.537 207.589 147.431 207.949 147.134C208.312 146.824 208.662 146.285 208.999 145.516C209.34 144.734 209.672 143.676 209.995 142.341L210.599 139.853C210.63 139.723 210.694 139.629 210.791 139.57C210.903 139.502 211.024 139.483 211.154 139.514L217.335 141.013C217.465 141.044 217.557 141.115 217.613 141.224C217.685 141.324 217.705 141.439 217.674 141.568L215.44 150.781C215.409 150.911 215.337 151.01 215.224 151.079C215.127 151.138 215.014 151.151 214.885 151.12L213.952 150.894C213.822 150.862 213.728 150.798 213.669 150.702C213.613 150.592 213.601 150.473 213.632 150.343L215.597 142.238L212.099 141.39L211.712 142.984C211.411 144.228 211.08 145.279 210.721 146.139C210.365 146.985 209.97 147.651 209.537 148.136C209.12 148.611 208.653 148.923 208.137 149.073C207.634 149.225 207.077 149.227 206.468 149.08ZM218.676 152.039C218.547 152.008 218.446 151.942 218.374 151.843C218.318 151.733 218.306 151.613 218.338 151.484L220.571 142.271C220.603 142.141 220.667 142.047 220.763 141.988C220.876 141.919 220.997 141.901 221.127 141.932L222.06 142.158C222.189 142.19 222.282 142.26 222.338 142.37C222.41 142.469 222.43 142.584 222.398 142.714L221.706 145.571L223.883 146.099C225.204 146.419 226.094 146.964 226.553 147.734C227.011 148.503 227.111 149.419 226.853 150.482C226.577 151.622 226.036 152.383 225.23 152.764C224.424 153.145 223.348 153.172 222 152.845L218.676 152.039ZM220.39 150.911L222.431 151.406C223.209 151.595 223.812 151.597 224.241 151.413C224.673 151.216 224.973 150.767 225.143 150.067C225.306 149.394 225.252 148.852 224.981 148.443C224.713 148.022 224.177 147.714 223.374 147.519L221.333 147.024L220.39 150.911ZM228.414 154.4C228.284 154.369 228.184 154.303 228.112 154.203C228.056 154.094 228.044 153.974 228.075 153.845L230.309 144.631C230.34 144.502 230.404 144.408 230.501 144.349C230.613 144.28 230.735 144.261 230.864 144.293L231.758 144.509C231.888 144.541 231.981 144.611 232.036 144.721C232.108 144.821 232.128 144.935 232.097 145.065L230.132 153.17L233.689 154.032L235.654 145.927C235.685 145.798 235.749 145.703 235.846 145.645C235.959 145.576 236.08 145.557 236.209 145.589L237.026 145.786C237.168 145.821 237.267 145.893 237.323 146.003C237.382 146.099 237.396 146.212 237.364 146.342L235.399 154.447L238.956 155.309L240.921 147.204C240.953 147.075 241.017 146.98 241.113 146.921C241.226 146.853 241.347 146.834 241.477 146.866L242.371 147.082C242.5 147.114 242.593 147.184 242.649 147.294C242.721 147.393 242.741 147.508 242.71 147.638L240.476 156.851C240.445 156.98 240.373 157.08 240.26 157.148C240.163 157.207 240.05 157.221 239.921 157.19L228.414 154.4ZM247.359 159.199C246.374 158.96 245.597 158.572 245.027 158.036C244.457 157.5 244.077 156.86 243.888 156.114C243.701 155.355 243.692 154.544 243.861 153.679C243.901 153.456 243.962 153.175 244.044 152.839C244.129 152.489 244.203 152.212 244.266 152.007C244.515 151.149 244.895 150.431 245.405 149.855C245.928 149.282 246.566 148.888 247.318 148.673C248.07 148.457 248.931 148.467 249.903 148.703C250.875 148.938 251.646 149.324 252.216 149.86C252.786 150.396 253.165 151.037 253.355 151.783C253.557 152.531 253.573 153.345 253.401 154.222C253.364 154.433 253.303 154.713 253.218 155.063C253.137 155.4 253.062 155.677 252.996 155.894C252.75 156.74 252.37 157.457 251.857 158.046C251.347 158.622 250.716 159.018 249.964 159.233C249.212 159.449 248.344 159.437 247.359 159.199ZM247.722 157.702C248.525 157.897 249.228 157.8 249.83 157.41C250.435 157.008 250.876 156.32 251.154 155.344C251.214 155.153 251.28 154.908 251.352 154.61C251.424 154.312 251.478 154.064 251.512 153.867C251.712 152.873 251.633 152.065 251.276 151.443C250.922 150.809 250.344 150.394 249.541 150.199C248.737 150.004 248.026 150.107 247.408 150.506C246.806 150.895 246.373 151.578 246.108 152.557C246.048 152.748 245.982 152.993 245.91 153.291C245.838 153.589 245.784 153.837 245.75 154.034C245.537 155.025 245.608 155.838 245.962 156.473C246.332 157.097 246.918 157.507 247.722 157.702ZM258.403 161.876C257.069 161.553 256.105 160.887 255.512 159.879C254.923 158.858 254.762 157.625 255.03 156.181C255.058 156.009 255.103 155.794 255.166 155.535C255.232 155.263 255.292 155.044 255.346 154.879C255.621 153.971 256.029 153.22 256.572 152.624C257.117 152.015 257.759 151.602 258.498 151.383C259.25 151.167 260.067 151.167 260.948 151.38C261.933 151.619 262.705 152.026 263.266 152.601C263.839 153.179 264.208 153.892 264.372 154.742C264.537 155.591 264.495 156.527 264.247 157.551L264.167 157.882C264.132 158.024 264.06 158.123 263.95 158.179C263.854 158.238 263.741 158.252 263.611 158.22L256.886 156.59C256.883 156.603 256.877 156.629 256.867 156.668C256.858 156.706 256.85 156.739 256.844 156.765C256.741 157.302 256.736 157.829 256.831 158.346C256.928 158.85 257.137 159.292 257.456 159.671C257.776 160.05 258.208 160.306 258.752 160.438C259.218 160.551 259.624 160.574 259.97 160.507C260.316 160.44 260.606 160.345 260.841 160.224C261.079 160.09 261.242 159.985 261.329 159.91C261.486 159.77 261.601 159.695 261.672 159.684C261.746 159.661 261.854 159.667 261.997 159.702L262.93 159.928C263.059 159.959 263.154 160.023 263.212 160.12C263.287 160.206 263.303 160.313 263.258 160.44C263.198 160.631 263.037 160.845 262.773 161.083C262.513 161.308 262.168 161.513 261.739 161.697C261.311 161.881 260.815 162.001 260.253 162.057C259.694 162.1 259.077 162.039 258.403 161.876ZM257.211 155.249L262.537 156.54L262.551 156.481C262.692 155.898 262.708 155.353 262.598 154.846C262.5 154.343 262.282 153.912 261.943 153.556C261.607 153.186 261.161 152.934 260.604 152.799C260.047 152.664 259.534 152.684 259.067 152.859C258.615 153.023 258.231 153.308 257.913 153.711C257.596 154.114 257.367 154.607 257.225 155.19L257.211 155.249ZM133.101 155.988C132.971 155.957 132.87 155.891 132.798 155.792C132.743 155.682 132.731 155.562 132.762 155.433L134.995 146.22C135.027 146.09 135.091 145.996 135.187 145.937C135.3 145.868 135.421 145.85 135.551 145.881L136.464 146.103C136.594 146.134 136.687 146.204 136.742 146.314C136.814 146.414 136.835 146.528 136.803 146.658L135.898 150.39L137.667 150.819L141.234 147.567C141.32 147.492 141.409 147.438 141.499 147.405C141.59 147.372 141.699 147.372 141.829 147.403L142.84 147.648C142.956 147.676 143.047 147.726 143.112 147.797C143.178 147.867 143.198 147.954 143.173 148.058C143.166 148.084 143.144 148.12 143.105 148.165C143.083 148.201 143.054 148.235 143.019 148.268L139.062 151.857L141.226 157.361C141.272 157.455 141.284 157.547 141.262 157.638C141.237 157.741 141.179 157.81 141.089 157.843C141.011 157.879 140.914 157.883 140.798 157.854L139.612 157.567C139.495 157.539 139.404 157.489 139.339 157.418C139.274 157.348 139.22 157.259 139.177 157.153L137.305 152.398L135.517 151.964L134.57 155.871C134.538 156.001 134.466 156.1 134.353 156.169C134.257 156.227 134.144 156.241 134.014 156.21L133.101 155.988ZM147.167 159.604C146.182 159.366 145.405 158.978 144.835 158.442C144.266 157.906 143.886 157.265 143.696 156.52C143.51 155.761 143.501 154.949 143.669 154.085C143.71 153.861 143.771 153.581 143.852 153.244C143.937 152.894 144.011 152.617 144.075 152.413C144.324 151.554 144.704 150.837 145.214 150.261C145.737 149.688 146.374 149.294 147.126 149.078C147.878 148.863 148.74 148.873 149.712 149.108C150.684 149.344 151.454 149.73 152.024 150.266C152.594 150.802 152.974 151.443 153.163 152.188C153.366 152.937 153.381 153.75 153.21 154.628C153.173 154.838 153.112 155.119 153.027 155.468C152.945 155.805 152.871 156.082 152.805 156.299C152.558 157.145 152.179 157.863 151.665 158.452C151.155 159.028 150.524 159.424 149.772 159.639C149.02 159.855 148.152 159.843 147.167 159.604ZM147.53 158.108C148.334 158.302 149.036 158.205 149.638 157.816C150.243 157.414 150.685 156.725 150.962 155.75C151.022 155.559 151.088 155.314 151.161 155.016C151.233 154.718 151.286 154.47 151.32 154.273C151.52 153.278 151.442 152.471 151.085 151.849C150.731 151.214 150.152 150.8 149.349 150.605C148.546 150.41 147.835 150.512 147.217 150.911C146.615 151.3 146.182 151.984 145.917 152.963C145.857 153.154 145.791 153.399 145.718 153.697C145.646 153.995 145.593 154.242 145.559 154.44C145.346 155.431 145.416 156.244 145.77 156.878C146.14 157.503 146.727 157.913 147.53 158.108ZM153.749 160.994C153.62 160.963 153.521 160.891 153.452 160.778C153.383 160.665 153.365 160.544 153.396 160.415L153.57 159.696C153.636 159.423 153.807 159.314 154.082 159.367C154.487 159.451 154.87 159.345 155.23 159.048C155.593 158.738 155.943 158.199 156.28 157.43C156.621 156.648 156.953 155.59 157.276 154.256L157.88 151.768C157.911 151.638 157.975 151.544 158.072 151.485C158.184 151.416 158.305 151.398 158.435 151.429L164.616 152.927C164.746 152.959 164.838 153.029 164.894 153.139C164.966 153.239 164.986 153.353 164.955 153.483L162.721 162.696C162.69 162.826 162.618 162.925 162.505 162.993C162.408 163.052 162.295 163.066 162.166 163.035L161.233 162.808C161.103 162.777 161.009 162.713 160.95 162.616C160.894 162.507 160.882 162.387 160.913 162.258L162.878 154.152L159.38 153.304L158.993 154.898C158.692 156.142 158.361 157.194 158.002 158.053C157.646 158.9 157.251 159.566 156.818 160.051C156.401 160.526 155.934 160.838 155.418 160.987C154.915 161.14 154.359 161.142 153.749 160.994ZM165.938 163.949C165.821 163.921 165.727 163.857 165.655 163.757C165.6 163.648 165.584 163.541 165.609 163.437L167.852 154.185C167.884 154.056 167.948 153.961 168.044 153.903C168.157 153.834 168.278 153.815 168.408 153.847L169.341 154.073C169.47 154.104 169.563 154.175 169.619 154.284C169.678 154.381 169.691 154.494 169.66 154.623L167.662 162.865L167.284 162.217L175.082 155.773C175.165 155.711 175.252 155.664 175.343 155.631C175.436 155.585 175.541 155.576 175.658 155.604L176.552 155.821C176.655 155.846 176.737 155.907 176.796 156.004C176.868 156.103 176.891 156.205 176.866 156.309L174.618 165.58C174.587 165.71 174.515 165.809 174.402 165.878C174.305 165.936 174.192 165.95 174.063 165.919L173.149 165.697C173.007 165.663 172.906 165.597 172.847 165.501C172.791 165.391 172.779 165.271 172.81 165.142L174.691 157.387L175.24 157.499L167.389 163.992C167.321 164.044 167.241 164.093 167.147 164.139C167.054 164.185 166.942 164.193 166.813 164.161L165.938 163.949ZM183.73 168.262C183.588 168.228 183.487 168.162 183.428 168.066C183.372 167.956 183.36 167.837 183.391 167.707L184.277 164.053C183.849 164.292 183.363 164.428 182.82 164.461C182.293 164.484 181.712 164.419 181.077 164.265C179.937 163.988 179.111 163.521 178.598 162.861C178.099 162.205 177.986 161.313 178.259 160.186L179.055 156.901C179.087 156.772 179.151 156.677 179.247 156.618C179.36 156.55 179.481 156.531 179.611 156.563L180.563 156.793C180.693 156.825 180.785 156.895 180.841 157.005C180.913 157.105 180.933 157.219 180.902 157.349L180.134 160.517C179.992 161.1 180.057 161.569 180.328 161.922C180.612 162.279 181.11 162.544 181.823 162.717C182.613 162.909 183.272 162.965 183.798 162.887C184.328 162.796 184.656 162.491 184.782 161.973L185.625 158.494C185.656 158.364 185.72 158.27 185.817 158.211C185.917 158.139 186.038 158.121 186.18 158.155L187.152 158.391C187.282 158.422 187.375 158.493 187.43 158.602C187.502 158.702 187.522 158.817 187.491 158.946L185.257 168.159C185.226 168.289 185.154 168.388 185.041 168.457C184.945 168.516 184.832 168.529 184.702 168.498L183.73 168.262ZM192.018 170.477C190.683 170.154 189.719 169.488 189.127 168.48C188.537 167.459 188.377 166.227 188.644 164.782C188.672 164.611 188.718 164.395 188.781 164.136C188.847 163.864 188.906 163.645 188.96 163.48C189.235 162.573 189.644 161.821 190.186 161.225C190.731 160.617 191.374 160.203 192.113 159.984C192.865 159.769 193.681 159.768 194.562 159.981C195.547 160.22 196.32 160.627 196.88 161.202C197.453 161.78 197.822 162.494 197.987 163.343C198.151 164.192 198.109 165.129 197.861 166.152L197.781 166.483C197.746 166.625 197.674 166.725 197.565 166.78C197.468 166.839 197.355 166.853 197.226 166.822L190.5 165.191C190.497 165.204 190.491 165.23 190.482 165.269C190.472 165.308 190.464 165.34 190.458 165.366C190.355 165.904 190.351 166.431 190.445 166.948C190.542 167.451 190.751 167.893 191.071 168.272C191.39 168.652 191.822 168.907 192.366 169.039C192.833 169.152 193.239 169.175 193.584 169.108C193.93 169.041 194.22 168.947 194.456 168.825C194.694 168.691 194.856 168.586 194.943 168.511C195.101 168.371 195.215 168.296 195.286 168.286C195.36 168.263 195.469 168.268 195.611 168.303L196.544 168.529C196.674 168.56 196.768 168.624 196.827 168.721C196.902 168.808 196.917 168.914 196.873 169.041C196.813 169.232 196.651 169.447 196.387 169.685C196.127 169.91 195.783 170.114 195.354 170.298C194.925 170.483 194.429 170.602 193.867 170.658C193.308 170.701 192.691 170.641 192.018 170.477ZM190.826 163.85L196.151 165.141L196.165 165.083C196.307 164.5 196.322 163.955 196.212 163.448C196.115 162.944 195.896 162.514 195.558 162.157C195.222 161.788 194.775 161.535 194.218 161.4C193.661 161.265 193.149 161.285 192.681 161.46C192.229 161.625 191.845 161.909 191.528 162.312C191.21 162.715 190.981 163.209 190.84 163.792L190.826 163.85ZM202.952 173.128C202.032 172.905 201.278 172.537 200.689 172.024C200.116 171.501 199.728 170.865 199.526 170.116C199.326 169.354 199.326 168.504 199.527 167.565C199.561 167.367 199.617 167.106 199.696 166.782C199.774 166.458 199.844 166.201 199.904 166.01C200.156 165.083 200.543 164.333 201.066 163.76C201.593 163.174 202.229 162.787 202.974 162.597C203.736 162.398 204.577 162.409 205.497 162.632C206.248 162.815 206.865 163.074 207.346 163.41C207.84 163.749 208.222 164.123 208.494 164.532C208.765 164.941 208.939 165.353 209.017 165.77C209.107 166.19 209.118 166.57 209.049 166.91C209.031 167.042 208.967 167.137 208.857 167.192C208.748 167.248 208.628 167.26 208.498 167.229L207.565 167.003C207.436 166.971 207.345 166.922 207.293 166.854C207.244 166.774 207.204 166.654 207.174 166.496C207.094 165.805 206.885 165.281 206.546 164.924C206.208 164.568 205.74 164.317 205.144 164.173C204.367 163.984 203.674 164.07 203.065 164.43C202.469 164.793 202.023 165.501 201.727 166.554C201.601 167.018 201.491 167.471 201.397 167.915C201.175 169 201.246 169.84 201.609 170.436C201.988 171.022 202.567 171.409 203.344 171.597C203.94 171.742 204.47 171.733 204.935 171.572C205.399 171.41 205.825 171.04 206.212 170.461C206.312 170.334 206.4 170.253 206.478 170.217C206.558 170.168 206.663 170.159 206.793 170.19L207.726 170.417C207.855 170.448 207.956 170.514 208.028 170.613C208.1 170.713 208.113 170.826 208.069 170.953C207.99 171.222 207.864 171.486 207.691 171.746C207.519 172.006 207.28 172.257 206.974 172.498C206.685 172.73 206.343 172.921 205.95 173.073C205.559 173.212 205.107 173.294 204.593 173.32C204.095 173.337 203.548 173.273 202.952 173.128ZM212.733 175.294C212.603 175.262 212.502 175.197 212.431 175.097C212.375 174.987 212.363 174.868 212.394 174.738L214.359 166.633L210.977 165.813C210.847 165.782 210.747 165.716 210.675 165.616C210.619 165.507 210.607 165.387 210.638 165.258L210.798 164.597C210.83 164.467 210.894 164.373 210.99 164.314C211.103 164.245 211.224 164.227 211.354 164.258L219.906 166.331C220.036 166.363 220.128 166.433 220.184 166.543C220.256 166.643 220.276 166.757 220.245 166.887L220.085 167.548C220.053 167.677 219.981 167.776 219.868 167.845C219.772 167.904 219.659 167.918 219.529 167.886L216.147 167.066L214.182 175.172C214.151 175.301 214.085 175.402 213.985 175.474C213.889 175.533 213.769 175.545 213.627 175.51L212.733 175.294ZM220.036 177.064C219.906 177.033 219.805 176.967 219.733 176.867C219.678 176.758 219.665 176.638 219.697 176.509L221.93 167.295C221.962 167.166 222.026 167.072 222.122 167.013C222.235 166.944 222.356 166.925 222.486 166.957L226.529 167.937C227.747 168.232 228.601 168.7 229.09 169.34C229.593 169.983 229.744 170.719 229.543 171.549C229.401 172.132 229.184 172.546 228.892 172.79C228.599 173.035 228.227 173.212 227.775 173.322C228.217 173.649 228.505 174.075 228.638 174.601C228.787 175.118 228.802 175.622 228.683 176.115C228.456 177.048 227.953 177.68 227.173 178.012C226.393 178.345 225.413 178.368 224.234 178.082L220.036 177.064ZM221.721 175.97L224.422 176.625C225.044 176.776 225.572 176.78 226.004 176.638C226.452 176.486 226.736 176.164 226.856 175.672C226.981 175.153 226.897 174.735 226.604 174.417C226.314 174.086 225.825 173.837 225.139 173.671L222.437 173.016L221.721 175.97ZM222.786 171.577L225.371 172.204C225.993 172.355 226.518 172.338 226.947 172.154C227.389 171.973 227.669 171.636 227.789 171.144C227.911 170.639 227.806 170.25 227.475 169.977C227.159 169.695 226.69 169.478 226.068 169.328L223.483 168.701L222.786 171.577ZM234.577 180.795C233.592 180.556 232.815 180.169 232.245 179.633C231.675 179.097 231.295 178.456 231.106 177.71C230.919 176.952 230.91 176.14 231.079 175.275C231.119 175.052 231.18 174.772 231.262 174.435C231.347 174.085 231.421 173.808 231.484 173.604C231.733 172.745 232.113 172.028 232.623 171.452C233.146 170.879 233.784 170.485 234.536 170.269C235.288 170.053 236.149 170.063 237.121 170.299C238.093 170.535 238.864 170.92 239.434 171.456C240.003 171.992 240.383 172.633 240.573 173.379C240.775 174.128 240.791 174.941 240.619 175.819C240.582 176.029 240.521 176.309 240.436 176.659C240.354 176.996 240.28 177.273 240.214 177.49C239.968 178.336 239.588 179.053 239.075 179.642C238.565 180.218 237.934 180.614 237.182 180.83C236.43 181.045 235.562 181.034 234.577 180.795ZM234.94 179.298C235.743 179.493 236.446 179.396 237.048 179.007C237.653 178.605 238.094 177.916 238.372 176.941C238.432 176.749 238.498 176.505 238.57 176.207C238.642 175.909 238.696 175.661 238.73 175.463C238.93 174.469 238.851 173.661 238.494 173.04C238.14 172.405 237.562 171.99 236.758 171.796C235.955 171.601 235.244 171.703 234.626 172.102C234.024 172.491 233.591 173.175 233.326 174.153C233.266 174.345 233.2 174.589 233.128 174.887C233.056 175.185 233.002 175.433 232.968 175.631C232.755 176.622 232.826 177.435 233.18 178.069C233.55 178.694 234.136 179.104 234.94 179.298ZM143.587 187.136C143.445 187.101 143.345 187.029 143.29 186.92C143.231 186.823 143.217 186.71 143.248 186.58L143.409 185.92C143.44 185.79 143.506 185.689 143.605 185.617C143.702 185.558 143.821 185.546 143.964 185.581L144.469 185.703C144.767 185.776 145.021 185.775 145.231 185.703C145.441 185.63 145.651 185.469 145.863 185.218C146.084 184.984 146.357 184.652 146.68 184.223L153.325 175.235C153.389 175.141 153.46 175.076 153.537 175.04C153.631 174.994 153.749 174.988 153.891 175.023L154.746 175.23C154.863 175.258 154.951 175.321 155.01 175.417C155.068 175.514 155.085 175.614 155.06 175.718C155.048 175.769 155.029 175.82 155.003 175.868C154.981 175.904 154.939 175.963 154.878 176.044L149.065 183.895C148.757 184.315 148.426 184.749 148.07 185.197C147.727 185.649 147.361 186.055 146.973 186.413C146.594 186.788 146.185 187.059 145.746 187.227C145.305 187.408 144.831 187.437 144.326 187.315L143.587 187.136ZM147.255 183.806L145.529 173.777C145.502 173.606 145.496 173.488 145.512 173.423C145.553 173.31 145.622 173.224 145.719 173.165C145.815 173.106 145.915 173.089 146.019 173.114L146.933 173.336C147.075 173.37 147.171 173.428 147.22 173.508C147.282 173.592 147.322 173.684 147.338 173.784L148.694 182.283L147.255 183.806ZM154.236 189.717C154.106 189.686 154.007 189.614 153.938 189.501C153.879 189.405 153.866 189.292 153.897 189.162L157.026 176.256C157.057 176.126 157.121 176.032 157.218 175.973C157.33 175.904 157.452 175.886 157.581 175.917L158.475 176.134C158.605 176.165 158.698 176.236 158.753 176.345C158.825 176.445 158.845 176.56 158.814 176.689L158.607 177.545C159.021 177.192 159.522 176.936 160.11 176.777C160.697 176.618 161.38 176.632 162.157 176.821C162.883 176.997 163.468 177.269 163.914 177.638C164.373 178.009 164.712 178.448 164.933 178.955C165.166 179.464 165.301 180.011 165.337 180.596C165.374 181.181 165.323 181.786 165.185 182.411C165.148 182.622 165.101 182.844 165.044 183.077C164.988 183.31 164.928 183.529 164.865 183.733C164.704 184.339 164.472 184.9 164.169 185.417C163.868 185.92 163.498 186.345 163.057 186.691C162.633 187.027 162.13 187.261 161.549 187.395C160.984 187.519 160.338 187.493 159.613 187.317C158.861 187.134 158.259 186.844 157.807 186.447C157.37 186.039 157.041 185.589 156.817 185.096L155.724 189.605C155.693 189.734 155.629 189.829 155.532 189.888C155.432 189.959 155.311 189.978 155.169 189.944L154.236 189.717ZM159.586 185.643C160.26 185.807 160.819 185.791 161.264 185.597C161.725 185.394 162.096 185.079 162.378 184.653C162.663 184.215 162.884 183.726 163.042 183.188C163.146 182.816 163.237 182.44 163.315 182.061C163.421 181.51 163.446 180.982 163.391 180.474C163.339 179.954 163.153 179.504 162.833 179.125C162.53 178.736 162.041 178.459 161.367 178.296C160.732 178.142 160.178 178.166 159.704 178.366C159.243 178.57 158.859 178.882 158.551 179.301C158.26 179.71 158.043 180.152 157.901 180.625C157.838 180.829 157.772 181.074 157.703 181.359C157.633 181.644 157.579 181.898 157.538 182.122C157.441 182.578 157.436 183.05 157.524 183.538C157.625 184.029 157.841 184.466 158.174 184.848C158.506 185.231 158.977 185.496 159.586 185.643ZM170.336 189.916C169.351 189.678 168.574 189.29 168.004 188.754C167.434 188.218 167.055 187.577 166.865 186.832C166.679 186.073 166.67 185.261 166.838 184.397C166.878 184.173 166.94 183.893 167.021 183.556C167.106 183.206 167.18 182.929 167.243 182.725C167.493 181.866 167.872 181.149 168.382 180.573C168.905 180 169.543 179.606 170.295 179.39C171.047 179.175 171.909 179.185 172.881 179.42C173.852 179.656 174.623 180.042 175.193 180.578C175.763 181.114 176.142 181.755 176.332 182.5C176.535 183.249 176.55 184.062 176.379 184.94C176.341 185.15 176.28 185.431 176.195 185.78C176.114 186.117 176.04 186.394 175.973 186.611C175.727 187.457 175.347 188.175 174.834 188.764C174.324 189.34 173.693 189.736 172.941 189.951C172.189 190.167 171.321 190.155 170.336 189.916ZM170.699 188.42C171.502 188.614 172.205 188.517 172.807 188.128C173.412 187.726 173.853 187.037 174.131 186.062C174.191 185.871 174.257 185.626 174.329 185.328C174.402 185.03 174.455 184.782 174.489 184.585C174.689 183.59 174.61 182.783 174.254 182.161C173.9 181.526 173.321 181.112 172.518 180.917C171.714 180.722 171.004 180.824 170.386 181.223C169.784 181.612 169.35 182.296 169.086 183.275C169.026 183.466 168.959 183.711 168.887 184.009C168.815 184.307 168.762 184.554 168.728 184.752C168.515 185.743 168.585 186.556 168.939 187.19C169.309 187.815 169.895 188.225 170.699 188.42ZM176.802 191.278C176.685 191.25 176.594 191.2 176.529 191.13C176.477 191.062 176.463 190.976 176.488 190.873C176.504 190.808 176.557 190.732 176.647 190.644L181.115 186.726L179.217 181.739C179.201 181.693 179.191 181.65 179.187 181.608C179.187 181.553 179.19 181.512 179.196 181.486C179.221 181.383 179.272 181.313 179.35 181.277C179.44 181.244 179.543 181.241 179.66 181.27L180.671 181.515C180.8 181.546 180.898 181.597 180.963 181.668C181.028 181.739 181.082 181.827 181.125 181.934L182.807 186.457L184.284 186.815L185.188 183.083C185.22 182.954 185.284 182.859 185.38 182.801C185.493 182.732 185.614 182.713 185.744 182.745L186.638 182.961C186.781 182.996 186.88 183.068 186.935 183.178C186.994 183.274 187.008 183.387 186.977 183.517L186.072 187.249L187.491 187.593L191.096 184.351C191.17 184.273 191.252 184.217 191.342 184.184C191.446 184.154 191.556 184.154 191.672 184.182L192.702 184.432C192.819 184.46 192.903 184.508 192.956 184.575C193.021 184.646 193.041 184.733 193.016 184.837C193.009 184.863 192.987 184.898 192.949 184.944C192.926 184.98 192.897 185.014 192.862 185.046L188.91 188.616L191.088 194.145C191.121 194.235 191.127 194.326 191.105 194.416C191.08 194.52 191.029 194.59 190.951 194.626C190.874 194.662 190.77 194.664 190.641 194.633L189.475 194.35C189.345 194.319 189.241 194.266 189.163 194.192C189.098 194.122 189.05 194.035 189.02 193.932L187.172 189.162L185.695 188.804L184.743 192.73C184.712 192.859 184.646 192.96 184.546 193.032C184.45 193.091 184.33 193.103 184.188 193.069L183.294 192.852C183.164 192.82 183.063 192.755 182.991 192.655C182.936 192.546 182.923 192.426 182.955 192.296L183.907 188.37L182.43 188.012L178.563 191.396C178.502 191.478 178.42 191.533 178.317 191.563C178.227 191.596 178.117 191.597 177.987 191.565L176.802 191.278ZM195.683 196.061C195.035 195.904 194.477 195.632 194.009 195.244C193.54 194.856 193.197 194.402 192.98 193.883C192.763 193.364 192.722 192.826 192.857 192.269C193.074 191.375 193.61 190.75 194.464 190.394C195.318 190.039 196.349 189.919 197.556 190.033L200.551 190.327L200.688 189.763C200.839 189.141 200.775 188.611 200.497 188.173C200.232 187.739 199.698 187.424 198.895 187.229C198.311 187.088 197.81 187.09 197.391 187.235C196.984 187.384 196.666 187.622 196.435 187.95C196.311 188.126 196.151 188.19 195.957 188.143L195.082 187.931C194.939 187.896 194.839 187.831 194.78 187.734C194.737 187.628 194.73 187.516 194.758 187.399C194.805 187.205 194.934 186.983 195.146 186.732C195.371 186.485 195.672 186.263 196.048 186.066C196.425 185.869 196.876 185.738 197.399 185.673C197.939 185.598 198.558 185.645 199.258 185.815C200.035 186.004 200.665 186.266 201.146 186.602C201.63 186.925 201.98 187.291 202.196 187.7C202.426 188.113 202.553 188.548 202.579 189.007C202.618 189.47 202.584 189.921 202.477 190.362L200.951 196.659C200.919 196.789 200.847 196.888 200.734 196.957C200.638 197.015 200.525 197.029 200.395 196.998L199.501 196.781C199.359 196.746 199.258 196.681 199.199 196.584C199.143 196.475 199.131 196.355 199.162 196.226L199.365 195.39C199.14 195.582 198.857 195.76 198.515 195.925C198.177 196.076 197.775 196.177 197.309 196.229C196.847 196.268 196.305 196.212 195.683 196.061ZM196.445 194.702C196.976 194.831 197.489 194.839 197.983 194.725C198.48 194.599 198.91 194.326 199.272 193.906C199.647 193.49 199.923 192.918 200.099 192.193L200.231 191.648L197.896 191.432C196.945 191.339 196.198 191.391 195.656 191.589C195.117 191.774 194.792 192.1 194.678 192.566C194.59 192.929 194.62 193.259 194.768 193.555C194.932 193.842 195.161 194.083 195.457 194.278C195.766 194.476 196.095 194.618 196.445 194.702ZM209.934 199.31C209.792 199.276 209.691 199.21 209.632 199.114C209.576 199.004 209.564 198.884 209.595 198.755L210.363 195.587L208.128 195.045L208.152 194.948C206.934 194.652 206.099 194.134 205.647 193.394C205.212 192.643 205.107 191.802 205.333 190.869C205.597 189.78 206.11 189.054 206.87 188.689C207.644 188.328 208.678 188.305 209.974 188.619L213.317 189.429C213.447 189.461 213.54 189.531 213.595 189.641C213.667 189.74 213.687 189.855 213.656 189.985L211.422 199.198C211.391 199.327 211.319 199.427 211.206 199.495C211.11 199.554 210.997 199.568 210.867 199.536L209.934 199.31ZM203.773 197.817C203.656 197.788 203.568 197.726 203.509 197.629C203.45 197.533 203.433 197.433 203.459 197.329C203.471 197.277 203.49 197.227 203.516 197.178C203.557 197.12 203.612 197.064 203.679 197.012L206.822 194.152L208.655 194.74L205.282 197.874C205.214 197.926 205.127 197.973 205.021 198.016C204.914 198.059 204.809 198.068 204.706 198.043L203.773 197.817ZM208.54 193.601L210.736 194.134L211.603 190.557L209.562 190.062C208.837 189.886 208.268 189.886 207.855 190.06C207.458 190.225 207.182 190.631 207.024 191.279C206.896 191.81 206.944 192.288 207.171 192.713C207.41 193.142 207.866 193.438 208.54 193.601ZM215.477 197.238C215.348 197.207 215.247 197.141 215.175 197.041C215.119 196.932 215.107 196.812 215.139 196.683L217.438 187.197C217.47 187.068 217.534 186.973 217.63 186.915C217.743 186.846 217.864 186.827 217.994 186.859L218.907 187.08C219.037 187.112 219.129 187.182 219.185 187.292C219.244 187.388 219.258 187.501 219.226 187.631L216.927 197.116C216.895 197.246 216.83 197.346 216.73 197.418C216.633 197.477 216.52 197.491 216.391 197.459L215.477 197.238ZM214.52 200.422C214.391 200.391 214.29 200.325 214.218 200.225C214.162 200.116 214.15 199.996 214.181 199.867L214.478 198.642C214.513 198.5 214.578 198.399 214.675 198.34C214.788 198.271 214.909 198.253 215.038 198.284L216.282 198.586C216.412 198.617 216.505 198.688 216.56 198.797C216.632 198.897 216.651 199.018 216.616 199.16L216.32 200.385C216.288 200.515 216.216 200.614 216.103 200.682C216.007 200.741 215.894 200.755 215.764 200.724L214.52 200.422Z" fill="#2C2C2C"/>
<defs>
<filter id="filter0_d_455_52" x="123.894" y="136.807" width="80.3271" height="217.152" filterUnits="userSpaceOnUse" color-interpolation-filters="sRGB">
<feFlood flood-opacity="0" result="BackgroundImageFix"/>
<feColorMatrix in="SourceAlpha" type="matrix" values="0 0 0 0 0 0 0 0 0 0 0 0 0 0 0 0 0 0 127 0" result="hardAlpha"/>
<feOffset/>
<feGaussianBlur stdDeviation="2"/>
<feComposite in2="hardAlpha" operator="out"/>
<feColorMatrix type="matrix" values="0 0 0 0 0 0 0 0 0 0 0 0 0 0 0 0 0 0 0.25 0"/>
<feBlend mode="normal" in2="BackgroundImageFix" result="effect1_dropShadow_455_52"/>
<feBlend mode="normal" in="SourceGraphic" in2="effect1_dropShadow_455_52" result="shape"/>
</filter>
<filter id="filter1_d_455_52" x="75.3184" y="16.0969" width="236.97" height="236.97" filterUnits="userSpaceOnUse" color-interpolation-filters="sRGB">
<feFlood flood-opacity="0" result="BackgroundImageFix"/>
<feColorMatrix in="SourceAlpha" type="matrix" values="0 0 0 0 0 0 0 0 0 0 0 0 0 0 0 0 0 0 127 0" result="hardAlpha"/>
<feOffset/>
<feGaussianBlur stdDeviation="3.5"/>
<feComposite in2="hardAlpha" operator="out"/>
<feColorMatrix type="matrix" values="0 0 0 0 0 0 0 0 0 0 0 0 0 0 0 0 0 0 0.25 0"/>
<feBlend mode="normal" in2="BackgroundImageFix" result="effect1_dropShadow_455_52"/>
<feBlend mode="normal" in="SourceGraphic" in2="effect1_dropShadow_455_52" result="shape"/>
</filter>
<linearGradient id="paint0_linear_455_52" x1="171.576" y1="256.496" x2="148.102" y2="250.819" gradientUnits="userSpaceOnUse">
<stop/>
<stop offset="0.393319" stop-color="white" stop-opacity="0.27"/>
<stop offset="0.44729" stop-color="white" stop-opacity="0.55271"/>
<stop offset="1" stop-color="#060606" stop-opacity="0.55271"/>
</linearGradient>
<linearGradient id="paint1_linear_455_52" x1="179" y1="294.5" x2="169.819" y2="388.802" gradientUnits="userSpaceOnUse">
<stop stop-color="#FCDD76"/>
<stop offset="0.142543" stop-color="#FEE8A1"/>
<stop offset="0.671875" stop-color="#FFF1C4"/>
<stop offset="0.917694" stop-color="#FFF2C5"/>
</linearGradient>
</defs>
</svg>
