<svg width="358" height="149" viewBox="0 0 358 149" fill="none" xmlns="http://www.w3.org/2000/svg">
<path d="M22.315 22.978V36.922C22.315 41.404 24.3623 43.645 28.457 43.645C31.611 43.645 33.686 42.151 34.682 39.163C34.9587 38.2223 35.2907 37.586 35.678 37.254C36.1207 36.922 36.8123 36.756 37.753 36.756H54.685C55.183 36.756 55.598 36.9497 55.93 37.337C56.3173 37.669 56.511 38.084 56.511 38.582C56.511 43.396 55.1277 47.4353 52.361 50.7C47.2703 56.7867 39.33 59.83 28.54 59.83C20.074 59.83 13.3233 57.9763 8.288 54.269C3.25267 50.5063 0.735 44.7517 0.735 37.005L0.735 22.895C0.735 15.3143 3.308 9.615 8.454 5.797C13.6 1.979 20.2953 0.0699968 28.54 0.0699968C39.33 0.0699968 47.2703 3.11333 52.361 9.2C55.1277 12.4647 56.511 16.504 56.511 21.318C56.511 21.816 56.3173 22.2587 55.93 22.646C55.598 22.978 55.183 23.144 54.685 23.144H37.753C36.8677 23.144 36.2037 22.978 35.761 22.646C35.3737 22.314 35.014 21.6777 34.682 20.737C33.6307 17.749 31.5557 16.255 28.457 16.255C24.3623 16.255 22.315 18.496 22.315 22.978ZM66.3938 41.238H74.6938C77.4605 41.238 78.9822 40.8507 79.2588 40.076L59.9198 3.473C59.8645 3.307 59.8368 3.11333 59.8368 2.892C60.0582 1.564 60.7498 0.899996 61.9118 0.899996H79.2588C80.4208 0.899996 81.3062 1.564 81.9148 2.892L89.6338 19.243L95.7758 2.892C96.3292 1.564 97.2698 0.899996 98.5978 0.899996H115.779C116.277 0.899996 116.72 1.09366 117.107 1.481C117.494 1.813 117.688 2.20033 117.688 2.643C117.688 3.08567 117.66 3.36233 117.605 3.473L101.088 42.068C98.2105 48.8187 95.1672 53.3283 91.9578 55.597C88.8038 57.8657 83.7408 59 76.7688 59H66.3938C65.7852 59 65.2595 58.7787 64.8168 58.336C64.3742 57.8933 64.1528 57.3677 64.1528 56.759V43.479C64.1528 42.8703 64.3742 42.3447 64.8168 41.902C65.2595 41.4593 65.7852 41.238 66.3938 41.238ZM190.856 59H124.539C123.93 59 123.404 58.7787 122.962 58.336C122.519 57.8933 122.298 57.3677 122.298 56.759V3.141C122.298 2.477 122.519 1.95133 122.962 1.564C123.404 1.12133 123.93 0.899996 124.539 0.899996H139.977C140.585 0.899996 141.111 1.12133 141.554 1.564C141.996 2.00666 142.218 2.53233 142.218 3.141V40.74H148.609V3.141C148.609 2.53233 148.83 2.00666 149.273 1.564C149.715 1.12133 150.241 0.899996 150.85 0.899996H164.628C165.236 0.899996 165.762 1.12133 166.205 1.564C166.647 2.00666 166.869 2.53233 166.869 3.141V40.74H173.177V3.141C173.177 2.53233 173.398 2.00666 173.841 1.564C174.283 1.12133 174.809 0.899996 175.418 0.899996L190.856 0.899996C191.464 0.899996 191.99 1.12133 192.433 1.564C192.875 2.00666 193.097 2.53233 193.097 3.141V56.759C193.097 57.3677 192.875 57.8933 192.433 58.336C191.99 58.7787 191.464 59 190.856 59ZM257.04 56.261C257.206 56.5377 257.289 56.8973 257.289 57.34C257.289 57.7273 257.095 58.1147 256.708 58.502C256.376 58.834 255.961 59 255.463 59H236.539C234.934 59 233.8 58.3637 233.136 57.091L223.01 38.997V56.759C223.01 57.3677 222.788 57.8933 222.346 58.336C221.903 58.7787 221.377 59 220.769 59H204.916C204.307 59 203.781 58.7787 203.339 58.336C202.896 57.8933 202.675 57.3677 202.675 56.759V3.141C202.675 2.53233 202.896 2.00666 203.339 1.564C203.781 1.12133 204.307 0.899996 204.916 0.899996H220.769C221.377 0.899996 221.903 1.12133 222.346 1.564C222.788 2.00666 223.01 2.53233 223.01 3.141V19.575L232.389 2.726C232.997 1.50866 234.104 0.899996 235.709 0.899996H254.052C254.55 0.899996 254.965 1.09366 255.297 1.481C255.684 1.813 255.878 2.20033 255.878 2.643C255.878 3.03033 255.795 3.36233 255.629 3.639L240.689 28.705L257.04 56.261ZM280.479 0.899996H298.49C300.482 0.899996 301.727 1.813 302.225 3.639L320.734 56.593C320.789 56.759 320.817 57.0357 320.817 57.423C320.817 57.755 320.623 58.1147 320.236 58.502C319.904 58.834 319.489 59 318.991 59H303.636C301.976 59 300.897 58.3083 300.399 56.925L298.407 51.447H280.562L278.57 56.925C278.072 58.3083 276.993 59 275.333 59H259.978C259.48 59 259.037 58.834 258.65 58.502C258.318 58.1147 258.152 57.755 258.152 57.423C258.152 57.0357 258.179 56.759 258.235 56.593L276.744 3.639C277.242 1.813 278.487 0.899996 280.479 0.899996ZM284.795 35.262H294.174L289.443 19.824L284.795 35.262ZM326.391 22.895H355.69C356.298 22.895 356.824 23.1163 357.267 23.559C357.709 24.0017 357.931 24.5273 357.931 25.136V36.922C357.931 37.5307 357.709 38.0563 357.267 38.499C356.824 38.9417 356.298 39.163 355.69 39.163H326.391C325.782 39.163 325.256 38.9417 324.814 38.499C324.371 38.0563 324.15 37.5307 324.15 36.922V25.136C324.15 24.5273 324.371 24.0017 324.814 23.559C325.256 23.1163 325.782 22.895 326.391 22.895ZM4.636 90.9H55.1C55.7087 90.9 56.2343 91.1213 56.677 91.564C57.1197 92.0067 57.341 92.5323 57.341 93.141V146.759C57.341 147.368 57.1197 147.893 56.677 148.336C56.2343 148.779 55.7087 149 55.1 149H38.832C38.2233 149 37.6977 148.779 37.255 148.336C36.8123 147.893 36.591 147.368 36.591 146.759V109.16H23.145L23.145 146.759C23.145 147.368 22.9237 147.893 22.481 148.336C22.0383 148.779 21.5127 149 20.904 149H4.636C4.02733 149 3.50167 148.806 3.059 148.419C2.61633 147.976 2.395 147.423 2.395 146.759V93.141C2.395 92.5323 2.61633 92.0067 3.059 91.564C3.50167 91.1213 4.02733 90.9 4.636 90.9ZM70.1223 131.238H78.4223C81.189 131.238 82.7107 130.851 82.9873 130.076L63.6483 93.473C63.593 93.307 63.5653 93.1133 63.5653 92.892C63.7867 91.564 64.4783 90.9 65.6403 90.9H82.9873C84.1493 90.9 85.0347 91.564 85.6433 92.892L93.3623 109.243L99.5044 92.892C100.058 91.564 100.998 90.9 102.326 90.9H119.507C120.005 90.9 120.448 91.0937 120.835 91.481C121.223 91.813 121.416 92.2003 121.416 92.643C121.416 93.0857 121.389 93.3623 121.333 93.473L104.816 132.068C101.939 138.819 98.8957 143.328 95.6864 145.597C92.5324 147.866 87.4694 149 80.4974 149H70.1223C69.5137 149 68.988 148.779 68.5453 148.336C68.1027 147.893 67.8813 147.368 67.8813 146.759V133.479C67.8813 132.87 68.1027 132.345 68.5453 131.902C68.988 131.459 69.5137 131.238 70.1223 131.238ZM194.584 149H128.267C127.658 149 127.133 148.779 126.69 148.336C126.247 147.893 126.026 147.368 126.026 146.759V93.141C126.026 92.477 126.247 91.9513 126.69 91.564C127.133 91.1213 127.658 90.9 128.267 90.9H143.705C144.314 90.9 144.839 91.1213 145.282 91.564C145.725 92.0067 145.946 92.5323 145.946 93.141V130.74H152.337V93.141C152.337 92.5323 152.558 92.0067 153.001 91.564C153.444 91.1213 153.969 90.9 154.578 90.9H168.356C168.965 90.9 169.49 91.1213 169.933 91.564C170.376 92.0067 170.597 92.5323 170.597 93.141V130.74H176.905V93.141C176.905 92.5323 177.126 92.0067 177.569 91.564C178.012 91.1213 178.537 90.9 179.146 90.9H194.584C195.193 90.9 195.718 91.1213 196.161 91.564C196.604 92.0067 196.825 92.5323 196.825 93.141V146.759C196.825 147.368 196.604 147.893 196.161 148.336C195.718 148.779 195.193 149 194.584 149ZM260.768 146.261C260.934 146.538 261.017 146.897 261.017 147.34C261.017 147.727 260.824 148.115 260.436 148.502C260.104 148.834 259.689 149 259.191 149H240.267C238.662 149 237.528 148.364 236.864 147.091L226.738 128.997V146.759C226.738 147.368 226.517 147.893 226.074 148.336C225.631 148.779 225.106 149 224.497 149H208.644C208.035 149 207.51 148.779 207.067 148.336C206.624 147.893 206.403 147.368 206.403 146.759V93.141C206.403 92.5323 206.624 92.0067 207.067 91.564C207.51 91.1213 208.035 90.9 208.644 90.9H224.497C225.106 90.9 225.631 91.1213 226.074 91.564C226.517 92.0067 226.738 92.5323 226.738 93.141V109.575L236.117 92.726C236.726 91.5087 237.832 90.9 239.437 90.9H257.78C258.278 90.9 258.693 91.0937 259.025 91.481C259.413 91.813 259.606 92.2003 259.606 92.643C259.606 93.0303 259.523 93.3623 259.357 93.639L244.417 118.705L260.768 146.261ZM284.207 90.9H302.218C304.21 90.9 305.455 91.813 305.953 93.639L324.462 146.593C324.518 146.759 324.545 147.036 324.545 147.423C324.545 147.755 324.352 148.115 323.964 148.502C323.632 148.834 323.217 149 322.719 149H307.364C305.704 149 304.625 148.308 304.127 146.925L302.135 141.447H284.29L282.298 146.925C281.8 148.308 280.721 149 279.061 149H263.706C263.208 149 262.766 148.834 262.378 148.502C262.046 148.115 261.88 147.755 261.88 147.423C261.88 147.036 261.908 146.759 261.963 146.593L280.472 93.639C280.97 91.813 282.215 90.9 284.207 90.9ZM288.523 125.262H297.902L293.171 109.824L288.523 125.262ZM331.364 130.076H345.806C346.415 130.076 346.941 130.297 347.383 130.74C347.826 131.183 348.047 131.708 348.047 132.317V146.759C348.047 147.368 347.826 147.893 347.383 148.336C346.941 148.779 346.415 149 345.806 149H331.364C330.756 149 330.23 148.779 329.787 148.336C329.345 147.893 329.123 147.368 329.123 146.759V132.317C329.123 131.708 329.345 131.183 329.787 130.74C330.23 130.297 330.756 130.076 331.364 130.076ZM331.364 90.9H345.806C346.415 90.9 346.941 91.1213 347.383 91.564C347.826 92.0067 348.047 92.5323 348.047 93.141V124.515C348.047 125.124 347.826 125.649 347.383 126.092C346.941 126.535 346.415 126.756 345.806 126.756H331.364C330.756 126.756 330.23 126.535 329.787 126.092C329.345 125.649 329.123 125.124 329.123 124.515V93.141C329.123 92.5323 329.345 92.0067 329.787 91.564C330.23 91.1213 330.756 90.9 331.364 90.9Z" fill="white"/>
<path d="M34.682 39.163L42.2715 41.6928L42.3166 41.5573L42.3569 41.4203L34.682 39.163ZM35.678 37.254L30.878 30.854L30.6695 31.0103L30.4717 31.18L35.678 37.254ZM55.93 37.337L49.8559 42.5433L50.2564 43.0106L50.7237 43.411L55.93 37.337ZM52.361 50.7L46.2578 45.5278L46.2411 45.5476L46.2244 45.5676L52.361 50.7ZM8.288 54.269L3.49928 60.6774L3.52199 60.6944L3.54482 60.7112L8.288 54.269ZM8.454 5.797L13.2208 12.2218H13.2208L8.454 5.797ZM52.361 9.2L46.2244 14.3324L46.241 14.3524L46.2578 14.3722L52.361 9.2ZM55.93 22.646L50.2731 16.9892V16.9892L55.93 22.646ZM35.761 22.646L30.5547 28.72L30.7525 28.8896L30.961 29.046L35.761 22.646ZM34.682 20.737L27.1355 23.3922L27.1381 23.3996L34.682 20.737ZM14.315 22.978V36.922H30.315V22.978H14.315ZM14.315 36.922C14.315 40.2261 15.0542 44.1968 17.9442 47.3601C20.9593 50.6605 24.981 51.645 28.457 51.645V35.645C28.142 35.645 28.2107 35.5995 28.512 35.7094C28.8588 35.836 29.3339 36.1054 29.7568 36.5684C30.5994 37.4907 30.315 38.0999 30.315 36.922H14.315ZM28.457 51.645C31.3142 51.645 34.3636 50.9533 37.0532 49.0168C39.7437 47.0796 41.3671 44.4058 42.2715 41.6928L27.0925 36.6332C27.0426 36.7831 27.0352 36.7451 27.1332 36.602C27.2394 36.4471 27.4265 36.2323 27.7043 36.0322C27.9821 35.8322 28.2441 35.7236 28.4224 35.6727C28.5869 35.6257 28.618 35.645 28.457 35.645V51.645ZM42.3569 41.4203C42.3978 41.2813 42.3749 41.4054 42.2312 41.6808C42.1031 41.9262 41.7112 42.6193 40.8843 43.328L30.4717 31.18C28.2472 33.0866 27.382 35.6308 27.0071 36.9057L42.3569 41.4203ZM40.478 43.654C39.615 44.3013 38.8207 44.5576 38.3957 44.6596C38.1726 44.7132 38.003 44.736 37.9036 44.7461C37.8522 44.7513 37.8137 44.7537 37.7895 44.7549C37.7772 44.7554 37.768 44.7557 37.762 44.7559C37.759 44.7559 37.7567 44.756 37.7553 44.756C37.7538 44.756 37.753 44.756 37.753 44.756V28.756C36.1747 28.756 33.3797 28.9777 30.878 30.854L40.478 43.654ZM37.753 44.756H54.685V28.756H37.753V44.756ZM54.685 44.756C53.8687 44.756 52.9285 44.5903 51.9867 44.1507C51.0499 43.7136 50.3463 43.1154 49.8559 42.5433L62.0041 32.1307C60.1948 30.0199 57.5831 28.756 54.685 28.756V44.756ZM50.7237 43.411C50.1516 42.9207 49.5534 42.2171 49.1163 41.2803C48.6767 40.3384 48.511 39.3983 48.511 38.582H64.511C64.511 35.6839 63.2471 33.0722 61.1363 31.263L50.7237 43.411ZM48.511 38.582C48.511 41.7539 47.6461 43.8897 46.2578 45.5278L58.4642 55.8722C62.6092 50.981 64.511 45.0381 64.511 38.582H48.511ZM46.2244 45.5676C43.1497 49.2438 37.8612 51.83 28.54 51.83V67.83C40.7988 67.83 51.391 64.3295 58.4976 55.8324L46.2244 45.5676ZM28.54 51.83C21.1854 51.83 16.2797 50.2185 13.0312 47.8268L3.54482 60.7112C10.367 65.7341 18.9626 67.83 28.54 67.83V51.83ZM13.0767 47.8606C10.5344 45.9608 8.735 42.8825 8.735 37.005H-7.265C-7.265 46.6208 -4.02911 55.0518 3.49928 60.6774L13.0767 47.8606ZM8.735 37.005V22.895H-7.265V37.005H8.735ZM8.735 22.895C8.735 17.3224 10.4961 14.2433 13.2208 12.2218L3.68723 -0.627787C-3.88012 4.9867 -7.265 13.3062 -7.265 22.895H8.735ZM13.2208 12.2218C16.638 9.68644 21.518 8.07 28.54 8.07V-7.93C19.0727 -7.93 10.562 -5.72845 3.68723 -0.627787L13.2208 12.2218ZM28.54 8.07C37.8612 8.07 43.1497 10.6562 46.2244 14.3324L58.4976 4.06756C51.391 -4.42949 40.7988 -7.93 28.54 -7.93V8.07ZM46.2578 14.3722C47.6461 16.0103 48.511 18.1461 48.511 21.318H64.511C64.511 14.8619 62.6092 8.91899 58.4642 4.02783L46.2578 14.3722ZM48.511 21.318C48.511 20.498 48.6772 19.6381 49.0365 18.817C49.3893 18.0105 49.855 17.4073 50.2731 16.9892L61.5869 28.3028C63.3098 26.58 64.511 24.1599 64.511 21.318H48.511ZM50.2731 16.9892C50.8339 16.4284 51.5498 15.9312 52.3986 15.5917C53.2381 15.2559 54.0323 15.144 54.685 15.144V31.144C57.1619 31.144 59.6565 30.2332 61.5869 28.3028L50.2731 16.9892ZM54.685 15.144H37.753V31.144H54.685V15.144ZM37.753 15.144C37.7843 15.144 38.075 15.1443 38.5313 15.2584C38.996 15.3745 39.753 15.64 40.561 16.246L30.961 29.046C33.3988 30.8744 36.0984 31.144 37.753 31.144V15.144ZM40.9673 16.572C41.7134 17.2115 42.0689 17.8128 42.1653 17.9833C42.2812 18.1885 42.2883 18.2513 42.2259 18.0744L27.1381 23.3996C27.569 24.6206 28.4967 26.9561 30.5547 28.72L40.9673 16.572ZM42.2285 18.0817C41.291 15.4171 39.6637 12.7927 37.0117 10.8832C34.3452 8.96337 31.3213 8.255 28.457 8.255V24.255C28.5914 24.255 28.5434 24.2713 28.3696 24.2211C28.1828 24.1671 27.9268 24.0578 27.6628 23.8678C27.0858 23.4523 27.0217 23.0689 27.1355 23.3922L42.2285 18.0817ZM28.457 8.255C24.981 8.255 20.9593 9.23953 17.9442 12.5399C15.0542 15.7032 14.315 19.6739 14.315 22.978H30.315C30.315 21.8001 30.5994 22.4093 29.7568 23.3316C29.3339 23.7946 28.8588 24.064 28.512 24.1906C28.2107 24.3005 28.142 24.255 28.457 24.255V8.255ZM79.2588 40.076L86.7928 42.7667L87.9768 39.4514L86.3323 36.3388L79.2588 40.076ZM59.9198 3.473L52.3304 6.0028L52.5387 6.62775L52.8464 7.2102L59.9198 3.473ZM59.8368 2.892L51.9457 1.5768L51.8368 2.22989V2.892H59.8368ZM81.9148 2.892L74.6423 6.22523L74.6612 6.26633L74.6805 6.30721L81.9148 2.892ZM89.6338 19.243L82.3995 22.6582L90.4728 39.7598L97.1229 22.0562L89.6338 19.243ZM95.7758 2.892L88.3912 -0.184927L88.3367 -0.0539684L88.2868 0.0788412L95.7758 2.892ZM117.107 1.481L111.45 7.13785L111.667 7.35511L111.901 7.55507L117.107 1.481ZM117.605 3.473L110.45 -0.104882L110.343 0.107332L110.25 0.325461L117.605 3.473ZM101.088 42.068L93.733 38.9205L93.7285 38.9312L101.088 42.068ZM91.9578 55.597L87.34 49.0644L87.3131 49.0834L87.2864 49.1026L91.9578 55.597ZM64.8168 58.336L59.16 63.9929H59.16L64.8168 58.336ZM64.8168 41.902L59.16 36.2451L59.16 36.2451L64.8168 41.902ZM66.3938 49.238H74.6938V33.238H66.3938V49.238ZM74.6938 49.238C76.3202 49.238 78.1675 49.1371 79.8835 48.7003C81.0048 48.4148 85.1954 47.2394 86.7928 42.7667L71.7249 37.3853C72.4048 35.4815 73.6701 34.3859 74.4762 33.865C75.234 33.3754 75.8317 33.2214 75.9367 33.1947C76.131 33.1452 75.8342 33.238 74.6938 33.238V49.238ZM86.3323 36.3388L66.9933 -0.264207L52.8464 7.2102L72.1854 43.8132L86.3323 36.3388ZM67.5093 0.943191C67.7869 1.77608 67.8368 2.47053 67.8368 2.892L51.8368 2.892C51.8368 3.75612 51.9421 4.83791 52.3304 6.0028L67.5093 0.943191ZM67.728 4.20719C67.6669 4.57378 67.3726 5.91075 66.0618 7.1691C64.6137 8.55933 62.932 8.9 61.9118 8.9V-7.1C59.7297 -7.1 57.1212 -6.42734 54.9813 -4.3731C52.9789 -2.45076 52.2281 -0.117786 51.9457 1.5768L67.728 4.20719ZM61.9118 8.9H79.2588V-7.1H61.9118V8.9ZM79.2588 8.9C78.2014 8.9 77.0087 8.55875 75.9943 7.798C75.083 7.11451 74.722 6.39907 74.6423 6.22523L89.1874 -0.441246C88.499 -1.94308 87.391 -3.65452 85.5943 -5.00201C83.6947 -6.42676 81.4783 -7.1 79.2588 -7.1V8.9ZM74.6805 6.30721L82.3995 22.6582L96.8682 15.8278L89.1492 -0.523221L74.6805 6.30721ZM97.1229 22.0562L103.265 5.70515L88.2868 0.0788412L82.1448 16.4298L97.1229 22.0562ZM103.16 5.96892C103.002 6.35022 102.544 7.20355 101.51 7.93374C100.431 8.69515 99.3241 8.9 98.5978 8.9V-7.1C96.5436 -7.1 94.3022 -6.56315 92.2829 -5.13775C90.3078 -3.74356 89.1034 -1.89423 88.3912 -0.184927L103.16 5.96892ZM98.5978 8.9H115.779V-7.1H98.5978V8.9ZM115.779 8.9C114.959 8.9 114.099 8.73374 113.278 8.3745C112.471 8.02168 111.868 7.55596 111.45 7.13785L122.764 -4.17586C121.041 -5.89872 118.621 -7.1 115.779 -7.1V8.9ZM111.901 7.55507C111.427 7.14882 110.844 6.51232 110.387 5.59822C109.916 4.65577 109.688 3.63507 109.688 2.643H125.688C125.688 -0.503789 124.173 -2.99878 122.313 -4.59307L111.901 7.55507ZM109.688 2.643C109.688 2.73404 109.683 2.61987 109.707 2.38643C109.719 2.26781 109.748 2.01442 109.819 1.68256C109.876 1.41533 110.037 0.720023 110.45 -0.104882L124.76 7.05088C125.5 5.57216 125.607 4.17852 125.627 3.97857C125.678 3.46846 125.688 2.99462 125.688 2.643H109.688ZM110.25 0.325461L93.733 38.9205L108.443 45.2155L124.96 6.62053L110.25 0.325461ZM93.7285 38.9312C91.0051 45.3206 88.6816 48.1159 87.34 49.0644L96.5757 62.1296C101.653 58.5407 105.416 52.3167 108.447 45.2048L93.7285 38.9312ZM87.2864 49.1026C86.2057 49.8799 83.2321 51 76.7688 51V67C84.2496 67 91.4019 65.8514 96.6293 62.0914L87.2864 49.1026ZM76.7688 51H66.3938V67H76.7688V51ZM66.3938 51C67.0832 51 67.863 51.1306 68.6475 51.4609C69.4277 51.7894 70.0349 52.2404 70.4737 52.6791L59.16 63.9929C61.0551 65.8879 63.5967 67 66.3938 67V51ZM70.4737 52.6791C70.9125 53.1179 71.3634 53.7252 71.6919 54.5053C72.0223 55.2899 72.1528 56.0696 72.1528 56.759H56.1528C56.1528 59.5562 57.2649 62.0978 59.16 63.9929L70.4737 52.6791ZM72.1528 56.759V43.479H56.1528V56.759H72.1528ZM72.1528 43.479C72.1528 44.1684 72.0223 44.9481 71.6919 45.7327C71.3634 46.5128 70.9125 47.1201 70.4737 47.5588L59.16 36.2451C57.2649 38.1402 56.1528 40.6818 56.1528 43.479H72.1528ZM70.4737 47.5589C70.0349 47.9976 69.4277 48.4486 68.6475 48.7771C67.863 49.1074 67.0832 49.238 66.3938 49.238V33.238C63.5967 33.238 61.0551 34.3501 59.16 36.2451L70.4737 47.5589ZM122.962 58.336L128.618 52.6791L122.962 58.336ZM122.962 1.564L128.23 7.58462L128.43 7.40921L128.618 7.22084L122.962 1.564ZM141.554 1.564L147.21 -4.09285L147.21 -4.09286L141.554 1.564ZM142.218 40.74H134.218V48.74H142.218V40.74ZM148.609 40.74V48.74H156.609V40.74H148.609ZM149.273 1.564L143.616 -4.09286V-4.09285L149.273 1.564ZM166.869 40.74H158.869V48.74H166.869V40.74ZM173.177 40.74V48.74H181.177V40.74H173.177ZM173.841 1.564L179.497 7.22085L179.497 7.22083L173.841 1.564ZM192.433 1.564L186.776 7.22083L186.776 7.22085L192.433 1.564ZM192.433 58.336L186.776 52.6791L186.776 52.6792L192.433 58.336ZM190.856 51H124.539V67H190.856V51ZM124.539 51C125.228 51 126.008 51.1306 126.792 51.4609C127.572 51.7894 128.18 52.2404 128.618 52.6791L117.305 63.9929C119.2 65.8879 121.741 67 124.539 67V51ZM128.618 52.6791C129.057 53.1179 129.508 53.7252 129.837 54.5053C130.167 55.2899 130.298 56.0696 130.298 56.759H114.298C114.298 59.5562 115.41 62.0978 117.305 63.9929L128.618 52.6791ZM130.298 56.759V3.141H114.298V56.759H130.298ZM130.298 3.141C130.298 3.70225 130.202 4.48554 129.837 5.3532C129.461 6.24516 128.893 7.00441 128.23 7.58462L117.694 -4.45663C115.28 -2.34481 114.298 0.501452 114.298 3.141H130.298ZM128.618 7.22084C128.18 7.65962 127.572 8.1106 126.792 8.43908C126.008 8.76943 125.228 8.9 124.539 8.9V-7.1C121.741 -7.1 119.2 -5.98794 117.305 -4.09285L128.618 7.22084ZM124.539 8.9L139.977 8.9V-7.1H124.539V8.9ZM139.977 8.9C139.287 8.9 138.507 8.76943 137.723 8.43908C136.943 8.1106 136.335 7.65963 135.897 7.22085L147.21 -4.09286C145.315 -5.98793 142.774 -7.1 139.977 -7.1V8.9ZM135.897 7.22084C135.458 6.78207 135.007 6.17483 134.678 5.3947C134.348 4.61011 134.218 3.83037 134.218 3.141H150.218C150.218 0.343839 149.106 -2.19777 147.21 -4.09285L135.897 7.22084ZM134.218 3.141V40.74H150.218V3.141H134.218ZM142.218 48.74H148.609V32.74H142.218V48.74ZM156.609 40.74V3.141H140.609V40.74H156.609ZM156.609 3.141C156.609 3.83037 156.478 4.61011 156.148 5.3947C155.819 6.17483 155.368 6.78207 154.929 7.22084L143.616 -4.09285C141.721 -2.19777 140.609 0.343839 140.609 3.141H156.609ZM154.929 7.22085C154.491 7.65963 153.883 8.1106 153.103 8.43908C152.319 8.76943 151.539 8.9 150.85 8.9V-7.1C148.052 -7.1 145.511 -5.98793 143.616 -4.09286L154.929 7.22085ZM150.85 8.9H164.628V-7.1L150.85 -7.1V8.9ZM164.628 8.9C163.938 8.9 163.158 8.76943 162.374 8.43908C161.594 8.1106 160.986 7.65963 160.548 7.22085L171.861 -4.09286C169.966 -5.98793 167.425 -7.1 164.628 -7.1V8.9ZM160.548 7.22085C160.109 6.78208 159.658 6.17484 159.329 5.39471C158.999 4.61012 158.869 3.83038 158.869 3.141H174.869C174.869 0.343829 173.757 -2.19778 171.861 -4.09286L160.548 7.22085ZM158.869 3.141V40.74H174.869V3.141H158.869ZM166.869 48.74H173.177V32.74H166.869V48.74ZM181.177 40.74V3.141H165.177V40.74H181.177ZM181.177 3.141C181.177 3.83038 181.046 4.61012 180.716 5.39471C180.387 6.17484 179.936 6.78208 179.497 7.22085L168.184 -4.09286C166.289 -2.19778 165.177 0.343829 165.177 3.141H181.177ZM179.497 7.22083C179.059 7.65962 178.451 8.1106 177.671 8.43908C176.887 8.76944 176.107 8.9 175.418 8.9V-7.1C172.62 -7.1 170.079 -5.98794 168.184 -4.09284L179.497 7.22083ZM175.418 8.9H190.856V-7.1H175.418V8.9ZM190.856 8.9C190.166 8.9 189.386 8.76944 188.602 8.43908C187.822 8.1106 187.214 7.65962 186.776 7.22083L198.089 -4.09284C196.194 -5.98794 193.653 -7.1 190.856 -7.1V8.9ZM186.776 7.22085C186.337 6.78208 185.886 6.17484 185.558 5.39471C185.227 4.61012 185.097 3.83038 185.097 3.141L201.097 3.141C201.097 0.343829 199.985 -2.19778 198.089 -4.09286L186.776 7.22085ZM185.097 3.141V56.759H201.097V3.141L185.097 3.141ZM185.097 56.759C185.097 56.0696 185.227 55.2899 185.557 54.5053C185.886 53.7252 186.337 53.1179 186.776 52.6791L198.089 63.9929C199.985 62.0978 201.097 59.5562 201.097 56.759H185.097ZM186.776 52.6792C187.214 52.2404 187.822 51.7894 188.602 51.4609C189.386 51.1306 190.166 51 190.856 51V67C193.653 67 196.194 65.8879 198.089 63.9928L186.776 52.6792ZM257.04 56.261L250.16 60.3434L250.17 60.3602L250.18 60.377L257.04 56.261ZM256.708 58.502L251.051 52.8451L251.051 52.8452L256.708 58.502ZM233.136 57.091L240.228 53.3905L240.174 53.2865L240.117 53.1841L233.136 57.091ZM223.01 38.997L229.991 35.0901L215.01 8.32055V38.997H223.01ZM222.346 58.336L228.003 63.9929V63.9929L222.346 58.336ZM203.339 58.336L208.995 52.6791L203.339 58.336ZM203.339 1.564L208.996 7.22085V7.22084L203.339 1.564ZM222.346 1.564L228.003 -4.09285L228.003 -4.09286L222.346 1.564ZM223.01 19.575H215.01V50.3949L230 23.466L223.01 19.575ZM232.389 2.726L239.379 6.61699L239.465 6.46218L239.544 6.30371L232.389 2.726ZM255.297 1.481L249.223 6.68734L249.623 7.15457L250.09 7.55505L255.297 1.481ZM255.629 3.639L248.769 -0.476995L248.763 -0.466944L248.757 -0.456875L255.629 3.639ZM240.689 28.705L233.817 24.6091L231.381 28.6959L233.809 32.7874L240.689 28.705ZM250.18 60.377C249.372 59.0307 249.289 57.8293 249.289 57.34H265.289C265.289 55.9654 265.039 54.0446 263.9 52.145L250.18 60.377ZM249.289 57.34C249.289 54.8573 250.566 53.3298 251.051 52.8451L262.365 64.1589C263.624 62.8996 265.289 60.5974 265.289 57.34H249.289ZM251.051 52.8452C251.612 52.2844 252.327 51.7872 253.176 51.4477C254.016 51.1119 254.81 51 255.463 51V67C257.94 67 260.434 66.0892 262.365 64.1588L251.051 52.8452ZM255.463 51L236.539 51V67H255.463V51ZM236.539 51C236.79 51 237.521 51.0534 238.398 51.5456C239.325 52.0656 239.919 52.7974 240.228 53.3905L226.043 60.7915C227.016 62.6573 228.509 64.3435 230.57 65.4999C232.582 66.6284 234.683 67 236.539 67V51ZM240.117 53.1841L229.991 35.0901L216.029 42.9039L226.155 60.9979L240.117 53.1841ZM215.01 38.997V56.759H231.01V38.997H215.01ZM215.01 56.759C215.01 56.0696 215.14 55.2899 215.471 54.5053C215.799 53.7252 216.25 53.1179 216.689 52.6792L228.003 63.9929C229.898 62.0978 231.01 59.5562 231.01 56.759H215.01ZM216.689 52.6791C217.128 52.2404 217.735 51.7894 218.515 51.4609C219.3 51.1306 220.079 51 220.769 51V67C223.566 67 226.107 65.8879 228.003 63.9929L216.689 52.6791ZM220.769 51H204.916V67H220.769V51ZM204.916 51C205.605 51 206.385 51.1306 207.169 51.4609C207.949 51.7894 208.557 52.2404 208.995 52.6791L197.682 63.9929C199.577 65.8879 202.118 67 204.916 67V51ZM208.995 52.6791C209.434 53.1179 209.885 53.7252 210.214 54.5053C210.544 55.2899 210.675 56.0696 210.675 56.759H194.675C194.675 59.5562 195.787 62.0978 197.682 63.9929L208.995 52.6791ZM210.675 56.759V3.141H194.675V56.759H210.675ZM210.675 3.141C210.675 3.83037 210.544 4.61011 210.214 5.3947C209.885 6.17484 209.434 6.78207 208.996 7.22085L197.682 -4.09285C195.787 -2.19777 194.675 0.343834 194.675 3.141H210.675ZM208.996 7.22084C208.557 7.65962 207.949 8.1106 207.169 8.43908C206.385 8.76943 205.605 8.9 204.916 8.9V-7.1C202.118 -7.1 199.577 -5.98794 197.682 -4.09285L208.996 7.22084ZM204.916 8.9H220.769V-7.1H204.916V8.9ZM220.769 8.9C220.079 8.9 219.3 8.76943 218.515 8.43908C217.735 8.1106 217.128 7.65963 216.689 7.22085L228.003 -4.09286C226.107 -5.98793 223.566 -7.1 220.769 -7.1V8.9ZM216.689 7.22084C216.25 6.78207 215.799 6.17483 215.471 5.3947C215.14 4.61011 215.01 3.83037 215.01 3.141H231.01C231.01 0.343839 229.898 -2.19777 228.003 -4.09285L216.689 7.22084ZM215.01 3.141V19.575H231.01V3.141H215.01ZM230 23.466L239.379 6.61699L225.399 -1.16499L216.02 15.684L230 23.466ZM239.544 6.30371C239.181 7.02895 238.512 7.82648 237.531 8.36622C236.625 8.8642 235.897 8.9 235.709 8.9V-7.1C233.915 -7.1 231.832 -6.75987 229.82 -5.65323C227.732 -4.50482 226.205 -2.79429 225.233 -0.851711L239.544 6.30371ZM235.709 8.9H254.052V-7.1H235.709V8.9ZM254.052 8.9C253.235 8.9 252.295 8.73425 251.353 8.29471C250.417 7.85756 249.713 7.25944 249.223 6.68734L261.371 -3.72534C259.561 -5.83613 256.95 -7.1 254.052 -7.1V8.9ZM250.09 7.55505C249.616 7.14879 249.034 6.51229 248.577 5.59819C248.106 4.65575 247.878 3.63505 247.878 2.643H263.878C263.878 -0.503762 262.363 -2.99875 260.503 -4.59305L250.09 7.55505ZM247.878 2.643C247.878 1.87232 248.052 0.718198 248.769 -0.476995L262.489 7.75499C263.538 6.00646 263.878 4.18834 263.878 2.643H247.878ZM248.757 -0.456875L233.817 24.6091L247.561 32.8009L262.501 7.73487L248.757 -0.456875ZM233.809 32.7874L250.16 60.3434L263.92 52.1786L247.569 24.6226L233.809 32.7874ZM302.225 3.639L294.507 5.74394L294.58 6.01419L294.673 6.27864L302.225 3.639ZM320.734 56.593L328.323 54.0632L328.305 54.0081L328.286 53.9534L320.734 56.593ZM320.236 58.502L314.579 52.8451V52.8452L320.236 58.502ZM300.399 56.925L307.926 54.2152L307.921 54.2031L307.917 54.191L300.399 56.925ZM298.407 51.447L305.925 48.7131L304.01 43.447H298.407V51.447ZM280.562 51.447V43.447H274.958L273.043 48.7131L280.562 51.447ZM278.57 56.925L271.051 54.1911L271.047 54.2031L271.043 54.2152L278.57 56.925ZM258.65 58.502L252.576 63.7083L252.976 64.1756L253.443 64.576L258.65 58.502ZM258.235 56.593L250.683 53.9534L250.664 54.0081L250.645 54.0632L258.235 56.593ZM276.744 3.639L284.296 6.27864L284.388 6.01419L284.462 5.74394L276.744 3.639ZM284.795 35.262L277.134 32.9557L274.031 43.262H284.795V35.262ZM294.174 35.262V43.262H304.993L301.823 32.918L294.174 35.262ZM289.443 19.824L297.092 17.48L289.375 -7.70062L281.782 17.5177L289.443 19.824ZM280.479 8.9H298.49V-7.1L280.479 -7.1V8.9ZM298.49 8.9C298.279 8.9 297.288 8.84343 296.187 8.03598C295.044 7.19841 294.623 6.17011 294.507 5.74394L309.943 1.53405C309.329 -0.718124 308.036 -3.11592 305.648 -4.86649C303.302 -6.58693 300.693 -7.1 298.49 -7.1V8.9ZM294.673 6.27864L313.182 59.2326L328.286 53.9534L309.777 0.999355L294.673 6.27864ZM313.144 59.1228C313.016 58.7376 312.946 58.4191 312.907 58.2125C312.867 57.9985 312.846 57.8289 312.836 57.721C312.815 57.5149 312.817 57.4005 312.817 57.423H328.817C328.817 56.9615 328.82 55.5537 328.323 54.0632L313.144 59.1228ZM312.817 57.423C312.817 55.9935 313.24 54.8696 313.628 54.1489C314.001 53.4551 314.397 53.0272 314.579 52.8451L325.893 64.1589C326.854 63.1973 328.817 60.9009 328.817 57.423H312.817ZM314.579 52.8452C315.14 52.2844 315.855 51.7872 316.704 51.4477C317.544 51.1119 318.338 51 318.991 51V67C321.468 67 323.962 66.0892 325.893 64.1588L314.579 52.8452ZM318.991 51H303.636V67H318.991V51ZM303.636 51C303.891 51 304.82 51.0547 305.899 51.7462C307.057 52.4885 307.67 53.5034 307.926 54.2152L292.872 59.6348C293.626 61.7299 295.027 63.7823 297.264 65.2163C299.422 66.5994 301.721 67 303.636 67V51ZM307.917 54.191L305.925 48.7131L290.888 54.1809L292.88 59.659L307.917 54.191ZM298.407 43.447H280.562V59.447H298.407V43.447ZM273.043 48.7131L271.051 54.1911L286.088 59.6589L288.08 54.1809L273.043 48.7131ZM271.043 54.2152C271.299 53.5034 271.912 52.4885 273.07 51.7462C274.148 51.0547 275.078 51 275.333 51V67C277.248 67 279.547 66.5994 281.704 65.2163C283.941 63.7823 285.343 61.7299 286.097 59.6348L271.043 54.2152ZM275.333 51H259.978V67H275.333V51ZM259.978 51C260.636 51 261.357 51.1133 262.081 51.3849C262.803 51.6554 263.396 52.0335 263.856 52.4279L253.443 64.576C255.242 66.1177 257.52 67 259.978 67V51ZM264.724 53.2957C264.996 53.6135 266.152 55.0517 266.152 57.423H250.152C250.152 60.4583 251.639 62.6159 252.576 63.7083L264.724 53.2957ZM266.152 57.423C266.152 57.4005 266.153 57.5149 266.133 57.721C266.122 57.8289 266.102 57.9985 266.061 58.2126C266.023 58.4192 265.953 58.7376 265.824 59.1228L250.645 54.0632C250.148 55.5537 250.152 56.9615 250.152 57.423H266.152ZM265.787 59.2326L284.296 6.27864L269.192 0.999356L250.683 53.9534L265.787 59.2326ZM284.462 5.74394C284.346 6.17012 283.924 7.19841 282.782 8.03599C281.681 8.84343 280.69 8.9 280.479 8.9V-7.1C278.276 -7.1 275.666 -6.58693 273.32 -4.86649C270.933 -3.11592 269.64 -0.718126 269.026 1.53405L284.462 5.74394ZM284.795 43.262H294.174V27.262H284.795V43.262ZM301.823 32.918L297.092 17.48L281.794 22.168L286.525 37.606L301.823 32.918ZM281.782 17.5177L277.134 32.9557L292.455 37.5683L297.103 22.1303L281.782 17.5177ZM357.267 23.559L351.61 29.2158L351.61 29.2159L357.267 23.559ZM357.267 38.499L351.61 32.8421V32.8422L357.267 38.499ZM324.814 38.499L319.157 44.1558V44.1559L324.814 38.499ZM324.814 23.559L330.471 29.2159L330.471 29.2158L324.814 23.559ZM326.391 30.895H355.69V14.895H326.391V30.895ZM355.69 30.895C355 30.895 354.221 30.7644 353.436 30.4341C352.656 30.1056 352.049 29.6546 351.61 29.2158L362.924 17.9022C361.028 16.0071 358.487 14.895 355.69 14.895V30.895ZM351.61 29.2159C351.171 28.7771 350.72 28.1698 350.392 27.3897C350.061 26.6051 349.931 25.8254 349.931 25.136H365.931C365.931 22.3388 364.819 19.7972 362.924 17.9021L351.61 29.2159ZM349.931 25.136V36.922H365.931V25.136H349.931ZM349.931 36.922C349.931 36.2326 350.061 35.4529 350.392 34.6683C350.72 33.8882 351.171 33.2809 351.61 32.8421L362.924 44.1559C364.819 42.2608 365.931 39.7192 365.931 36.922H349.931ZM351.61 32.8422C352.049 32.4034 352.656 31.9524 353.436 31.6239C354.221 31.2936 355 31.163 355.69 31.163V47.163C358.487 47.163 361.028 46.0509 362.924 44.1558L351.61 32.8422ZM355.69 31.163H326.391V47.163H355.69V31.163ZM326.391 31.163C327.08 31.163 327.86 31.2936 328.644 31.6239C329.425 31.9524 330.032 32.4034 330.471 32.8421L319.157 44.1559C321.052 46.0509 323.594 47.163 326.391 47.163V31.163ZM330.471 32.8422C330.909 33.2809 331.36 33.8882 331.689 34.6683C332.019 35.4529 332.15 36.2326 332.15 36.922H316.15C316.15 39.7192 317.262 42.2608 319.157 44.1558L330.471 32.8422ZM332.15 36.922V25.136H316.15V36.922H332.15ZM332.15 25.136C332.15 25.8254 332.019 26.6051 331.689 27.3897C331.36 28.1698 330.909 28.7771 330.471 29.2159L319.157 17.9021C317.262 19.7972 316.15 22.3388 316.15 25.136H332.15ZM330.471 29.2158C330.032 29.6546 329.425 30.1056 328.644 30.4341C327.86 30.7644 327.08 30.895 326.391 30.895V14.895C323.594 14.895 321.052 16.0071 319.157 17.9021L330.471 29.2158ZM37.255 148.336L31.5981 153.993L31.5982 153.993L37.255 148.336ZM36.591 109.16H44.591V101.16H36.591V109.16ZM23.145 109.16V101.16H15.145V109.16H23.145ZM22.481 148.336L16.8242 142.679L16.8241 142.679L22.481 148.336ZM3.059 148.419L-2.59785 154.076L-2.4095 154.264L-2.20904 154.44L3.059 148.419ZM3.059 91.564L8.71586 97.2208L8.71586 97.2208L3.059 91.564ZM4.636 98.9H55.1V82.9H4.636L4.636 98.9ZM55.1 98.9C54.4106 98.9 53.6309 98.7694 52.8463 98.4391C52.0662 98.1106 51.4589 97.6596 51.0201 97.2208L62.3339 85.9071C60.4388 84.0121 57.8972 82.9 55.1 82.9V98.9ZM51.0201 97.2208C50.5814 96.7821 50.1304 96.1748 49.8019 95.3947C49.4716 94.6101 49.341 93.8304 49.341 93.141H65.341C65.341 90.3438 64.2289 87.8022 62.3339 85.9071L51.0201 97.2208ZM49.341 93.141V146.759H65.341V93.141H49.341ZM49.341 146.759C49.341 146.07 49.4716 145.29 49.8019 144.505C50.1304 143.725 50.5814 143.118 51.0202 142.679L62.3339 153.993C64.2289 152.098 65.341 149.556 65.341 146.759H49.341ZM51.0202 142.679C51.4589 142.24 52.0662 141.789 52.8463 141.461C53.6309 141.131 54.4106 141 55.1 141V157C57.8972 157 60.4388 155.888 62.3339 153.993L51.0202 142.679ZM55.1 141H38.832V157H55.1V141ZM38.832 141C39.5214 141 40.3011 141.131 41.0857 141.461C41.8658 141.789 42.4731 142.24 42.9118 142.679L31.5982 153.993C33.4932 155.888 36.0348 157 38.832 157V141ZM42.9119 142.679C43.3506 143.118 43.8016 143.725 44.1301 144.505C44.4604 145.29 44.591 146.07 44.591 146.759H28.591C28.591 149.556 29.7031 152.098 31.5981 153.993L42.9119 142.679ZM44.591 146.759V109.16H28.591L28.591 146.759H44.591ZM36.591 101.16H23.145L23.145 117.16H36.591V101.16ZM15.145 109.16L15.145 146.759H31.145V109.16H15.145ZM15.145 146.759C15.145 146.07 15.2756 145.29 15.6059 144.505C15.9344 143.725 16.3854 143.118 16.8242 142.679L28.1378 153.993C30.0329 152.098 31.145 149.556 31.145 146.759H15.145ZM16.8241 142.679C17.2629 142.24 17.8702 141.789 18.6503 141.461C19.4349 141.131 20.2146 141 20.904 141V157C23.7012 157 26.2428 155.888 28.1379 153.993L16.8241 142.679ZM20.904 141H4.636L4.636 157H20.904V141ZM4.636 141C5.19365 141 5.85454 141.091 6.55089 141.348C7.25138 141.606 7.84939 141.98 8.32704 142.398L-2.20904 154.44C-0.253416 156.151 2.16338 157 4.636 157L4.636 141ZM8.71585 142.762C9.22125 143.268 9.67694 143.921 9.98881 144.701C10.297 145.471 10.395 146.189 10.395 146.759H-5.605C-5.605 149.402 -4.63888 152.035 -2.59785 154.076L8.71585 142.762ZM10.395 146.759V93.141H-5.605V146.759H10.395ZM10.395 93.141C10.395 93.8304 10.2644 94.6101 9.93408 95.3947C9.60561 96.1748 9.15463 96.7821 8.71586 97.2208L-2.59786 85.9072C-4.49293 87.8022 -5.605 90.3438 -5.605 93.141H10.395ZM8.71586 97.2208C8.27709 97.6596 7.66985 98.1106 6.88971 98.4391C6.10512 98.7694 5.32538 98.9 4.636 98.9L4.636 82.9C1.83884 82.9 -0.702779 84.0121 -2.59786 85.9072L8.71586 97.2208ZM82.9874 130.076L90.5213 132.767L91.7053 129.451L90.0608 126.339L82.9874 130.076ZM63.6483 93.473L56.0589 96.0028L56.2672 96.6277L56.5749 97.2102L63.6483 93.473ZM63.5653 92.892L55.6742 91.5768L55.5653 92.2299V92.892H63.5653ZM85.6433 92.892L78.3708 96.2252L78.3897 96.2663L78.409 96.3072L85.6433 92.892ZM93.3624 109.243L86.128 112.658L94.2013 129.76L100.851 112.056L93.3624 109.243ZM99.5043 92.892L92.1197 89.8151L92.0652 89.946L92.0153 90.0788L99.5043 92.892ZM120.835 91.481L115.178 97.1379L115.396 97.3551L115.629 97.5551L120.835 91.481ZM121.333 93.473L114.178 89.8951L114.072 90.1073L113.979 90.3255L121.333 93.473ZM104.816 132.068L97.4615 128.92L97.457 128.931L104.816 132.068ZM95.6863 145.597L91.0685 139.064L91.0416 139.083L91.0149 139.103L95.6863 145.597ZM68.5453 148.336L62.8885 153.993H62.8885L68.5453 148.336ZM68.5453 131.902L62.8885 126.245H62.8885L68.5453 131.902ZM70.1224 139.238H78.4223V123.238H70.1224V139.238ZM78.4223 139.238C80.0487 139.238 81.896 139.137 83.612 138.7C84.7334 138.415 88.9239 137.239 90.5213 132.767L75.4534 127.385C76.1333 125.481 77.3987 124.386 78.2047 123.865C78.9625 123.375 79.5602 123.221 79.6652 123.195C79.8595 123.145 79.5627 123.238 78.4223 123.238V139.238ZM90.0608 126.339L70.7218 89.7358L56.5749 97.2102L75.9139 133.813L90.0608 126.339ZM71.2378 90.9432C71.5154 91.7761 71.5653 92.4705 71.5653 92.892H55.5653C55.5653 93.7561 55.6706 94.8379 56.0589 96.0028L71.2378 90.9432ZM71.4565 94.2072C71.3954 94.5738 71.1011 95.9108 69.7904 97.1691C68.3422 98.5593 66.6605 98.9 65.6404 98.9V82.9C63.4582 82.9 60.8497 83.5727 58.7098 85.6269C56.7074 87.5492 55.9566 89.8822 55.6742 91.5768L71.4565 94.2072ZM65.6404 98.9H82.9874V82.9H65.6404V98.9ZM82.9874 98.9C81.9299 98.9 80.7372 98.5587 79.7229 97.798C78.8115 97.1145 78.4505 96.3991 78.3708 96.2252L92.9159 89.5588C92.2275 88.0569 91.1195 86.3455 89.3228 84.998C87.4232 83.5732 85.2068 82.9 82.9874 82.9V98.9ZM78.409 96.3072L86.128 112.658L100.597 105.828L92.8777 89.4768L78.409 96.3072ZM100.851 112.056L106.993 95.7051L92.0153 90.0788L85.8733 106.43L100.851 112.056ZM106.889 95.9689C106.73 96.3502 106.273 97.2036 105.238 97.9337C104.16 98.6951 103.053 98.9 102.326 98.9V82.9C100.272 82.9 98.0307 83.4368 96.0114 84.8623C94.0363 86.2564 92.8319 88.1058 92.1197 89.8151L106.889 95.9689ZM102.326 98.9H119.507V82.9H102.326V98.9ZM119.507 98.9C118.687 98.9 117.827 98.7337 117.006 98.3745C116.2 98.0217 115.597 97.556 115.178 97.1379L126.492 85.8241C124.769 84.1013 122.349 82.9 119.507 82.9V98.9ZM115.629 97.5551C115.155 97.1488 114.573 96.5123 114.116 95.5982C113.644 94.6558 113.416 93.6351 113.416 92.643H129.416C129.416 89.4962 127.902 87.0012 126.042 85.4069L115.629 97.5551ZM113.416 92.643C113.416 92.734 113.412 92.6199 113.435 92.3864C113.447 92.2678 113.476 92.0144 113.547 91.6826C113.605 91.4153 113.766 90.72 114.178 89.8951L128.489 97.0509C129.228 95.5722 129.336 94.1785 129.356 93.9786C129.407 93.4685 129.416 92.9946 129.416 92.643H113.416ZM113.979 90.3255L97.4616 128.92L112.171 135.216L128.688 96.6205L113.979 90.3255ZM97.457 128.931C94.7336 135.321 92.4102 138.116 91.0685 139.064L100.304 152.13C105.381 148.541 109.144 142.317 112.176 135.205L97.457 128.931ZM91.0149 139.103C89.9343 139.88 86.9606 141 80.4974 141V157C87.9781 157 95.1304 155.851 100.358 152.091L91.0149 139.103ZM80.4974 141H70.1224V157H80.4974V141ZM70.1224 141C70.8117 141 71.5915 141.131 72.3761 141.461C73.1562 141.789 73.7634 142.24 74.2022 142.679L62.8885 153.993C64.7836 155.888 67.3252 157 70.1224 157V141ZM74.2022 142.679C74.641 143.118 75.092 143.725 75.4204 144.505C75.7508 145.29 75.8813 146.07 75.8813 146.759H59.8813C59.8813 149.556 60.9934 152.098 62.8885 153.993L74.2022 142.679ZM75.8813 146.759V133.479H59.8813V146.759H75.8813ZM75.8813 133.479C75.8813 134.168 75.7508 134.948 75.4204 135.733C75.092 136.513 74.641 137.12 74.2022 137.559L62.8885 126.245C60.9934 128.14 59.8813 130.682 59.8813 133.479H75.8813ZM74.2022 137.559C73.7634 137.998 73.1562 138.449 72.3761 138.777C71.5915 139.107 70.8117 139.238 70.1224 139.238V123.238C67.3252 123.238 64.7836 124.35 62.8885 126.245L74.2022 137.559ZM126.69 148.336L132.347 142.679V142.679L126.69 148.336ZM126.69 91.564L131.958 97.5846L132.159 97.4092L132.347 97.2208L126.69 91.564ZM145.282 91.564L150.939 85.9072L150.939 85.9071L145.282 91.564ZM145.946 130.74H137.946V138.74H145.946V130.74ZM152.337 130.74V138.74H160.337V130.74H152.337ZM153.001 91.564L147.344 85.9071V85.9072L153.001 91.564ZM170.597 130.74H162.597V138.74H170.597V130.74ZM176.905 130.74V138.74H184.905V130.74H176.905ZM177.569 91.564L183.226 97.2208L183.226 97.2208L177.569 91.564ZM196.161 91.564L190.504 97.2208L190.504 97.2208L196.161 91.564ZM196.161 148.336L190.504 142.679L190.504 142.679L196.161 148.336ZM194.584 141H128.267V157H194.584V141ZM128.267 141C128.956 141 129.736 141.131 130.521 141.461C131.301 141.789 131.908 142.24 132.347 142.679L121.033 153.993C122.928 155.888 125.47 157 128.267 157V141ZM132.347 142.679C132.786 143.118 133.237 143.725 133.565 144.505C133.896 145.29 134.026 146.07 134.026 146.759H118.026C118.026 149.556 119.138 152.098 121.033 153.993L132.347 142.679ZM134.026 146.759V93.141H118.026V146.759H134.026ZM134.026 93.141C134.026 93.7022 133.931 94.4855 133.565 95.3532C133.19 96.2452 132.621 97.0044 131.958 97.5846L121.422 85.5434C119.009 87.6552 118.026 90.5014 118.026 93.141H134.026ZM132.347 97.2208C131.908 97.6596 131.301 98.1106 130.521 98.4391C129.736 98.7694 128.956 98.9 128.267 98.9V82.9C125.47 82.9 122.928 84.0121 121.033 85.9072L132.347 97.2208ZM128.267 98.9H143.705V82.9H128.267V98.9ZM143.705 98.9C143.016 98.9 142.236 98.7694 141.451 98.4391C140.671 98.1106 140.064 97.6596 139.625 97.2208L150.939 85.9071C149.044 84.0121 146.502 82.9 143.705 82.9V98.9ZM139.625 97.2208C139.186 96.7821 138.735 96.1748 138.407 95.3947C138.077 94.6101 137.946 93.8304 137.946 93.141H153.946C153.946 90.3438 152.834 87.8022 150.939 85.9072L139.625 97.2208ZM137.946 93.141V130.74H153.946V93.141H137.946ZM145.946 138.74H152.337V122.74H145.946V138.74ZM160.337 130.74V93.141H144.337V130.74H160.337ZM160.337 93.141C160.337 93.8304 160.207 94.6101 159.876 95.3947C159.548 96.1748 159.097 96.7821 158.658 97.2208L147.344 85.9072C145.449 87.8022 144.337 90.3438 144.337 93.141H160.337ZM158.658 97.2208C158.219 97.6596 157.612 98.1106 156.832 98.4391C156.047 98.7694 155.267 98.9 154.578 98.9V82.9C151.781 82.9 149.239 84.0121 147.344 85.9071L158.658 97.2208ZM154.578 98.9H168.356V82.9H154.578V98.9ZM168.356 98.9C167.667 98.9 166.887 98.7694 166.102 98.4391C165.322 98.1106 164.715 97.6596 164.276 97.2208L175.59 85.9071C173.695 84.0121 171.153 82.9 168.356 82.9V98.9ZM164.276 97.2208C163.837 96.7821 163.387 96.1748 163.058 95.3947C162.728 94.6101 162.597 93.8304 162.597 93.141H178.597C178.597 90.3438 177.485 87.8022 175.59 85.9071L164.276 97.2208ZM162.597 93.141V130.74H178.597V93.141H162.597ZM170.597 138.74H176.905V122.74H170.597V138.74ZM184.905 130.74V93.141H168.905V130.74H184.905ZM184.905 93.141C184.905 93.8304 184.775 94.6101 184.444 95.3947C184.116 96.1748 183.665 96.7821 183.226 97.2208L171.912 85.9071C170.017 87.8022 168.905 90.3438 168.905 93.141H184.905ZM183.226 97.2208C182.787 97.6596 182.18 98.1106 181.4 98.4391C180.615 98.7694 179.835 98.9 179.146 98.9V82.9C176.349 82.9 173.807 84.0121 171.912 85.9072L183.226 97.2208ZM179.146 98.9H194.584V82.9H179.146V98.9ZM194.584 98.9C193.895 98.9 193.115 98.7694 192.33 98.4391C191.55 98.1106 190.943 97.6596 190.504 97.2208L201.818 85.9072C199.923 84.0121 197.381 82.9 194.584 82.9V98.9ZM190.504 97.2208C190.065 96.7821 189.615 96.1748 189.286 95.3947C188.956 94.6101 188.825 93.8304 188.825 93.141H204.825C204.825 90.3438 203.713 87.8022 201.818 85.9071L190.504 97.2208ZM188.825 93.141V146.759H204.825V93.141H188.825ZM188.825 146.759C188.825 146.07 188.956 145.29 189.286 144.505C189.615 143.725 190.065 143.118 190.504 142.679L201.818 153.993C203.713 152.098 204.825 149.556 204.825 146.759H188.825ZM190.504 142.679C190.943 142.24 191.55 141.789 192.33 141.461C193.115 141.131 193.895 141 194.584 141V157C197.381 157 199.923 155.888 201.818 153.993L190.504 142.679ZM260.768 146.261L253.888 150.343L253.898 150.36L253.908 150.377L260.768 146.261ZM260.436 148.502L254.779 142.845L254.779 142.845L260.436 148.502ZM236.864 147.091L243.957 143.39L243.903 143.286L243.845 143.184L236.864 147.091ZM226.738 128.997L233.719 125.09L218.738 98.3205V128.997H226.738ZM226.074 148.336L231.731 153.993V153.993L226.074 148.336ZM207.067 148.336L212.724 142.679V142.679L207.067 148.336ZM207.067 91.564L212.724 97.2208V97.2208L207.067 91.564ZM226.074 91.564L231.731 85.9072L231.731 85.9071L226.074 91.564ZM226.738 109.575H218.738V140.395L233.728 113.466L226.738 109.575ZM236.117 92.726L243.107 96.617L243.193 96.4622L243.273 96.3037L236.117 92.726ZM259.025 91.481L252.951 96.6873L253.352 97.1546L253.819 97.555L259.025 91.481ZM259.357 93.639L252.497 89.523L252.491 89.5331L252.485 89.5431L259.357 93.639ZM244.417 118.705L237.545 114.609L235.109 118.696L237.537 122.787L244.417 118.705ZM253.908 150.377C253.1 149.031 253.017 147.829 253.017 147.34H269.017C269.017 145.965 268.768 144.045 267.628 142.145L253.908 150.377ZM253.017 147.34C253.017 144.857 254.295 143.33 254.779 142.845L266.093 154.159C267.352 152.9 269.017 150.597 269.017 147.34H253.017ZM254.779 142.845C255.34 142.284 256.056 141.787 256.905 141.448C257.744 141.112 258.538 141 259.191 141V157C261.668 157 264.163 156.089 266.093 154.159L254.779 142.845ZM259.191 141H240.267V157H259.191V141ZM240.267 141C240.518 141 241.249 141.053 242.127 141.546C243.054 142.066 243.647 142.797 243.957 143.39L229.771 150.792C230.745 152.657 232.238 154.344 234.299 155.5C236.311 156.628 238.411 157 240.267 157V141ZM243.845 143.184L233.719 125.09L219.757 132.904L229.883 150.998L243.845 143.184ZM218.738 128.997V146.759H234.738V128.997H218.738ZM218.738 146.759C218.738 146.07 218.869 145.29 219.199 144.505C219.528 143.725 219.979 143.118 220.417 142.679L231.731 153.993C233.626 152.098 234.738 149.556 234.738 146.759H218.738ZM220.417 142.679C220.856 142.24 221.463 141.789 222.243 141.461C223.028 141.131 223.808 141 224.497 141V157C227.294 157 229.836 155.888 231.731 153.993L220.417 142.679ZM224.497 141H208.644V157H224.497V141ZM208.644 141C209.334 141 210.113 141.131 210.898 141.461C211.678 141.789 212.285 142.24 212.724 142.679L201.41 153.993C203.305 155.888 205.847 157 208.644 157V141ZM212.724 142.679C213.163 143.118 213.614 143.725 213.942 144.505C214.273 145.29 214.403 146.07 214.403 146.759H198.403C198.403 149.556 199.515 152.098 201.41 153.993L212.724 142.679ZM214.403 146.759V93.141H198.403V146.759H214.403ZM214.403 93.141C214.403 93.8304 214.273 94.6101 213.942 95.3947C213.614 96.1748 213.163 96.7821 212.724 97.2208L201.41 85.9072C199.515 87.8022 198.403 90.3438 198.403 93.141H214.403ZM212.724 97.2208C212.285 97.6596 211.678 98.1106 210.898 98.4391C210.113 98.7694 209.334 98.9 208.644 98.9V82.9C205.847 82.9 203.305 84.0121 201.41 85.9072L212.724 97.2208ZM208.644 98.9H224.497V82.9H208.644V98.9ZM224.497 98.9C223.808 98.9 223.028 98.7694 222.243 98.4391C221.463 98.1106 220.856 97.6596 220.417 97.2208L231.731 85.9071C229.836 84.0121 227.294 82.9 224.497 82.9V98.9ZM220.417 97.2208C219.979 96.7821 219.528 96.1748 219.199 95.3947C218.869 94.6101 218.738 93.8304 218.738 93.141H234.738C234.738 90.3438 233.626 87.8022 231.731 85.9072L220.417 97.2208ZM218.738 93.141V109.575H234.738V93.141H218.738ZM233.728 113.466L243.107 96.617L229.127 88.835L219.748 105.684L233.728 113.466ZM243.273 96.3037C242.91 97.0289 242.24 97.8265 241.259 98.3662C240.354 98.8642 239.626 98.9 239.437 98.9V82.9C237.644 82.9 235.56 83.2401 233.548 84.3468C231.46 85.4952 229.933 87.2057 228.962 89.1483L243.273 96.3037ZM239.437 98.9H257.78V82.9H239.437V98.9ZM257.78 98.9C256.964 98.9 256.024 98.7343 255.082 98.2947C254.145 97.8576 253.441 97.2594 252.951 96.6873L265.099 86.2747C263.29 84.1639 260.678 82.9 257.78 82.9V98.9ZM253.819 97.555C253.345 97.1488 252.763 96.5123 252.305 95.5982C251.834 94.6557 251.606 93.6351 251.606 92.643H267.606C267.606 89.4962 266.092 87.0013 264.232 85.407L253.819 97.555ZM251.606 92.643C251.606 91.8723 251.78 90.7182 252.497 89.523L266.217 97.755C267.266 96.0065 267.606 94.1883 267.606 92.643H251.606ZM252.485 89.5431L237.545 114.609L251.289 122.801L266.229 97.7349L252.485 89.5431ZM237.537 122.787L253.888 150.343L267.648 142.179L251.297 114.623L237.537 122.787ZM305.953 93.639L298.235 95.7439L298.309 96.0142L298.401 96.2786L305.953 93.639ZM324.462 146.593L332.052 144.063L332.033 144.008L332.014 143.953L324.462 146.593ZM323.964 148.502L318.307 142.845V142.845L323.964 148.502ZM304.127 146.925L311.654 144.215L311.65 144.203L311.646 144.191L304.127 146.925ZM302.135 141.447L309.654 138.713L307.739 133.447H302.135V141.447ZM284.29 141.447V133.447H278.687L276.772 138.713L284.29 141.447ZM282.298 146.925L274.78 144.191L274.775 144.203L274.771 144.215L282.298 146.925ZM262.378 148.502L256.304 153.708L256.705 154.176L257.172 154.576L262.378 148.502ZM261.963 146.593L254.411 143.953L254.392 144.008L254.374 144.063L261.963 146.593ZM280.472 93.639L288.024 96.2786L288.117 96.0142L288.19 95.7439L280.472 93.639ZM288.523 125.262L280.863 122.956L277.76 133.262H288.523V125.262ZM297.902 125.262V133.262H308.721L305.551 122.918L297.902 125.262ZM293.171 109.824L300.82 107.48L293.103 82.2994L285.511 107.518L293.171 109.824ZM284.207 98.9H302.218V82.9H284.207V98.9ZM302.218 98.9C302.007 98.9 301.016 98.8434 299.915 98.036C298.773 97.1984 298.351 96.1701 298.235 95.7439L313.671 91.5341C313.057 89.2819 311.764 86.8841 309.377 85.1335C307.031 83.4131 304.421 82.9 302.218 82.9V98.9ZM298.401 96.2786L316.91 149.233L332.014 143.953L313.505 90.9994L298.401 96.2786ZM316.873 149.123C316.744 148.738 316.674 148.419 316.636 148.213C316.595 147.999 316.575 147.829 316.564 147.721C316.544 147.515 316.545 147.4 316.545 147.423H332.545C332.545 146.962 332.549 145.554 332.052 144.063L316.873 149.123ZM316.545 147.423C316.545 145.993 316.968 144.87 317.356 144.149C317.73 143.455 318.125 143.027 318.307 142.845L329.621 154.159C330.583 153.197 332.545 150.901 332.545 147.423H316.545ZM318.307 142.845C318.868 142.284 319.584 141.787 320.433 141.448C321.272 141.112 322.066 141 322.719 141V157C325.196 157 327.691 156.089 329.621 154.159L318.307 142.845ZM322.719 141H307.364V157H322.719V141ZM307.364 141C307.619 141 308.549 141.055 309.627 141.746C310.785 142.489 311.398 143.503 311.654 144.215L296.6 149.635C297.354 151.73 298.756 153.782 300.993 155.216C303.15 156.599 305.449 157 307.364 157V141ZM311.646 144.191L309.654 138.713L294.617 144.181L296.609 149.659L311.646 144.191ZM302.135 133.447H284.29V149.447H302.135V133.447ZM276.772 138.713L274.78 144.191L289.817 149.659L291.809 144.181L276.772 138.713ZM274.771 144.215C275.027 143.503 275.64 142.489 276.798 141.746C277.877 141.055 278.806 141 279.061 141V157C280.976 157 283.275 156.599 285.433 155.216C287.67 153.782 289.071 151.73 289.825 149.635L274.771 144.215ZM279.061 141H263.706V157H279.061V141ZM263.706 141C264.365 141 265.086 141.113 265.81 141.385C266.531 141.655 267.124 142.034 267.585 142.428L257.172 154.576C258.97 156.118 261.248 157 263.706 157V141ZM268.452 143.296C268.725 143.613 269.88 145.052 269.88 147.423H253.88C253.88 150.458 255.368 152.616 256.304 153.708L268.452 143.296ZM269.88 147.423C269.88 147.4 269.882 147.515 269.861 147.721C269.85 147.829 269.83 147.999 269.79 148.213C269.751 148.419 269.681 148.738 269.553 149.123L254.374 144.063C253.877 145.554 253.88 146.962 253.88 147.423H269.88ZM269.515 149.233L288.024 96.2786L272.92 90.9994L254.411 143.953L269.515 149.233ZM288.19 95.7439C288.074 96.1701 287.653 97.1984 286.51 98.036C285.409 98.8434 284.418 98.9 284.207 98.9V82.9C282.004 82.9 279.395 83.4131 277.049 85.1335C274.661 86.8841 273.368 89.2819 272.754 91.5341L288.19 95.7439ZM288.523 133.262H297.902V117.262H288.523V133.262ZM305.551 122.918L300.82 107.48L285.522 112.168L290.253 127.606L305.551 122.918ZM285.511 107.518L280.863 122.956L296.184 127.568L300.832 112.13L285.511 107.518ZM347.383 130.74L341.726 136.397V136.397L347.383 130.74ZM347.383 148.336L341.726 142.679V142.679L347.383 148.336ZM329.787 148.336L324.13 153.993L329.787 148.336ZM329.787 130.74L324.13 125.083L329.787 130.74ZM347.383 91.564L341.726 97.2208L341.726 97.2208L347.383 91.564ZM347.383 126.092L341.726 120.435L341.726 120.435L347.383 126.092ZM329.787 126.092L335.444 120.435V120.435L329.787 126.092ZM329.787 91.564L324.13 85.9072L329.787 91.564ZM331.364 138.076H345.806V122.076H331.364V138.076ZM345.806 138.076C345.117 138.076 344.337 137.945 343.552 137.615C342.772 137.287 342.165 136.836 341.726 136.397L353.04 125.083C351.145 123.188 348.603 122.076 345.806 122.076V138.076ZM341.726 136.397C341.288 135.958 340.837 135.351 340.508 134.571C340.178 133.786 340.047 133.006 340.047 132.317H356.047C356.047 129.52 354.935 126.978 353.04 125.083L341.726 136.397ZM340.047 132.317V146.759H356.047V132.317H340.047ZM340.047 146.759C340.047 146.07 340.178 145.29 340.508 144.505C340.837 143.725 341.288 143.118 341.726 142.679L353.04 153.993C354.935 152.098 356.047 149.556 356.047 146.759H340.047ZM341.726 142.679C342.165 142.24 342.772 141.789 343.552 141.461C344.337 141.131 345.117 141 345.806 141V157C348.603 157 351.145 155.888 353.04 153.993L341.726 142.679ZM345.806 141H331.364V157H345.806V141ZM331.364 141C332.054 141 332.833 141.131 333.618 141.461C334.398 141.789 335.005 142.24 335.444 142.679L324.13 153.993C326.025 155.888 328.567 157 331.364 157V141ZM335.444 142.679C335.883 143.118 336.334 143.725 336.662 144.505C336.993 145.29 337.123 146.07 337.123 146.759H321.123C321.123 149.556 322.235 152.098 324.13 153.993L335.444 142.679ZM337.123 146.759V132.317H321.123V146.759H337.123ZM337.123 132.317C337.123 133.006 336.993 133.786 336.662 134.571C336.334 135.351 335.883 135.958 335.444 136.397L324.13 125.083C322.235 126.978 321.123 129.52 321.123 132.317H337.123ZM335.444 136.397C335.005 136.836 334.398 137.287 333.618 137.615C332.833 137.945 332.054 138.076 331.364 138.076V122.076C328.567 122.076 326.025 123.188 324.13 125.083L335.444 136.397ZM331.364 98.9H345.806V82.9H331.364V98.9ZM345.806 98.9C345.117 98.9 344.337 98.7694 343.552 98.4391C342.772 98.1106 342.165 97.6596 341.726 97.2208L353.04 85.9072C351.145 84.0121 348.603 82.9 345.806 82.9V98.9ZM341.726 97.2208C341.288 96.7821 340.837 96.1748 340.508 95.3947C340.178 94.6101 340.047 93.8304 340.047 93.141H356.047C356.047 90.3438 354.935 87.8022 353.04 85.9071L341.726 97.2208ZM340.047 93.141V124.515H356.047V93.141H340.047ZM340.047 124.515C340.047 123.826 340.178 123.046 340.508 122.261C340.837 121.481 341.288 120.874 341.726 120.435L353.04 131.749C354.935 129.854 356.047 127.312 356.047 124.515H340.047ZM341.726 120.435C342.165 119.996 342.772 119.545 343.552 119.217C344.337 118.887 345.117 118.756 345.806 118.756V134.756C348.603 134.756 351.145 133.644 353.04 131.749L341.726 120.435ZM345.806 118.756H331.364V134.756H345.806V118.756ZM331.364 118.756C332.054 118.756 332.833 118.887 333.618 119.217C334.398 119.545 335.005 119.996 335.444 120.435L324.13 131.749C326.025 133.644 328.567 134.756 331.364 134.756V118.756ZM335.444 120.435C335.883 120.874 336.334 121.481 336.662 122.261C336.993 123.046 337.123 123.826 337.123 124.515H321.123C321.123 127.312 322.235 129.854 324.13 131.749L335.444 120.435ZM337.123 124.515V93.141H321.123V124.515H337.123ZM337.123 93.141C337.123 93.8304 336.993 94.6101 336.662 95.3947C336.334 96.1748 335.883 96.7821 335.444 97.2208L324.13 85.9072C322.235 87.8022 321.123 90.3438 321.123 93.141H337.123ZM335.444 97.2208C335.005 97.6596 334.398 98.1106 333.618 98.4391C332.833 98.7694 332.054 98.9 331.364 98.9V82.9C328.567 82.9 326.025 84.0121 324.13 85.9072L335.444 97.2208Z" fill="#FE3E00"/>
</svg>
